<svg width="610" height="351" viewBox="0 0 610 351" fill="none" xmlns="http://www.w3.org/2000/svg">
<rect width="610" height="350" rx="30" fill="url(#paint0_linear_2286_417)"/>
<mask id="mask0_2286_417" style="mask-type:alpha" maskUnits="userSpaceOnUse" x="0" y="0" width="610" height="351">
<rect width="609.616" height="350.118" rx="30" fill="#ED713C"/>
</mask>
<g mask="url(#mask0_2286_417)">
<ellipse opacity="0.1" cx="47.4144" cy="405.299" rx="310.614" ry="215.018" fill="black"/>
<ellipse opacity="0.08" cx="562.201" cy="-55.1816" rx="310.614" ry="215.018" fill="black"/>
</g>
<path d="M496.24 53.2297H519.787V94.83H496.24V53.2297Z" fill="#FF5F00"/>
<path d="M480.318 115.769V111.359C480.318 109.668 479.271 108.566 477.477 108.566C476.58 108.566 475.608 108.86 474.935 109.816C474.412 109.007 473.665 108.566 472.543 108.566C471.796 108.566 471.048 108.787 470.45 109.595V108.713H468.88V115.769H470.45V111.873C470.45 110.624 471.123 110.036 472.17 110.036C473.216 110.036 473.74 110.698 473.74 111.873V115.769H475.309V111.873C475.309 110.624 476.057 110.036 477.028 110.036C478.075 110.036 478.598 110.698 478.598 111.873V115.769H480.318ZM503.566 108.713H501.024V106.582H499.455V108.713H498.034V110.109H499.454V113.344C499.454 114.961 500.127 115.916 501.921 115.916C502.594 115.916 503.341 115.696 503.865 115.402L503.416 114.079C502.968 114.372 502.445 114.446 502.071 114.446C501.323 114.446 501.024 114.005 501.024 113.27V110.109H503.566V108.713ZM516.872 108.566C515.975 108.566 515.377 109.007 515.003 109.595V108.713H513.433V115.769H515.003V111.8C515.003 110.624 515.526 109.963 516.498 109.963C516.797 109.963 517.171 110.036 517.47 110.11L517.918 108.64C517.619 108.566 517.171 108.566 516.872 108.566V108.566ZM496.763 109.301C496.016 108.787 494.969 108.566 493.848 108.566C492.054 108.566 490.858 109.448 490.858 110.845C490.858 112.021 491.755 112.682 493.325 112.903L494.072 112.976C494.895 113.123 495.343 113.344 495.343 113.711C495.343 114.225 494.745 114.593 493.698 114.593C492.652 114.593 491.83 114.225 491.306 113.858L490.559 115.034C491.381 115.622 492.502 115.916 493.623 115.916C495.717 115.916 496.913 114.961 496.913 113.638C496.913 112.388 495.941 111.726 494.446 111.506L493.698 111.433C493.025 111.359 492.502 111.212 492.502 110.771C492.502 110.257 493.025 109.963 493.848 109.963C494.745 109.963 495.642 110.33 496.09 110.551L496.763 109.301ZM538.476 108.566C537.578 108.566 536.98 109.007 536.607 109.595V108.713H535.037V115.769H536.607V111.8C536.607 110.624 537.13 109.963 538.101 109.963C538.401 109.963 538.775 110.036 539.074 110.11L539.522 108.64C539.223 108.566 538.775 108.566 538.476 108.566ZM518.442 112.241C518.442 114.372 519.937 115.916 522.254 115.916C523.301 115.916 524.048 115.696 524.796 115.108L524.048 113.858C523.45 114.299 522.852 114.519 522.179 114.519C520.908 114.519 520.012 113.638 520.012 112.241C520.012 110.918 520.908 110.036 522.179 109.963C522.852 109.963 523.45 110.183 524.048 110.624L524.796 109.375C524.048 108.787 523.301 108.566 522.254 108.566C519.937 108.566 518.442 110.11 518.442 112.241ZM532.944 112.241V108.713H531.374V109.595C530.851 108.934 530.103 108.566 529.131 108.566C527.113 108.566 525.543 110.11 525.543 112.241C525.543 114.372 527.113 115.916 529.131 115.916C530.178 115.916 530.926 115.549 531.374 114.887V115.769H532.944V112.241ZM527.188 112.241C527.188 110.992 528.01 109.963 529.355 109.963C530.626 109.963 531.524 110.918 531.524 112.241C531.524 113.491 530.626 114.519 529.355 114.519C528.01 114.446 527.188 113.491 527.188 112.241ZM508.425 108.566C506.332 108.566 504.836 110.036 504.836 112.241C504.836 114.446 506.331 115.916 508.499 115.916C509.546 115.916 510.593 115.622 511.415 114.961L510.667 113.858C510.069 114.299 509.322 114.593 508.574 114.593C507.603 114.593 506.631 114.152 506.406 112.902H511.714V112.315C511.789 110.036 510.443 108.566 508.425 108.566H508.425ZM508.425 109.889C509.396 109.889 510.07 110.477 510.219 111.58H506.481C506.631 110.624 507.304 109.889 508.425 109.889ZM547.371 112.241V105.92H545.801V109.595C545.278 108.934 544.53 108.566 543.559 108.566C541.54 108.566 539.971 110.11 539.971 112.241C539.971 114.372 541.54 115.916 543.559 115.916C544.605 115.916 545.353 115.549 545.801 114.887V115.769H547.371V112.241ZM541.615 112.241C541.615 110.992 542.437 109.963 543.783 109.963C545.054 109.963 545.951 110.918 545.951 112.241C545.951 113.491 545.054 114.519 543.783 114.519C542.437 114.446 541.615 113.491 541.615 112.241ZM489.138 112.241V108.713H487.569V109.595C487.045 108.934 486.298 108.566 485.326 108.566C483.308 108.566 481.738 110.11 481.738 112.241C481.738 114.372 483.308 115.916 485.326 115.916C486.373 115.916 487.12 115.549 487.569 114.887V115.769H489.138V112.241ZM483.308 112.241C483.308 110.992 484.13 109.963 485.475 109.963C486.746 109.963 487.643 110.918 487.643 112.241C487.643 113.491 486.746 114.519 485.475 114.519C484.13 114.446 483.308 113.491 483.308 112.241Z" fill="white"/>
<path d="M497.735 74.03C497.735 65.5777 501.771 58.0807 507.975 53.2296C503.416 49.7018 497.66 47.5704 491.381 47.5704C476.504 47.5704 464.469 59.4035 464.469 74.03C464.469 88.6561 476.504 100.49 491.38 100.49C497.66 100.49 503.415 98.3582 507.975 94.8299C501.771 90.0526 497.735 82.4822 497.735 74.03Z" fill="#EB001B"/>
<path d="M551.556 74.03C551.556 88.6561 539.521 100.49 524.645 100.49C518.366 100.49 512.61 98.3582 508.05 94.83C514.329 89.9793 518.291 82.4823 518.291 74.03C518.291 65.5778 514.254 58.0807 508.05 53.2297C512.609 49.7018 518.366 47.5704 524.645 47.5704C539.521 47.5704 551.556 59.4772 551.556 74.03H551.556Z" fill="#F79E1B"/>
<defs>
<linearGradient id="paint0_linear_2286_417" x1="307.103" y1="-58.0263" x2="319.647" y2="393.83" gradientUnits="userSpaceOnUse">
<stop stop-color="#9C2CF3"/>
<stop offset="1" stop-color="#3A49F9"/>
</linearGradient>
</defs>
</svg>
