<svg width="360" height="543" viewBox="0 0 360 543" fill="none" xmlns="http://www.w3.org/2000/svg">
<g clip-path="url(#clip0_51_6571)">
<rect width="360" height="181" fill="#121139"/>
<rect width="360" height="225" transform="translate(0 181)" fill="#121139"/>
<circle cx="121" cy="293.5" r="96.5" fill="url(#paint0_linear_51_6571)"/>
<path d="M217.5 293.5C217.5 316.874 209.016 339.453 193.625 357.044C178.234 374.635 156.981 386.042 133.814 389.145C110.647 392.249 87.1414 386.839 67.6625 373.92C48.1836 361.001 34.0557 341.451 27.9032 318.901C21.7506 296.352 23.9915 272.336 34.2096 251.314C44.4278 230.292 61.9286 213.693 83.4614 204.601C104.994 195.508 129.095 194.54 151.288 201.876C173.481 209.213 192.256 224.354 204.127 244.489L121 293.5H217.5Z" fill="url(#paint1_linear_51_6571)"/>
<path d="M217.5 293.5C217.5 310.926 212.782 328.026 203.846 342.986C194.91 357.946 182.09 370.207 166.746 378.468C151.403 386.728 134.11 390.68 116.701 389.904C99.2931 389.128 82.4198 383.652 67.8728 374.059C53.3258 364.466 41.6479 351.112 34.0789 335.416C26.5098 319.72 23.3321 302.268 24.883 284.911C26.4339 267.555 32.6555 250.942 42.8875 236.837C53.1195 222.732 66.9799 211.66 82.9973 204.798L121 293.5H217.5Z" fill="url(#paint2_linear_51_6571)"/>
<path d="M217.5 293.5C217.5 314.276 210.795 334.497 198.382 351.157C185.968 367.817 168.51 380.026 148.602 385.968C128.694 391.911 107.4 391.27 87.8856 384.14C68.3712 377.011 51.6788 363.774 40.2902 346.398L121 293.5H217.5Z" fill="url(#paint3_linear_51_6571)"/>
<path d="M217.5 293.5C217.5 308.133 214.172 322.575 207.768 335.733C201.363 348.89 192.051 360.419 180.534 369.447L121 293.5H217.5Z" fill="url(#paint4_linear_51_6571)"/>
<path d="M169.632 324.106V325H164.976V324.106H166.8V318.46C166.8 318.28 166.806 318.094 166.818 317.902L165.354 319.144C165.298 319.188 165.242 319.216 165.186 319.228C165.13 319.24 165.076 319.242 165.024 319.234C164.976 319.226 164.932 319.21 164.892 319.186C164.856 319.158 164.826 319.13 164.802 319.102L164.436 318.592L167.016 316.366H167.97V324.106H169.632ZM174.429 324.118C174.705 324.118 174.955 324.074 175.179 323.986C175.403 323.894 175.595 323.77 175.755 323.614C175.915 323.458 176.039 323.272 176.127 323.056C176.215 322.84 176.259 322.606 176.259 322.354C176.259 322.078 176.215 321.832 176.127 321.616C176.043 321.396 175.923 321.21 175.767 321.058C175.615 320.906 175.431 320.79 175.215 320.71C174.999 320.63 174.759 320.59 174.495 320.59C174.219 320.59 173.971 320.638 173.751 320.734C173.531 320.826 173.343 320.952 173.187 321.112C173.031 321.268 172.911 321.452 172.827 321.664C172.743 321.876 172.701 322.098 172.701 322.33C172.701 322.594 172.739 322.836 172.815 323.056C172.891 323.276 173.003 323.464 173.151 323.62C173.299 323.776 173.479 323.898 173.691 323.986C173.907 324.074 174.153 324.118 174.429 324.118ZM173.877 319.588C173.809 319.676 173.741 319.762 173.673 319.846C173.609 319.926 173.547 320.006 173.487 320.086C173.679 319.962 173.891 319.866 174.123 319.798C174.359 319.73 174.613 319.696 174.885 319.696C175.225 319.696 175.549 319.752 175.857 319.864C176.165 319.976 176.435 320.14 176.667 320.356C176.903 320.572 177.089 320.84 177.225 321.16C177.361 321.48 177.429 321.848 177.429 322.264C177.429 322.66 177.357 323.032 177.213 323.38C177.069 323.724 176.865 324.024 176.601 324.28C176.341 324.532 176.029 324.732 175.665 324.88C175.301 325.024 174.897 325.096 174.453 325.096C174.013 325.096 173.615 325.026 173.259 324.886C172.907 324.746 172.605 324.548 172.353 324.292C172.105 324.032 171.913 323.72 171.777 323.356C171.641 322.988 171.573 322.58 171.573 322.132C171.573 321.748 171.655 321.344 171.819 320.92C171.987 320.492 172.251 320.036 172.611 319.552L174.765 316.666C174.825 316.586 174.909 316.52 175.017 316.468C175.125 316.412 175.249 316.384 175.389 316.384H176.433L173.877 319.588ZM182.79 318.466C182.79 318.802 182.736 319.102 182.628 319.366C182.524 319.63 182.384 319.854 182.208 320.038C182.032 320.218 181.826 320.358 181.59 320.458C181.358 320.554 181.114 320.602 180.858 320.602C180.582 320.602 180.326 320.554 180.09 320.458C179.858 320.358 179.656 320.218 179.484 320.038C179.312 319.854 179.176 319.63 179.076 319.366C178.98 319.102 178.932 318.802 178.932 318.466C178.932 318.122 178.98 317.816 179.076 317.548C179.176 317.28 179.312 317.054 179.484 316.87C179.656 316.682 179.858 316.54 180.09 316.444C180.326 316.344 180.582 316.294 180.858 316.294C181.134 316.294 181.388 316.344 181.62 316.444C181.856 316.54 182.06 316.682 182.232 316.87C182.408 317.054 182.544 317.28 182.64 317.548C182.74 317.816 182.79 318.122 182.79 318.466ZM181.878 318.466C181.878 318.21 181.85 317.994 181.794 317.818C181.742 317.638 181.67 317.494 181.578 317.386C181.486 317.274 181.378 317.194 181.254 317.146C181.13 317.094 180.998 317.068 180.858 317.068C180.718 317.068 180.586 317.094 180.462 317.146C180.338 317.194 180.23 317.274 180.138 317.386C180.05 317.494 179.98 317.638 179.928 317.818C179.876 317.994 179.85 318.21 179.85 318.466C179.85 318.714 179.876 318.926 179.928 319.102C179.98 319.274 180.05 319.414 180.138 319.522C180.23 319.63 180.338 319.708 180.462 319.756C180.586 319.804 180.718 319.828 180.858 319.828C180.998 319.828 181.13 319.804 181.254 319.756C181.378 319.708 181.486 319.63 181.578 319.522C181.67 319.414 181.742 319.274 181.794 319.102C181.85 318.926 181.878 318.714 181.878 318.466ZM185.79 316.576C185.834 316.524 185.884 316.48 185.94 316.444C186 316.404 186.082 316.384 186.186 316.384H187.032L180.708 324.814C180.664 324.87 180.612 324.916 180.552 324.952C180.492 324.984 180.42 325 180.336 325H179.466L185.79 316.576ZM187.584 322.966C187.584 323.302 187.53 323.602 187.422 323.866C187.318 324.13 187.178 324.354 187.002 324.538C186.826 324.718 186.62 324.858 186.384 324.958C186.152 325.054 185.908 325.102 185.652 325.102C185.376 325.102 185.12 325.054 184.884 324.958C184.652 324.858 184.45 324.718 184.278 324.538C184.106 324.354 183.97 324.13 183.87 323.866C183.774 323.602 183.726 323.302 183.726 322.966C183.726 322.622 183.774 322.316 183.87 322.048C183.97 321.78 184.106 321.554 184.278 321.37C184.45 321.182 184.652 321.04 184.884 320.944C185.12 320.848 185.376 320.8 185.652 320.8C185.928 320.8 186.182 320.848 186.414 320.944C186.65 321.04 186.854 321.182 187.026 321.37C187.202 321.554 187.338 321.78 187.434 322.048C187.534 322.316 187.584 322.622 187.584 322.966ZM186.672 322.966C186.672 322.71 186.644 322.494 186.588 322.318C186.536 322.142 186.464 322 186.372 321.892C186.28 321.78 186.172 321.7 186.048 321.652C185.924 321.6 185.792 321.574 185.652 321.574C185.508 321.574 185.374 321.6 185.25 321.652C185.13 321.7 185.024 321.78 184.932 321.892C184.844 322 184.774 322.142 184.722 322.318C184.67 322.494 184.644 322.71 184.644 322.966C184.644 323.218 184.67 323.43 184.722 323.602C184.774 323.774 184.844 323.914 184.932 324.022C185.024 324.13 185.13 324.208 185.25 324.256C185.374 324.304 185.508 324.328 185.652 324.328C185.792 324.328 185.924 324.304 186.048 324.256C186.172 324.208 186.28 324.13 186.372 324.022C186.464 323.914 186.536 323.774 186.588 323.602C186.644 323.43 186.672 323.218 186.672 322.966Z" fill="black"/>
<path d="M114.416 344.89C114.544 344.89 114.644 344.928 114.716 345.004C114.788 345.076 114.824 345.172 114.824 345.292V346H109.04V345.598C109.04 345.518 109.056 345.434 109.088 345.346C109.12 345.254 109.174 345.172 109.25 345.1L111.974 342.37C112.202 342.142 112.408 341.922 112.592 341.71C112.776 341.498 112.932 341.288 113.06 341.08C113.188 340.868 113.286 340.652 113.354 340.432C113.426 340.212 113.462 339.98 113.462 339.736C113.462 339.496 113.424 339.286 113.348 339.106C113.272 338.922 113.168 338.77 113.036 338.65C112.904 338.53 112.748 338.44 112.568 338.38C112.388 338.32 112.194 338.29 111.986 338.29C111.778 338.29 111.586 338.32 111.41 338.38C111.238 338.44 111.084 338.524 110.948 338.632C110.812 338.74 110.698 338.868 110.606 339.016C110.514 339.164 110.448 339.324 110.408 339.496C110.352 339.648 110.28 339.75 110.192 339.802C110.108 339.854 109.984 339.866 109.82 339.838L109.208 339.73C109.264 339.33 109.374 338.978 109.538 338.674C109.702 338.37 109.908 338.116 110.156 337.912C110.404 337.704 110.688 337.548 111.008 337.444C111.332 337.34 111.68 337.288 112.052 337.288C112.428 337.288 112.774 337.344 113.09 337.456C113.41 337.564 113.686 337.722 113.918 337.93C114.15 338.138 114.332 338.392 114.464 338.692C114.596 338.988 114.662 339.324 114.662 339.7C114.662 340.02 114.614 340.318 114.518 340.594C114.426 340.866 114.298 341.126 114.134 341.374C113.974 341.622 113.786 341.864 113.57 342.1C113.358 342.332 113.132 342.568 112.892 342.808L110.708 345.04C110.876 344.996 111.044 344.96 111.212 344.932C111.384 344.904 111.546 344.89 111.698 344.89H114.416ZM118.199 340.6C118.639 340.508 119.037 340.462 119.393 340.462C119.841 340.462 120.237 340.53 120.581 340.666C120.925 340.798 121.213 340.982 121.445 341.218C121.681 341.45 121.857 341.726 121.973 342.046C122.093 342.362 122.153 342.706 122.153 343.078C122.153 343.534 122.073 343.948 121.913 344.32C121.753 344.692 121.533 345.01 121.253 345.274C120.973 345.538 120.641 345.742 120.257 345.886C119.877 346.026 119.467 346.096 119.027 346.096C118.767 346.096 118.519 346.07 118.283 346.018C118.051 345.966 117.833 345.898 117.629 345.814C117.425 345.726 117.235 345.626 117.059 345.514C116.887 345.402 116.733 345.284 116.597 345.16L116.957 344.656C117.033 344.544 117.135 344.488 117.263 344.488C117.347 344.488 117.439 344.52 117.539 344.584C117.643 344.644 117.765 344.712 117.905 344.788C118.045 344.864 118.211 344.934 118.403 344.998C118.595 345.058 118.823 345.088 119.087 345.088C119.379 345.088 119.641 345.042 119.873 344.95C120.109 344.854 120.307 344.72 120.467 344.548C120.631 344.376 120.755 344.17 120.839 343.93C120.927 343.69 120.971 343.424 120.971 343.132C120.971 342.872 120.933 342.638 120.857 342.43C120.781 342.222 120.667 342.044 120.515 341.896C120.363 341.748 120.173 341.636 119.945 341.56C119.717 341.48 119.451 341.44 119.147 341.44C118.723 341.44 118.271 341.516 117.791 341.668L117.053 341.452L117.755 337.384H121.883V337.894C121.883 338.062 121.829 338.2 121.721 338.308C121.617 338.412 121.441 338.464 121.193 338.464H118.571L118.199 340.6ZM127.79 339.466C127.79 339.802 127.736 340.102 127.628 340.366C127.524 340.63 127.384 340.854 127.208 341.038C127.032 341.218 126.826 341.358 126.59 341.458C126.358 341.554 126.114 341.602 125.858 341.602C125.582 341.602 125.326 341.554 125.09 341.458C124.858 341.358 124.656 341.218 124.484 341.038C124.312 340.854 124.176 340.63 124.076 340.366C123.98 340.102 123.932 339.802 123.932 339.466C123.932 339.122 123.98 338.816 124.076 338.548C124.176 338.28 124.312 338.054 124.484 337.87C124.656 337.682 124.858 337.54 125.09 337.444C125.326 337.344 125.582 337.294 125.858 337.294C126.134 337.294 126.388 337.344 126.62 337.444C126.856 337.54 127.06 337.682 127.232 337.87C127.408 338.054 127.544 338.28 127.64 338.548C127.74 338.816 127.79 339.122 127.79 339.466ZM126.878 339.466C126.878 339.21 126.85 338.994 126.794 338.818C126.742 338.638 126.67 338.494 126.578 338.386C126.486 338.274 126.378 338.194 126.254 338.146C126.13 338.094 125.998 338.068 125.858 338.068C125.718 338.068 125.586 338.094 125.462 338.146C125.338 338.194 125.23 338.274 125.138 338.386C125.05 338.494 124.98 338.638 124.928 338.818C124.876 338.994 124.85 339.21 124.85 339.466C124.85 339.714 124.876 339.926 124.928 340.102C124.98 340.274 125.05 340.414 125.138 340.522C125.23 340.63 125.338 340.708 125.462 340.756C125.586 340.804 125.718 340.828 125.858 340.828C125.998 340.828 126.13 340.804 126.254 340.756C126.378 340.708 126.486 340.63 126.578 340.522C126.67 340.414 126.742 340.274 126.794 340.102C126.85 339.926 126.878 339.714 126.878 339.466ZM130.79 337.576C130.834 337.524 130.884 337.48 130.94 337.444C131 337.404 131.082 337.384 131.186 337.384H132.032L125.708 345.814C125.664 345.87 125.612 345.916 125.552 345.952C125.492 345.984 125.42 346 125.336 346H124.466L130.79 337.576ZM132.584 343.966C132.584 344.302 132.53 344.602 132.422 344.866C132.318 345.13 132.178 345.354 132.002 345.538C131.826 345.718 131.62 345.858 131.384 345.958C131.152 346.054 130.908 346.102 130.652 346.102C130.376 346.102 130.12 346.054 129.884 345.958C129.652 345.858 129.45 345.718 129.278 345.538C129.106 345.354 128.97 345.13 128.87 344.866C128.774 344.602 128.726 344.302 128.726 343.966C128.726 343.622 128.774 343.316 128.87 343.048C128.97 342.78 129.106 342.554 129.278 342.37C129.45 342.182 129.652 342.04 129.884 341.944C130.12 341.848 130.376 341.8 130.652 341.8C130.928 341.8 131.182 341.848 131.414 341.944C131.65 342.04 131.854 342.182 132.026 342.37C132.202 342.554 132.338 342.78 132.434 343.048C132.534 343.316 132.584 343.622 132.584 343.966ZM131.672 343.966C131.672 343.71 131.644 343.494 131.588 343.318C131.536 343.142 131.464 343 131.372 342.892C131.28 342.78 131.172 342.7 131.048 342.652C130.924 342.6 130.792 342.574 130.652 342.574C130.508 342.574 130.374 342.6 130.25 342.652C130.13 342.7 130.024 342.78 129.932 342.892C129.844 343 129.774 343.142 129.722 343.318C129.67 343.494 129.644 343.71 129.644 343.966C129.644 344.218 129.67 344.43 129.722 344.602C129.774 344.774 129.844 344.914 129.932 345.022C130.024 345.13 130.13 345.208 130.25 345.256C130.374 345.304 130.508 345.328 130.652 345.328C130.792 345.328 130.924 345.304 131.048 345.256C131.172 345.208 131.28 345.13 131.372 345.022C131.464 344.914 131.536 344.774 131.588 344.602C131.644 344.43 131.672 344.218 131.672 343.966Z" fill="black"/>
<path d="M62.416 285.89C62.544 285.89 62.644 285.928 62.716 286.004C62.788 286.076 62.824 286.172 62.824 286.292V287H57.04V286.598C57.04 286.518 57.056 286.434 57.088 286.346C57.12 286.254 57.174 286.172 57.25 286.1L59.974 283.37C60.202 283.142 60.408 282.922 60.592 282.71C60.776 282.498 60.932 282.288 61.06 282.08C61.188 281.868 61.286 281.652 61.354 281.432C61.426 281.212 61.462 280.98 61.462 280.736C61.462 280.496 61.424 280.286 61.348 280.106C61.272 279.922 61.168 279.77 61.036 279.65C60.904 279.53 60.748 279.44 60.568 279.38C60.388 279.32 60.194 279.29 59.986 279.29C59.778 279.29 59.586 279.32 59.41 279.38C59.238 279.44 59.084 279.524 58.948 279.632C58.812 279.74 58.698 279.868 58.606 280.016C58.514 280.164 58.448 280.324 58.408 280.496C58.352 280.648 58.28 280.75 58.192 280.802C58.108 280.854 57.984 280.866 57.82 280.838L57.208 280.73C57.264 280.33 57.374 279.978 57.538 279.674C57.702 279.37 57.908 279.116 58.156 278.912C58.404 278.704 58.688 278.548 59.008 278.444C59.332 278.34 59.68 278.288 60.052 278.288C60.428 278.288 60.774 278.344 61.09 278.456C61.41 278.564 61.686 278.722 61.918 278.93C62.15 279.138 62.332 279.392 62.464 279.692C62.596 279.988 62.662 280.324 62.662 280.7C62.662 281.02 62.614 281.318 62.518 281.594C62.426 281.866 62.298 282.126 62.134 282.374C61.974 282.622 61.786 282.864 61.57 283.1C61.358 283.332 61.132 283.568 60.892 283.808L58.708 286.04C58.876 285.996 59.044 285.96 59.212 285.932C59.384 285.904 59.546 285.89 59.698 285.89H62.416ZM67.4409 286.166C67.7129 286.166 67.9549 286.128 68.1669 286.052C68.3789 285.976 68.5589 285.87 68.7069 285.734C68.8549 285.594 68.9669 285.428 69.0429 285.236C69.1189 285.044 69.1569 284.834 69.1569 284.606C69.1569 284.326 69.1109 284.086 69.0189 283.886C68.9269 283.682 68.8029 283.516 68.6469 283.388C68.4909 283.256 68.3089 283.16 68.1009 283.1C67.8929 283.036 67.6729 283.004 67.4409 283.004C67.2049 283.004 66.9829 283.036 66.7749 283.1C66.5669 283.16 66.3849 283.256 66.2289 283.388C66.0729 283.516 65.9489 283.682 65.8569 283.886C65.7689 284.086 65.7249 284.326 65.7249 284.606C65.7249 284.834 65.7629 285.044 65.8389 285.236C65.9149 285.428 66.0269 285.594 66.1749 285.734C66.3229 285.87 66.5029 285.976 66.7149 286.052C66.9269 286.128 67.1689 286.166 67.4409 286.166ZM67.4409 279.188C67.1929 279.188 66.9749 279.226 66.7869 279.302C66.6029 279.374 66.4489 279.474 66.3249 279.602C66.2009 279.73 66.1069 279.878 66.0429 280.046C65.9829 280.214 65.9529 280.394 65.9529 280.586C65.9529 280.774 65.9789 280.958 66.0309 281.138C66.0869 281.314 66.1729 281.472 66.2889 281.612C66.4089 281.748 66.5629 281.858 66.7509 281.942C66.9389 282.026 67.1689 282.068 67.4409 282.068C67.7089 282.068 67.9369 282.026 68.1249 281.942C68.3169 281.858 68.4709 281.748 68.5869 281.612C68.7069 281.472 68.7929 281.314 68.8449 281.138C68.9009 280.958 68.9289 280.774 68.9289 280.586C68.9289 280.394 68.8969 280.214 68.8329 280.046C68.7729 279.878 68.6809 279.73 68.5569 279.602C68.4329 279.474 68.2769 279.374 68.0889 279.302C67.9049 279.226 67.6889 279.188 67.4409 279.188ZM68.7309 282.506C69.2669 282.666 69.6729 282.924 69.9489 283.28C70.2289 283.636 70.3689 284.086 70.3689 284.63C70.3689 285.006 70.2969 285.346 70.1529 285.65C70.0129 285.954 69.8129 286.214 69.5529 286.43C69.2969 286.642 68.9889 286.806 68.6289 286.922C68.2689 287.038 67.8729 287.096 67.4409 287.096C67.0089 287.096 66.6129 287.038 66.2529 286.922C65.8929 286.806 65.5829 286.642 65.3229 286.43C65.0669 286.214 64.8669 285.954 64.7229 285.65C64.5829 285.346 64.5129 285.006 64.5129 284.63C64.5129 284.086 64.6509 283.636 64.9269 283.28C65.2069 282.924 65.6149 282.666 66.1509 282.506C65.7069 282.338 65.3729 282.088 65.1489 281.756C64.9249 281.42 64.8129 281.022 64.8129 280.562C64.8129 280.242 64.8749 279.944 64.9989 279.668C65.1269 279.388 65.3049 279.146 65.5329 278.942C65.7649 278.738 66.0429 278.578 66.3669 278.462C66.6909 278.346 67.0489 278.288 67.4409 278.288C67.8329 278.288 68.1909 278.346 68.5149 278.462C68.8389 278.578 69.1149 278.738 69.3429 278.942C69.5749 279.146 69.7529 279.388 69.8769 279.668C70.0049 279.944 70.0689 280.242 70.0689 280.562C70.0689 281.022 69.9569 281.42 69.7329 281.756C69.5089 282.088 69.1749 282.338 68.7309 282.506ZM75.7899 280.466C75.7899 280.802 75.7359 281.102 75.6279 281.366C75.5239 281.63 75.3839 281.854 75.2079 282.038C75.0319 282.218 74.8259 282.358 74.5899 282.458C74.3579 282.554 74.1139 282.602 73.8579 282.602C73.5819 282.602 73.3259 282.554 73.0899 282.458C72.8579 282.358 72.6559 282.218 72.4839 282.038C72.3119 281.854 72.1759 281.63 72.0759 281.366C71.9799 281.102 71.9319 280.802 71.9319 280.466C71.9319 280.122 71.9799 279.816 72.0759 279.548C72.1759 279.28 72.3119 279.054 72.4839 278.87C72.6559 278.682 72.8579 278.54 73.0899 278.444C73.3259 278.344 73.5819 278.294 73.8579 278.294C74.1339 278.294 74.3879 278.344 74.6199 278.444C74.8559 278.54 75.0599 278.682 75.2319 278.87C75.4079 279.054 75.5439 279.28 75.6399 279.548C75.7399 279.816 75.7899 280.122 75.7899 280.466ZM74.8779 280.466C74.8779 280.21 74.8499 279.994 74.7939 279.818C74.7419 279.638 74.6699 279.494 74.5779 279.386C74.4859 279.274 74.3779 279.194 74.2539 279.146C74.1299 279.094 73.9979 279.068 73.8579 279.068C73.7179 279.068 73.5859 279.094 73.4619 279.146C73.3379 279.194 73.2299 279.274 73.1379 279.386C73.0499 279.494 72.9799 279.638 72.9279 279.818C72.8759 279.994 72.8499 280.21 72.8499 280.466C72.8499 280.714 72.8759 280.926 72.9279 281.102C72.9799 281.274 73.0499 281.414 73.1379 281.522C73.2299 281.63 73.3379 281.708 73.4619 281.756C73.5859 281.804 73.7179 281.828 73.8579 281.828C73.9979 281.828 74.1299 281.804 74.2539 281.756C74.3779 281.708 74.4859 281.63 74.5779 281.522C74.6699 281.414 74.7419 281.274 74.7939 281.102C74.8499 280.926 74.8779 280.714 74.8779 280.466ZM78.7899 278.576C78.8339 278.524 78.8839 278.48 78.9399 278.444C78.9999 278.404 79.0819 278.384 79.1859 278.384H80.0319L73.7079 286.814C73.6639 286.87 73.6119 286.916 73.5519 286.952C73.4919 286.984 73.4199 287 73.3359 287H72.4659L78.7899 278.576ZM80.5839 284.966C80.5839 285.302 80.5299 285.602 80.4219 285.866C80.3179 286.13 80.1779 286.354 80.0019 286.538C79.8259 286.718 79.6199 286.858 79.3839 286.958C79.1519 287.054 78.9079 287.102 78.6519 287.102C78.3759 287.102 78.1199 287.054 77.8839 286.958C77.6519 286.858 77.4499 286.718 77.2779 286.538C77.1059 286.354 76.9699 286.13 76.8699 285.866C76.7739 285.602 76.7259 285.302 76.7259 284.966C76.7259 284.622 76.7739 284.316 76.8699 284.048C76.9699 283.78 77.1059 283.554 77.2779 283.37C77.4499 283.182 77.6519 283.04 77.8839 282.944C78.1199 282.848 78.3759 282.8 78.6519 282.8C78.9279 282.8 79.1819 282.848 79.4139 282.944C79.6499 283.04 79.8539 283.182 80.0259 283.37C80.2019 283.554 80.3379 283.78 80.4339 284.048C80.5339 284.316 80.5839 284.622 80.5839 284.966ZM79.6719 284.966C79.6719 284.71 79.6439 284.494 79.5879 284.318C79.5359 284.142 79.4639 284 79.3719 283.892C79.2799 283.78 79.1719 283.7 79.0479 283.652C78.9239 283.6 78.7919 283.574 78.6519 283.574C78.5079 283.574 78.3739 283.6 78.2499 283.652C78.1299 283.7 78.0239 283.78 77.9319 283.892C77.8439 284 77.7739 284.142 77.7219 284.318C77.6699 284.494 77.6439 284.71 77.6439 284.966C77.6439 285.218 77.6699 285.43 77.7219 285.602C77.7739 285.774 77.8439 285.914 77.9319 286.022C78.0239 286.13 78.1299 286.208 78.2499 286.256C78.3739 286.304 78.5079 286.328 78.6519 286.328C78.7919 286.328 78.9239 286.304 79.0479 286.256C79.1719 286.208 79.2799 286.13 79.3719 286.022C79.4639 285.914 79.5359 285.774 79.5879 285.602C79.6439 285.43 79.6719 285.218 79.6719 284.966Z" fill="black"/>
<path d="M127.416 245.89C127.544 245.89 127.644 245.928 127.716 246.004C127.788 246.076 127.824 246.172 127.824 246.292V247H122.04V246.598C122.04 246.518 122.056 246.434 122.088 246.346C122.12 246.254 122.174 246.172 122.25 246.1L124.974 243.37C125.202 243.142 125.408 242.922 125.592 242.71C125.776 242.498 125.932 242.288 126.06 242.08C126.188 241.868 126.286 241.652 126.354 241.432C126.426 241.212 126.462 240.98 126.462 240.736C126.462 240.496 126.424 240.286 126.348 240.106C126.272 239.922 126.168 239.77 126.036 239.65C125.904 239.53 125.748 239.44 125.568 239.38C125.388 239.32 125.194 239.29 124.986 239.29C124.778 239.29 124.586 239.32 124.41 239.38C124.238 239.44 124.084 239.524 123.948 239.632C123.812 239.74 123.698 239.868 123.606 240.016C123.514 240.164 123.448 240.324 123.408 240.496C123.352 240.648 123.28 240.75 123.192 240.802C123.108 240.854 122.984 240.866 122.82 240.838L122.208 240.73C122.264 240.33 122.374 239.978 122.538 239.674C122.702 239.37 122.908 239.116 123.156 238.912C123.404 238.704 123.688 238.548 124.008 238.444C124.332 238.34 124.68 238.288 125.052 238.288C125.428 238.288 125.774 238.344 126.09 238.456C126.41 238.564 126.686 238.722 126.918 238.93C127.15 239.138 127.332 239.392 127.464 239.692C127.596 239.988 127.662 240.324 127.662 240.7C127.662 241.02 127.614 241.318 127.518 241.594C127.426 241.866 127.298 242.126 127.134 242.374C126.974 242.622 126.786 242.864 126.57 243.1C126.358 243.332 126.132 243.568 125.892 243.808L123.708 246.04C123.876 245.996 124.044 245.96 124.212 245.932C124.384 245.904 124.546 245.89 124.698 245.89H127.416ZM134.877 245.89C135.005 245.89 135.105 245.928 135.177 246.004C135.249 246.076 135.285 246.172 135.285 246.292V247H129.501V246.598C129.501 246.518 129.517 246.434 129.549 246.346C129.581 246.254 129.635 246.172 129.711 246.1L132.435 243.37C132.663 243.142 132.869 242.922 133.053 242.71C133.237 242.498 133.393 242.288 133.521 242.08C133.649 241.868 133.747 241.652 133.815 241.432C133.887 241.212 133.923 240.98 133.923 240.736C133.923 240.496 133.885 240.286 133.809 240.106C133.733 239.922 133.629 239.77 133.497 239.65C133.365 239.53 133.209 239.44 133.029 239.38C132.849 239.32 132.655 239.29 132.447 239.29C132.239 239.29 132.047 239.32 131.871 239.38C131.699 239.44 131.545 239.524 131.409 239.632C131.273 239.74 131.159 239.868 131.067 240.016C130.975 240.164 130.909 240.324 130.869 240.496C130.813 240.648 130.741 240.75 130.653 240.802C130.569 240.854 130.445 240.866 130.281 240.838L129.669 240.73C129.725 240.33 129.835 239.978 129.999 239.674C130.163 239.37 130.369 239.116 130.617 238.912C130.865 238.704 131.149 238.548 131.469 238.444C131.793 238.34 132.141 238.288 132.513 238.288C132.889 238.288 133.235 238.344 133.551 238.456C133.871 238.564 134.147 238.722 134.379 238.93C134.611 239.138 134.793 239.392 134.925 239.692C135.057 239.988 135.123 240.324 135.123 240.7C135.123 241.02 135.075 241.318 134.979 241.594C134.887 241.866 134.759 242.126 134.595 242.374C134.435 242.622 134.247 242.864 134.031 243.1C133.819 243.332 133.593 243.568 133.353 243.808L131.169 246.04C131.337 245.996 131.505 245.96 131.673 245.932C131.845 245.904 132.007 245.89 132.159 245.89H134.877ZM140.79 240.466C140.79 240.802 140.736 241.102 140.628 241.366C140.524 241.63 140.384 241.854 140.208 242.038C140.032 242.218 139.826 242.358 139.59 242.458C139.358 242.554 139.114 242.602 138.858 242.602C138.582 242.602 138.326 242.554 138.09 242.458C137.858 242.358 137.656 242.218 137.484 242.038C137.312 241.854 137.176 241.63 137.076 241.366C136.98 241.102 136.932 240.802 136.932 240.466C136.932 240.122 136.98 239.816 137.076 239.548C137.176 239.28 137.312 239.054 137.484 238.87C137.656 238.682 137.858 238.54 138.09 238.444C138.326 238.344 138.582 238.294 138.858 238.294C139.134 238.294 139.388 238.344 139.62 238.444C139.856 238.54 140.06 238.682 140.232 238.87C140.408 239.054 140.544 239.28 140.64 239.548C140.74 239.816 140.79 240.122 140.79 240.466ZM139.878 240.466C139.878 240.21 139.85 239.994 139.794 239.818C139.742 239.638 139.67 239.494 139.578 239.386C139.486 239.274 139.378 239.194 139.254 239.146C139.13 239.094 138.998 239.068 138.858 239.068C138.718 239.068 138.586 239.094 138.462 239.146C138.338 239.194 138.23 239.274 138.138 239.386C138.05 239.494 137.98 239.638 137.928 239.818C137.876 239.994 137.85 240.21 137.85 240.466C137.85 240.714 137.876 240.926 137.928 241.102C137.98 241.274 138.05 241.414 138.138 241.522C138.23 241.63 138.338 241.708 138.462 241.756C138.586 241.804 138.718 241.828 138.858 241.828C138.998 241.828 139.13 241.804 139.254 241.756C139.378 241.708 139.486 241.63 139.578 241.522C139.67 241.414 139.742 241.274 139.794 241.102C139.85 240.926 139.878 240.714 139.878 240.466ZM143.79 238.576C143.834 238.524 143.884 238.48 143.94 238.444C144 238.404 144.082 238.384 144.186 238.384H145.032L138.708 246.814C138.664 246.87 138.612 246.916 138.552 246.952C138.492 246.984 138.42 247 138.336 247H137.466L143.79 238.576ZM145.584 244.966C145.584 245.302 145.53 245.602 145.422 245.866C145.318 246.13 145.178 246.354 145.002 246.538C144.826 246.718 144.62 246.858 144.384 246.958C144.152 247.054 143.908 247.102 143.652 247.102C143.376 247.102 143.12 247.054 142.884 246.958C142.652 246.858 142.45 246.718 142.278 246.538C142.106 246.354 141.97 246.13 141.87 245.866C141.774 245.602 141.726 245.302 141.726 244.966C141.726 244.622 141.774 244.316 141.87 244.048C141.97 243.78 142.106 243.554 142.278 243.37C142.45 243.182 142.652 243.04 142.884 242.944C143.12 242.848 143.376 242.8 143.652 242.8C143.928 242.8 144.182 242.848 144.414 242.944C144.65 243.04 144.854 243.182 145.026 243.37C145.202 243.554 145.338 243.78 145.434 244.048C145.534 244.316 145.584 244.622 145.584 244.966ZM144.672 244.966C144.672 244.71 144.644 244.494 144.588 244.318C144.536 244.142 144.464 244 144.372 243.892C144.28 243.78 144.172 243.7 144.048 243.652C143.924 243.6 143.792 243.574 143.652 243.574C143.508 243.574 143.374 243.6 143.25 243.652C143.13 243.7 143.024 243.78 142.932 243.892C142.844 244 142.774 244.142 142.722 244.318C142.67 244.494 142.644 244.71 142.644 244.966C142.644 245.218 142.67 245.43 142.722 245.602C142.774 245.774 142.844 245.914 142.932 246.022C143.024 246.13 143.13 246.208 143.25 246.256C143.374 246.304 143.508 246.328 143.652 246.328C143.792 246.328 143.924 246.304 144.048 246.256C144.172 246.208 144.28 246.13 144.372 246.022C144.464 245.914 144.536 245.774 144.588 245.602C144.644 245.43 144.672 245.218 144.672 244.966Z" fill="black"/>
<path d="M170.27 275.928C170.27 276.46 170.414 276.87 170.702 277.158C170.99 277.446 171.39 277.59 171.902 277.59C172.178 277.59 172.422 277.546 172.634 277.458C172.846 277.366 173.024 277.246 173.168 277.098C173.316 276.946 173.428 276.772 173.504 276.576C173.58 276.376 173.618 276.168 173.618 275.952C173.618 275.692 173.576 275.458 173.492 275.25C173.412 275.038 173.298 274.86 173.15 274.716C173.002 274.568 172.826 274.456 172.622 274.38C172.422 274.3 172.2 274.26 171.956 274.26C171.704 274.26 171.474 274.302 171.266 274.386C171.058 274.466 170.88 274.58 170.732 274.728C170.584 274.876 170.47 275.052 170.39 275.256C170.31 275.46 170.27 275.684 170.27 275.928ZM172.634 278.592C172.79 278.388 172.936 278.188 173.072 277.992C172.856 278.156 172.614 278.28 172.346 278.364C172.082 278.448 171.8 278.49 171.5 278.49C171.184 278.49 170.88 278.436 170.588 278.328C170.3 278.22 170.044 278.062 169.82 277.854C169.6 277.642 169.424 277.382 169.292 277.074C169.16 276.766 169.094 276.412 169.094 276.012C169.094 275.636 169.164 275.282 169.304 274.95C169.444 274.618 169.64 274.33 169.892 274.086C170.148 273.838 170.452 273.644 170.804 273.504C171.16 273.36 171.55 273.288 171.974 273.288C172.394 273.288 172.774 273.356 173.114 273.492C173.458 273.628 173.75 273.82 173.99 274.068C174.23 274.312 174.416 274.606 174.548 274.95C174.68 275.294 174.746 275.672 174.746 276.084C174.746 276.336 174.722 276.576 174.674 276.804C174.63 277.032 174.564 277.254 174.476 277.47C174.392 277.686 174.288 277.9 174.164 278.112C174.044 278.32 173.906 278.534 173.75 278.754L171.68 281.724C171.624 281.804 171.542 281.87 171.434 281.922C171.33 281.974 171.21 282 171.074 282H170L172.634 278.592ZM180.329 275.466C180.329 275.802 180.275 276.102 180.167 276.366C180.063 276.63 179.923 276.854 179.747 277.038C179.571 277.218 179.365 277.358 179.129 277.458C178.897 277.554 178.653 277.602 178.397 277.602C178.121 277.602 177.865 277.554 177.629 277.458C177.397 277.358 177.195 277.218 177.023 277.038C176.851 276.854 176.715 276.63 176.615 276.366C176.519 276.102 176.471 275.802 176.471 275.466C176.471 275.122 176.519 274.816 176.615 274.548C176.715 274.28 176.851 274.054 177.023 273.87C177.195 273.682 177.397 273.54 177.629 273.444C177.865 273.344 178.121 273.294 178.397 273.294C178.673 273.294 178.927 273.344 179.159 273.444C179.395 273.54 179.599 273.682 179.771 273.87C179.947 274.054 180.083 274.28 180.179 274.548C180.279 274.816 180.329 275.122 180.329 275.466ZM179.417 275.466C179.417 275.21 179.389 274.994 179.333 274.818C179.281 274.638 179.209 274.494 179.117 274.386C179.025 274.274 178.917 274.194 178.793 274.146C178.669 274.094 178.537 274.068 178.397 274.068C178.257 274.068 178.125 274.094 178.001 274.146C177.877 274.194 177.769 274.274 177.677 274.386C177.589 274.494 177.519 274.638 177.467 274.818C177.415 274.994 177.389 275.21 177.389 275.466C177.389 275.714 177.415 275.926 177.467 276.102C177.519 276.274 177.589 276.414 177.677 276.522C177.769 276.63 177.877 276.708 178.001 276.756C178.125 276.804 178.257 276.828 178.397 276.828C178.537 276.828 178.669 276.804 178.793 276.756C178.917 276.708 179.025 276.63 179.117 276.522C179.209 276.414 179.281 276.274 179.333 276.102C179.389 275.926 179.417 275.714 179.417 275.466ZM183.329 273.576C183.373 273.524 183.423 273.48 183.479 273.444C183.539 273.404 183.621 273.384 183.725 273.384H184.571L178.247 281.814C178.203 281.87 178.151 281.916 178.091 281.952C178.031 281.984 177.959 282 177.875 282H177.005L183.329 273.576ZM185.123 279.966C185.123 280.302 185.069 280.602 184.961 280.866C184.857 281.13 184.717 281.354 184.541 281.538C184.365 281.718 184.159 281.858 183.923 281.958C183.691 282.054 183.447 282.102 183.191 282.102C182.915 282.102 182.659 282.054 182.423 281.958C182.191 281.858 181.989 281.718 181.817 281.538C181.645 281.354 181.509 281.13 181.409 280.866C181.313 280.602 181.265 280.302 181.265 279.966C181.265 279.622 181.313 279.316 181.409 279.048C181.509 278.78 181.645 278.554 181.817 278.37C181.989 278.182 182.191 278.04 182.423 277.944C182.659 277.848 182.915 277.8 183.191 277.8C183.467 277.8 183.721 277.848 183.953 277.944C184.189 278.04 184.393 278.182 184.565 278.37C184.741 278.554 184.877 278.78 184.973 279.048C185.073 279.316 185.123 279.622 185.123 279.966ZM184.211 279.966C184.211 279.71 184.183 279.494 184.127 279.318C184.075 279.142 184.003 279 183.911 278.892C183.819 278.78 183.711 278.7 183.587 278.652C183.463 278.6 183.331 278.574 183.191 278.574C183.047 278.574 182.913 278.6 182.789 278.652C182.669 278.7 182.563 278.78 182.471 278.892C182.383 279 182.313 279.142 182.261 279.318C182.209 279.494 182.183 279.71 182.183 279.966C182.183 280.218 182.209 280.43 182.261 280.602C182.313 280.774 182.383 280.914 182.471 281.022C182.563 281.13 182.669 281.208 182.789 281.256C182.913 281.304 183.047 281.328 183.191 281.328C183.331 281.328 183.463 281.304 183.587 281.256C183.711 281.208 183.819 281.13 183.911 281.022C184.003 280.914 184.075 280.774 184.127 280.602C184.183 280.43 184.211 280.218 184.211 279.966Z" fill="black"/>
<circle cx="238.5" cy="233.5" r="5" fill="#443FCE"/>
<path d="M251.762 238.5H250.598V229.902H251.762V238.5ZM255.9 238.596C255.42 238.596 255.05 238.462 254.79 238.194C254.534 237.926 254.406 237.54 254.406 237.036V233.316H253.674C253.61 233.316 253.556 233.298 253.512 233.262C253.468 233.222 253.446 233.162 253.446 233.082V232.656L254.442 232.53L254.688 230.652C254.7 230.592 254.726 230.544 254.766 230.508C254.81 230.468 254.866 230.448 254.934 230.448H255.474V232.542H257.232V233.316H255.474V236.964C255.474 237.22 255.536 237.41 255.66 237.534C255.784 237.658 255.944 237.72 256.14 237.72C256.252 237.72 256.348 237.706 256.428 237.678C256.512 237.646 256.584 237.612 256.644 237.576C256.704 237.54 256.754 237.508 256.794 237.48C256.838 237.448 256.876 237.432 256.908 237.432C256.964 237.432 257.014 237.466 257.058 237.534L257.37 238.044C257.186 238.216 256.964 238.352 256.704 238.452C256.444 238.548 256.176 238.596 255.9 238.596ZM262.867 234.798C262.867 234.55 262.831 234.324 262.759 234.12C262.691 233.912 262.589 233.734 262.453 233.586C262.321 233.434 262.159 233.318 261.967 233.238C261.775 233.154 261.557 233.112 261.313 233.112C260.801 233.112 260.395 233.262 260.095 233.562C259.799 233.858 259.615 234.27 259.543 234.798H262.867ZM263.731 237.648C263.599 237.808 263.441 237.948 263.257 238.068C263.073 238.184 262.875 238.28 262.663 238.356C262.455 238.432 262.239 238.488 262.015 238.524C261.791 238.564 261.569 238.584 261.349 238.584C260.929 238.584 260.541 238.514 260.185 238.374C259.833 238.23 259.527 238.022 259.267 237.75C259.011 237.474 258.811 237.134 258.667 236.73C258.523 236.326 258.451 235.862 258.451 235.338C258.451 234.914 258.515 234.518 258.643 234.15C258.775 233.782 258.963 233.464 259.207 233.196C259.451 232.924 259.749 232.712 260.101 232.56C260.453 232.404 260.849 232.326 261.289 232.326C261.653 232.326 261.989 232.388 262.297 232.512C262.609 232.632 262.877 232.808 263.101 233.04C263.329 233.268 263.507 233.552 263.635 233.892C263.763 234.228 263.827 234.612 263.827 235.044C263.827 235.212 263.809 235.324 263.773 235.38C263.737 235.436 263.669 235.464 263.569 235.464H259.507C259.519 235.848 259.571 236.182 259.663 236.466C259.759 236.75 259.891 236.988 260.059 237.18C260.227 237.368 260.427 237.51 260.659 237.606C260.891 237.698 261.151 237.744 261.439 237.744C261.707 237.744 261.937 237.714 262.129 237.654C262.325 237.59 262.493 237.522 262.633 237.45C262.773 237.378 262.889 237.312 262.981 237.252C263.077 237.188 263.159 237.156 263.227 237.156C263.315 237.156 263.383 237.19 263.431 237.258L263.731 237.648ZM265.639 238.5V232.422H266.281C266.433 232.422 266.527 232.496 266.563 232.644L266.641 233.268C266.865 232.992 267.117 232.766 267.397 232.59C267.677 232.414 268.001 232.326 268.369 232.326C268.777 232.326 269.107 232.44 269.359 232.668C269.615 232.896 269.799 233.204 269.911 233.592C269.999 233.372 270.111 233.182 270.247 233.022C270.387 232.862 270.543 232.73 270.715 232.626C270.887 232.522 271.069 232.446 271.261 232.398C271.457 232.35 271.655 232.326 271.855 232.326C272.175 232.326 272.459 232.378 272.707 232.482C272.959 232.582 273.171 232.73 273.343 232.926C273.519 233.122 273.653 233.364 273.745 233.652C273.837 233.936 273.883 234.262 273.883 234.63V238.5H272.809V234.63C272.809 234.154 272.705 233.794 272.497 233.55C272.289 233.302 271.989 233.178 271.597 233.178C271.421 233.178 271.253 233.21 271.093 233.274C270.937 233.334 270.799 233.424 270.679 233.544C270.559 233.664 270.463 233.816 270.391 234C270.323 234.18 270.289 234.39 270.289 234.63V238.5H269.215V234.63C269.215 234.142 269.117 233.778 268.921 233.538C268.725 233.298 268.439 233.178 268.063 233.178C267.799 233.178 267.555 233.25 267.331 233.394C267.107 233.534 266.901 233.726 266.713 233.97V238.5H265.639Z" fill="white"/>
<circle cx="238.5" cy="263.5" r="5" fill="#9D59FF"/>
<path d="M251.762 268.5H250.598V259.902H251.762V268.5ZM255.9 268.596C255.42 268.596 255.05 268.462 254.79 268.194C254.534 267.926 254.406 267.54 254.406 267.036V263.316H253.674C253.61 263.316 253.556 263.298 253.512 263.262C253.468 263.222 253.446 263.162 253.446 263.082V262.656L254.442 262.53L254.688 260.652C254.7 260.592 254.726 260.544 254.766 260.508C254.81 260.468 254.866 260.448 254.934 260.448H255.474V262.542H257.232V263.316H255.474V266.964C255.474 267.22 255.536 267.41 255.66 267.534C255.784 267.658 255.944 267.72 256.14 267.72C256.252 267.72 256.348 267.706 256.428 267.678C256.512 267.646 256.584 267.612 256.644 267.576C256.704 267.54 256.754 267.508 256.794 267.48C256.838 267.448 256.876 267.432 256.908 267.432C256.964 267.432 257.014 267.466 257.058 267.534L257.37 268.044C257.186 268.216 256.964 268.352 256.704 268.452C256.444 268.548 256.176 268.596 255.9 268.596ZM262.867 264.798C262.867 264.55 262.831 264.324 262.759 264.12C262.691 263.912 262.589 263.734 262.453 263.586C262.321 263.434 262.159 263.318 261.967 263.238C261.775 263.154 261.557 263.112 261.313 263.112C260.801 263.112 260.395 263.262 260.095 263.562C259.799 263.858 259.615 264.27 259.543 264.798H262.867ZM263.731 267.648C263.599 267.808 263.441 267.948 263.257 268.068C263.073 268.184 262.875 268.28 262.663 268.356C262.455 268.432 262.239 268.488 262.015 268.524C261.791 268.564 261.569 268.584 261.349 268.584C260.929 268.584 260.541 268.514 260.185 268.374C259.833 268.23 259.527 268.022 259.267 267.75C259.011 267.474 258.811 267.134 258.667 266.73C258.523 266.326 258.451 265.862 258.451 265.338C258.451 264.914 258.515 264.518 258.643 264.15C258.775 263.782 258.963 263.464 259.207 263.196C259.451 262.924 259.749 262.712 260.101 262.56C260.453 262.404 260.849 262.326 261.289 262.326C261.653 262.326 261.989 262.388 262.297 262.512C262.609 262.632 262.877 262.808 263.101 263.04C263.329 263.268 263.507 263.552 263.635 263.892C263.763 264.228 263.827 264.612 263.827 265.044C263.827 265.212 263.809 265.324 263.773 265.38C263.737 265.436 263.669 265.464 263.569 265.464H259.507C259.519 265.848 259.571 266.182 259.663 266.466C259.759 266.75 259.891 266.988 260.059 267.18C260.227 267.368 260.427 267.51 260.659 267.606C260.891 267.698 261.151 267.744 261.439 267.744C261.707 267.744 261.937 267.714 262.129 267.654C262.325 267.59 262.493 267.522 262.633 267.45C262.773 267.378 262.889 267.312 262.981 267.252C263.077 267.188 263.159 267.156 263.227 267.156C263.315 267.156 263.383 267.19 263.431 267.258L263.731 267.648ZM265.639 268.5V262.422H266.281C266.433 262.422 266.527 262.496 266.563 262.644L266.641 263.268C266.865 262.992 267.117 262.766 267.397 262.59C267.677 262.414 268.001 262.326 268.369 262.326C268.777 262.326 269.107 262.44 269.359 262.668C269.615 262.896 269.799 263.204 269.911 263.592C269.999 263.372 270.111 263.182 270.247 263.022C270.387 262.862 270.543 262.73 270.715 262.626C270.887 262.522 271.069 262.446 271.261 262.398C271.457 262.35 271.655 262.326 271.855 262.326C272.175 262.326 272.459 262.378 272.707 262.482C272.959 262.582 273.171 262.73 273.343 262.926C273.519 263.122 273.653 263.364 273.745 263.652C273.837 263.936 273.883 264.262 273.883 264.63V268.5H272.809V264.63C272.809 264.154 272.705 263.794 272.497 263.55C272.289 263.302 271.989 263.178 271.597 263.178C271.421 263.178 271.253 263.21 271.093 263.274C270.937 263.334 270.799 263.424 270.679 263.544C270.559 263.664 270.463 263.816 270.391 264C270.323 264.18 270.289 264.39 270.289 264.63V268.5H269.215V264.63C269.215 264.142 269.117 263.778 268.921 263.538C268.725 263.298 268.439 263.178 268.063 263.178C267.799 263.178 267.555 263.25 267.331 263.394C267.107 263.534 266.901 263.726 266.713 263.97V268.5H265.639Z" fill="white"/>
<circle cx="238.5" cy="293.5" r="5" fill="#6040C5"/>
<path d="M251.762 298.5H250.598V289.902H251.762V298.5ZM255.9 298.596C255.42 298.596 255.05 298.462 254.79 298.194C254.534 297.926 254.406 297.54 254.406 297.036V293.316H253.674C253.61 293.316 253.556 293.298 253.512 293.262C253.468 293.222 253.446 293.162 253.446 293.082V292.656L254.442 292.53L254.688 290.652C254.7 290.592 254.726 290.544 254.766 290.508C254.81 290.468 254.866 290.448 254.934 290.448H255.474V292.542H257.232V293.316H255.474V296.964C255.474 297.22 255.536 297.41 255.66 297.534C255.784 297.658 255.944 297.72 256.14 297.72C256.252 297.72 256.348 297.706 256.428 297.678C256.512 297.646 256.584 297.612 256.644 297.576C256.704 297.54 256.754 297.508 256.794 297.48C256.838 297.448 256.876 297.432 256.908 297.432C256.964 297.432 257.014 297.466 257.058 297.534L257.37 298.044C257.186 298.216 256.964 298.352 256.704 298.452C256.444 298.548 256.176 298.596 255.9 298.596ZM262.867 294.798C262.867 294.55 262.831 294.324 262.759 294.12C262.691 293.912 262.589 293.734 262.453 293.586C262.321 293.434 262.159 293.318 261.967 293.238C261.775 293.154 261.557 293.112 261.313 293.112C260.801 293.112 260.395 293.262 260.095 293.562C259.799 293.858 259.615 294.27 259.543 294.798H262.867ZM263.731 297.648C263.599 297.808 263.441 297.948 263.257 298.068C263.073 298.184 262.875 298.28 262.663 298.356C262.455 298.432 262.239 298.488 262.015 298.524C261.791 298.564 261.569 298.584 261.349 298.584C260.929 298.584 260.541 298.514 260.185 298.374C259.833 298.23 259.527 298.022 259.267 297.75C259.011 297.474 258.811 297.134 258.667 296.73C258.523 296.326 258.451 295.862 258.451 295.338C258.451 294.914 258.515 294.518 258.643 294.15C258.775 293.782 258.963 293.464 259.207 293.196C259.451 292.924 259.749 292.712 260.101 292.56C260.453 292.404 260.849 292.326 261.289 292.326C261.653 292.326 261.989 292.388 262.297 292.512C262.609 292.632 262.877 292.808 263.101 293.04C263.329 293.268 263.507 293.552 263.635 293.892C263.763 294.228 263.827 294.612 263.827 295.044C263.827 295.212 263.809 295.324 263.773 295.38C263.737 295.436 263.669 295.464 263.569 295.464H259.507C259.519 295.848 259.571 296.182 259.663 296.466C259.759 296.75 259.891 296.988 260.059 297.18C260.227 297.368 260.427 297.51 260.659 297.606C260.891 297.698 261.151 297.744 261.439 297.744C261.707 297.744 261.937 297.714 262.129 297.654C262.325 297.59 262.493 297.522 262.633 297.45C262.773 297.378 262.889 297.312 262.981 297.252C263.077 297.188 263.159 297.156 263.227 297.156C263.315 297.156 263.383 297.19 263.431 297.258L263.731 297.648ZM265.639 298.5V292.422H266.281C266.433 292.422 266.527 292.496 266.563 292.644L266.641 293.268C266.865 292.992 267.117 292.766 267.397 292.59C267.677 292.414 268.001 292.326 268.369 292.326C268.777 292.326 269.107 292.44 269.359 292.668C269.615 292.896 269.799 293.204 269.911 293.592C269.999 293.372 270.111 293.182 270.247 293.022C270.387 292.862 270.543 292.73 270.715 292.626C270.887 292.522 271.069 292.446 271.261 292.398C271.457 292.35 271.655 292.326 271.855 292.326C272.175 292.326 272.459 292.378 272.707 292.482C272.959 292.582 273.171 292.73 273.343 292.926C273.519 293.122 273.653 293.364 273.745 293.652C273.837 293.936 273.883 294.262 273.883 294.63V298.5H272.809V294.63C272.809 294.154 272.705 293.794 272.497 293.55C272.289 293.302 271.989 293.178 271.597 293.178C271.421 293.178 271.253 293.21 271.093 293.274C270.937 293.334 270.799 293.424 270.679 293.544C270.559 293.664 270.463 293.816 270.391 294C270.323 294.18 270.289 294.39 270.289 294.63V298.5H269.215V294.63C269.215 294.142 269.117 293.778 268.921 293.538C268.725 293.298 268.439 293.178 268.063 293.178C267.799 293.178 267.555 293.25 267.331 293.394C267.107 293.534 266.901 293.726 266.713 293.97V298.5H265.639Z" fill="white"/>
<circle cx="238.5" cy="323.5" r="5" fill="#6F64DD"/>
<path d="M251.762 328.5H250.598V319.902H251.762V328.5ZM255.9 328.596C255.42 328.596 255.05 328.462 254.79 328.194C254.534 327.926 254.406 327.54 254.406 327.036V323.316H253.674C253.61 323.316 253.556 323.298 253.512 323.262C253.468 323.222 253.446 323.162 253.446 323.082V322.656L254.442 322.53L254.688 320.652C254.7 320.592 254.726 320.544 254.766 320.508C254.81 320.468 254.866 320.448 254.934 320.448H255.474V322.542H257.232V323.316H255.474V326.964C255.474 327.22 255.536 327.41 255.66 327.534C255.784 327.658 255.944 327.72 256.14 327.72C256.252 327.72 256.348 327.706 256.428 327.678C256.512 327.646 256.584 327.612 256.644 327.576C256.704 327.54 256.754 327.508 256.794 327.48C256.838 327.448 256.876 327.432 256.908 327.432C256.964 327.432 257.014 327.466 257.058 327.534L257.37 328.044C257.186 328.216 256.964 328.352 256.704 328.452C256.444 328.548 256.176 328.596 255.9 328.596ZM262.867 324.798C262.867 324.55 262.831 324.324 262.759 324.12C262.691 323.912 262.589 323.734 262.453 323.586C262.321 323.434 262.159 323.318 261.967 323.238C261.775 323.154 261.557 323.112 261.313 323.112C260.801 323.112 260.395 323.262 260.095 323.562C259.799 323.858 259.615 324.27 259.543 324.798H262.867ZM263.731 327.648C263.599 327.808 263.441 327.948 263.257 328.068C263.073 328.184 262.875 328.28 262.663 328.356C262.455 328.432 262.239 328.488 262.015 328.524C261.791 328.564 261.569 328.584 261.349 328.584C260.929 328.584 260.541 328.514 260.185 328.374C259.833 328.23 259.527 328.022 259.267 327.75C259.011 327.474 258.811 327.134 258.667 326.73C258.523 326.326 258.451 325.862 258.451 325.338C258.451 324.914 258.515 324.518 258.643 324.15C258.775 323.782 258.963 323.464 259.207 323.196C259.451 322.924 259.749 322.712 260.101 322.56C260.453 322.404 260.849 322.326 261.289 322.326C261.653 322.326 261.989 322.388 262.297 322.512C262.609 322.632 262.877 322.808 263.101 323.04C263.329 323.268 263.507 323.552 263.635 323.892C263.763 324.228 263.827 324.612 263.827 325.044C263.827 325.212 263.809 325.324 263.773 325.38C263.737 325.436 263.669 325.464 263.569 325.464H259.507C259.519 325.848 259.571 326.182 259.663 326.466C259.759 326.75 259.891 326.988 260.059 327.18C260.227 327.368 260.427 327.51 260.659 327.606C260.891 327.698 261.151 327.744 261.439 327.744C261.707 327.744 261.937 327.714 262.129 327.654C262.325 327.59 262.493 327.522 262.633 327.45C262.773 327.378 262.889 327.312 262.981 327.252C263.077 327.188 263.159 327.156 263.227 327.156C263.315 327.156 263.383 327.19 263.431 327.258L263.731 327.648ZM265.639 328.5V322.422H266.281C266.433 322.422 266.527 322.496 266.563 322.644L266.641 323.268C266.865 322.992 267.117 322.766 267.397 322.59C267.677 322.414 268.001 322.326 268.369 322.326C268.777 322.326 269.107 322.44 269.359 322.668C269.615 322.896 269.799 323.204 269.911 323.592C269.999 323.372 270.111 323.182 270.247 323.022C270.387 322.862 270.543 322.73 270.715 322.626C270.887 322.522 271.069 322.446 271.261 322.398C271.457 322.35 271.655 322.326 271.855 322.326C272.175 322.326 272.459 322.378 272.707 322.482C272.959 322.582 273.171 322.73 273.343 322.926C273.519 323.122 273.653 323.364 273.745 323.652C273.837 323.936 273.883 324.262 273.883 324.63V328.5H272.809V324.63C272.809 324.154 272.705 323.794 272.497 323.55C272.289 323.302 271.989 323.178 271.597 323.178C271.421 323.178 271.253 323.21 271.093 323.274C270.937 323.334 270.799 323.424 270.679 323.544C270.559 323.664 270.463 323.816 270.391 324C270.323 324.18 270.289 324.39 270.289 324.63V328.5H269.215V324.63C269.215 324.142 269.117 323.778 268.921 323.538C268.725 323.298 268.439 323.178 268.063 323.178C267.799 323.178 267.555 323.25 267.331 323.394C267.107 323.534 266.901 323.726 266.713 323.97V328.5H265.639Z" fill="white"/>
<circle cx="238.5" cy="353.5" r="5" fill="#5942DC"/>
<path d="M251.762 358.5H250.598V349.902H251.762V358.5ZM255.9 358.596C255.42 358.596 255.05 358.462 254.79 358.194C254.534 357.926 254.406 357.54 254.406 357.036V353.316H253.674C253.61 353.316 253.556 353.298 253.512 353.262C253.468 353.222 253.446 353.162 253.446 353.082V352.656L254.442 352.53L254.688 350.652C254.7 350.592 254.726 350.544 254.766 350.508C254.81 350.468 254.866 350.448 254.934 350.448H255.474V352.542H257.232V353.316H255.474V356.964C255.474 357.22 255.536 357.41 255.66 357.534C255.784 357.658 255.944 357.72 256.14 357.72C256.252 357.72 256.348 357.706 256.428 357.678C256.512 357.646 256.584 357.612 256.644 357.576C256.704 357.54 256.754 357.508 256.794 357.48C256.838 357.448 256.876 357.432 256.908 357.432C256.964 357.432 257.014 357.466 257.058 357.534L257.37 358.044C257.186 358.216 256.964 358.352 256.704 358.452C256.444 358.548 256.176 358.596 255.9 358.596ZM262.867 354.798C262.867 354.55 262.831 354.324 262.759 354.12C262.691 353.912 262.589 353.734 262.453 353.586C262.321 353.434 262.159 353.318 261.967 353.238C261.775 353.154 261.557 353.112 261.313 353.112C260.801 353.112 260.395 353.262 260.095 353.562C259.799 353.858 259.615 354.27 259.543 354.798H262.867ZM263.731 357.648C263.599 357.808 263.441 357.948 263.257 358.068C263.073 358.184 262.875 358.28 262.663 358.356C262.455 358.432 262.239 358.488 262.015 358.524C261.791 358.564 261.569 358.584 261.349 358.584C260.929 358.584 260.541 358.514 260.185 358.374C259.833 358.23 259.527 358.022 259.267 357.75C259.011 357.474 258.811 357.134 258.667 356.73C258.523 356.326 258.451 355.862 258.451 355.338C258.451 354.914 258.515 354.518 258.643 354.15C258.775 353.782 258.963 353.464 259.207 353.196C259.451 352.924 259.749 352.712 260.101 352.56C260.453 352.404 260.849 352.326 261.289 352.326C261.653 352.326 261.989 352.388 262.297 352.512C262.609 352.632 262.877 352.808 263.101 353.04C263.329 353.268 263.507 353.552 263.635 353.892C263.763 354.228 263.827 354.612 263.827 355.044C263.827 355.212 263.809 355.324 263.773 355.38C263.737 355.436 263.669 355.464 263.569 355.464H259.507C259.519 355.848 259.571 356.182 259.663 356.466C259.759 356.75 259.891 356.988 260.059 357.18C260.227 357.368 260.427 357.51 260.659 357.606C260.891 357.698 261.151 357.744 261.439 357.744C261.707 357.744 261.937 357.714 262.129 357.654C262.325 357.59 262.493 357.522 262.633 357.45C262.773 357.378 262.889 357.312 262.981 357.252C263.077 357.188 263.159 357.156 263.227 357.156C263.315 357.156 263.383 357.19 263.431 357.258L263.731 357.648ZM265.639 358.5V352.422H266.281C266.433 352.422 266.527 352.496 266.563 352.644L266.641 353.268C266.865 352.992 267.117 352.766 267.397 352.59C267.677 352.414 268.001 352.326 268.369 352.326C268.777 352.326 269.107 352.44 269.359 352.668C269.615 352.896 269.799 353.204 269.911 353.592C269.999 353.372 270.111 353.182 270.247 353.022C270.387 352.862 270.543 352.73 270.715 352.626C270.887 352.522 271.069 352.446 271.261 352.398C271.457 352.35 271.655 352.326 271.855 352.326C272.175 352.326 272.459 352.378 272.707 352.482C272.959 352.582 273.171 352.73 273.343 352.926C273.519 353.122 273.653 353.364 273.745 353.652C273.837 353.936 273.883 354.262 273.883 354.63V358.5H272.809V354.63C272.809 354.154 272.705 353.794 272.497 353.55C272.289 353.302 271.989 353.178 271.597 353.178C271.421 353.178 271.253 353.21 271.093 353.274C270.937 353.334 270.799 353.424 270.679 353.544C270.559 353.664 270.463 353.816 270.391 354C270.323 354.18 270.289 354.39 270.289 354.63V358.5H269.215V354.63C269.215 354.142 269.117 353.778 268.921 353.538C268.725 353.298 268.439 353.178 268.063 353.178C267.799 353.178 267.555 353.25 267.331 353.394C267.107 353.534 266.901 353.726 266.713 353.97V358.5H265.639Z" fill="white"/>
<rect width="360" height="137" transform="translate(0 406)" fill="#121139"/>
<rect width="312" height="97" transform="translate(24 422)" fill="#121139"/>
</g>
<defs>
<linearGradient id="paint0_linear_51_6571" x1="121" y1="197" x2="121" y2="390" gradientUnits="userSpaceOnUse">
<stop stop-color="#9E59FF"/>
<stop offset="1" stop-color="#423EE0" stop-opacity="0.38"/>
</linearGradient>
<linearGradient id="paint1_linear_51_6571" x1="121" y1="197" x2="121" y2="390" gradientUnits="userSpaceOnUse">
<stop stop-color="#9E59FF"/>
<stop offset="1" stop-color="#423EE0" stop-opacity="0.38"/>
</linearGradient>
<linearGradient id="paint2_linear_51_6571" x1="121" y1="197" x2="121" y2="390" gradientUnits="userSpaceOnUse">
<stop stop-color="#9E59FF"/>
<stop offset="1" stop-color="#423EE0" stop-opacity="0.38"/>
</linearGradient>
<linearGradient id="paint3_linear_51_6571" x1="121" y1="197" x2="121" y2="390" gradientUnits="userSpaceOnUse">
<stop stop-color="#B8C0CC"/>
<stop offset="1" stop-color="#423EE0" stop-opacity="0.38"/>
</linearGradient>
<linearGradient id="paint4_linear_51_6571" x1="121" y1="197" x2="121" y2="390" gradientUnits="userSpaceOnUse">
<stop stop-color="#9E59FF"/>
<stop offset="1" stop-color="#423EE0" stop-opacity="0.38"/>
</linearGradient>
<clipPath id="clip0_51_6571">
<rect width="360" height="543" rx="16" fill="white"/>
</clipPath>
</defs>
</svg>
