<svg width="962" height="550" viewBox="0 0 962 550" fill="none" xmlns="http://www.w3.org/2000/svg">
<g clip-path="url(#clip0_2102_346)">
<rect width="961.359" height="214" fill="#121139"/>
<rect width="961.359" height="305" transform="translate(0 214)" fill="#121139"/>
<circle cx="29" cy="237" r="5" fill="#3A49F9"/>
<path d="M44.262 242H43.098V233.402H44.262V242ZM48.3995 242.096C47.9195 242.096 47.5495 241.962 47.2895 241.694C47.0335 241.426 46.9055 241.04 46.9055 240.536V236.816H46.1735C46.1095 236.816 46.0555 236.798 46.0115 236.762C45.9675 236.722 45.9455 236.662 45.9455 236.582V236.156L46.9415 236.03L47.1875 234.152C47.1995 234.092 47.2255 234.044 47.2655 234.008C47.3095 233.968 47.3655 233.948 47.4335 233.948H47.9735V236.042H49.7315V236.816H47.9735V240.464C47.9735 240.72 48.0355 240.91 48.1595 241.034C48.2835 241.158 48.4435 241.22 48.6395 241.22C48.7515 241.22 48.8475 241.206 48.9275 241.178C49.0115 241.146 49.0835 241.112 49.1435 241.076C49.2035 241.04 49.2535 241.008 49.2935 240.98C49.3375 240.948 49.3755 240.932 49.4075 240.932C49.4635 240.932 49.5135 240.966 49.5575 241.034L49.8695 241.544C49.6855 241.716 49.4635 241.852 49.2035 241.952C48.9435 242.048 48.6755 242.096 48.3995 242.096ZM55.3671 238.298C55.3671 238.05 55.3311 237.824 55.2591 237.62C55.1911 237.412 55.0891 237.234 54.9531 237.086C54.8211 236.934 54.6591 236.818 54.4671 236.738C54.2751 236.654 54.0571 236.612 53.8131 236.612C53.3011 236.612 52.8951 236.762 52.5951 237.062C52.2991 237.358 52.1151 237.77 52.0431 238.298H55.3671ZM56.2311 241.148C56.0991 241.308 55.9411 241.448 55.7571 241.568C55.5731 241.684 55.3751 241.78 55.1631 241.856C54.9551 241.932 54.7391 241.988 54.5151 242.024C54.2911 242.064 54.0691 242.084 53.8491 242.084C53.4291 242.084 53.0411 242.014 52.6851 241.874C52.3331 241.73 52.0271 241.522 51.7671 241.25C51.5111 240.974 51.3111 240.634 51.1671 240.23C51.0231 239.826 50.9511 239.362 50.9511 238.838C50.9511 238.414 51.0151 238.018 51.1431 237.65C51.2751 237.282 51.4631 236.964 51.7071 236.696C51.9511 236.424 52.2491 236.212 52.6011 236.06C52.9531 235.904 53.3491 235.826 53.7891 235.826C54.1531 235.826 54.4891 235.888 54.7971 236.012C55.1091 236.132 55.3771 236.308 55.6011 236.54C55.8291 236.768 56.0071 237.052 56.1351 237.392C56.2631 237.728 56.3271 238.112 56.3271 238.544C56.3271 238.712 56.3091 238.824 56.2731 238.88C56.2371 238.936 56.1691 238.964 56.0691 238.964H52.0071C52.0191 239.348 52.0711 239.682 52.1631 239.966C52.2591 240.25 52.3911 240.488 52.5591 240.68C52.7271 240.868 52.9271 241.01 53.1591 241.106C53.3911 241.198 53.6511 241.244 53.9391 241.244C54.2071 241.244 54.4371 241.214 54.6291 241.154C54.8251 241.09 54.9931 241.022 55.1331 240.95C55.2731 240.878 55.3891 240.812 55.4811 240.752C55.5771 240.688 55.6591 240.656 55.7271 240.656C55.8151 240.656 55.8831 240.69 55.9311 240.758L56.2311 241.148ZM58.139 242V235.922H58.781C58.933 235.922 59.027 235.996 59.063 236.144L59.141 236.768C59.365 236.492 59.617 236.266 59.897 236.09C60.177 235.914 60.501 235.826 60.869 235.826C61.277 235.826 61.607 235.94 61.859 236.168C62.115 236.396 62.299 236.704 62.411 237.092C62.499 236.872 62.611 236.682 62.747 236.522C62.887 236.362 63.043 236.23 63.215 236.126C63.387 236.022 63.569 235.946 63.761 235.898C63.957 235.85 64.155 235.826 64.355 235.826C64.675 235.826 64.959 235.878 65.207 235.982C65.459 236.082 65.671 236.23 65.843 236.426C66.019 236.622 66.153 236.864 66.245 237.152C66.337 237.436 66.383 237.762 66.383 238.13V242H65.309V238.13C65.309 237.654 65.205 237.294 64.997 237.05C64.789 236.802 64.489 236.678 64.097 236.678C63.921 236.678 63.753 236.71 63.593 236.774C63.437 236.834 63.299 236.924 63.179 237.044C63.059 237.164 62.963 237.316 62.891 237.5C62.823 237.68 62.789 237.89 62.789 238.13V242H61.715V238.13C61.715 237.642 61.617 237.278 61.421 237.038C61.225 236.798 60.939 236.678 60.563 236.678C60.299 236.678 60.055 236.75 59.831 236.894C59.607 237.034 59.401 237.226 59.213 237.47V242H58.139Z" fill="white"/>
<circle cx="89" cy="237" r="5" fill="#812DE2"/>
<path d="M104.262 242H103.098V233.402H104.262V242ZM108.4 242.096C107.92 242.096 107.55 241.962 107.29 241.694C107.034 241.426 106.906 241.04 106.906 240.536V236.816H106.174C106.11 236.816 106.056 236.798 106.012 236.762C105.968 236.722 105.946 236.662 105.946 236.582V236.156L106.942 236.03L107.188 234.152C107.2 234.092 107.226 234.044 107.266 234.008C107.31 233.968 107.366 233.948 107.434 233.948H107.974V236.042H109.732V236.816H107.974V240.464C107.974 240.72 108.036 240.91 108.16 241.034C108.284 241.158 108.444 241.22 108.64 241.22C108.752 241.22 108.848 241.206 108.928 241.178C109.012 241.146 109.084 241.112 109.144 241.076C109.204 241.04 109.254 241.008 109.294 240.98C109.338 240.948 109.376 240.932 109.408 240.932C109.464 240.932 109.514 240.966 109.558 241.034L109.87 241.544C109.686 241.716 109.464 241.852 109.204 241.952C108.944 242.048 108.676 242.096 108.4 242.096ZM115.367 238.298C115.367 238.05 115.331 237.824 115.259 237.62C115.191 237.412 115.089 237.234 114.953 237.086C114.821 236.934 114.659 236.818 114.467 236.738C114.275 236.654 114.057 236.612 113.813 236.612C113.301 236.612 112.895 236.762 112.595 237.062C112.299 237.358 112.115 237.77 112.043 238.298H115.367ZM116.231 241.148C116.099 241.308 115.941 241.448 115.757 241.568C115.573 241.684 115.375 241.78 115.163 241.856C114.955 241.932 114.739 241.988 114.515 242.024C114.291 242.064 114.069 242.084 113.849 242.084C113.429 242.084 113.041 242.014 112.685 241.874C112.333 241.73 112.027 241.522 111.767 241.25C111.511 240.974 111.311 240.634 111.167 240.23C111.023 239.826 110.951 239.362 110.951 238.838C110.951 238.414 111.015 238.018 111.143 237.65C111.275 237.282 111.463 236.964 111.707 236.696C111.951 236.424 112.249 236.212 112.601 236.06C112.953 235.904 113.349 235.826 113.789 235.826C114.153 235.826 114.489 235.888 114.797 236.012C115.109 236.132 115.377 236.308 115.601 236.54C115.829 236.768 116.007 237.052 116.135 237.392C116.263 237.728 116.327 238.112 116.327 238.544C116.327 238.712 116.309 238.824 116.273 238.88C116.237 238.936 116.169 238.964 116.069 238.964H112.007C112.019 239.348 112.071 239.682 112.163 239.966C112.259 240.25 112.391 240.488 112.559 240.68C112.727 240.868 112.927 241.01 113.159 241.106C113.391 241.198 113.651 241.244 113.939 241.244C114.207 241.244 114.437 241.214 114.629 241.154C114.825 241.09 114.993 241.022 115.133 240.95C115.273 240.878 115.389 240.812 115.481 240.752C115.577 240.688 115.659 240.656 115.727 240.656C115.815 240.656 115.883 240.69 115.931 240.758L116.231 241.148ZM118.139 242V235.922H118.781C118.933 235.922 119.027 235.996 119.063 236.144L119.141 236.768C119.365 236.492 119.617 236.266 119.897 236.09C120.177 235.914 120.501 235.826 120.869 235.826C121.277 235.826 121.607 235.94 121.859 236.168C122.115 236.396 122.299 236.704 122.411 237.092C122.499 236.872 122.611 236.682 122.747 236.522C122.887 236.362 123.043 236.23 123.215 236.126C123.387 236.022 123.569 235.946 123.761 235.898C123.957 235.85 124.155 235.826 124.355 235.826C124.675 235.826 124.959 235.878 125.207 235.982C125.459 236.082 125.671 236.23 125.843 236.426C126.019 236.622 126.153 236.864 126.245 237.152C126.337 237.436 126.383 237.762 126.383 238.13V242H125.309V238.13C125.309 237.654 125.205 237.294 124.997 237.05C124.789 236.802 124.489 236.678 124.097 236.678C123.921 236.678 123.753 236.71 123.593 236.774C123.437 236.834 123.299 236.924 123.179 237.044C123.059 237.164 122.963 237.316 122.891 237.5C122.823 237.68 122.789 237.89 122.789 238.13V242H121.715V238.13C121.715 237.642 121.617 237.278 121.421 237.038C121.225 236.798 120.939 236.678 120.563 236.678C120.299 236.678 120.055 236.75 119.831 236.894C119.607 237.034 119.401 237.226 119.213 237.47V242H118.139Z" fill="white"/>
<path d="M38.8935 271.739V280.467H37.8366V272.847H37.7855L35.6548 274.262V273.188L37.8366 271.739H38.8935ZM44.25 280.586C43.608 280.586 43.0611 280.411 42.6094 280.062C42.1577 279.709 41.8125 279.2 41.5739 278.532C41.3352 277.861 41.2159 277.052 41.2159 276.103C41.2159 275.16 41.3352 274.354 41.5739 273.687C41.8153 273.016 42.1619 272.505 42.6136 272.153C43.0682 271.798 43.6136 271.62 44.25 271.62C44.8864 271.62 45.4304 271.798 45.8821 272.153C46.3366 272.505 46.6832 273.016 46.9219 273.687C47.1634 274.354 47.2841 275.16 47.2841 276.103C47.2841 277.052 47.1648 277.861 46.9261 278.532C46.6875 279.2 46.3423 279.709 45.8906 280.062C45.4389 280.411 44.892 280.586 44.25 280.586ZM44.25 279.648C44.8864 279.648 45.3807 279.342 45.733 278.728C46.0852 278.114 46.2614 277.239 46.2614 276.103C46.2614 275.347 46.1804 274.704 46.0185 274.173C45.8594 273.641 45.6293 273.236 45.3281 272.958C45.0298 272.68 44.6705 272.54 44.25 272.54C43.6193 272.54 43.1264 272.851 42.7713 273.474C42.4162 274.093 42.2386 274.969 42.2386 276.103C42.2386 276.859 42.3182 277.501 42.4773 278.029C42.6364 278.557 42.8651 278.959 43.1634 279.235C43.4645 279.511 43.8267 279.648 44.25 279.648ZM51.75 280.586C51.108 280.586 50.5611 280.411 50.1094 280.062C49.6577 279.709 49.3125 279.2 49.0739 278.532C48.8352 277.861 48.7159 277.052 48.7159 276.103C48.7159 275.16 48.8352 274.354 49.0739 273.687C49.3153 273.016 49.6619 272.505 50.1136 272.153C50.5682 271.798 51.1136 271.62 51.75 271.62C52.3864 271.62 52.9304 271.798 53.3821 272.153C53.8366 272.505 54.1832 273.016 54.4219 273.687C54.6634 274.354 54.7841 275.16 54.7841 276.103C54.7841 277.052 54.6648 277.861 54.4261 278.532C54.1875 279.2 53.8423 279.709 53.3906 280.062C52.9389 280.411 52.392 280.586 51.75 280.586ZM51.75 279.648C52.3864 279.648 52.8807 279.342 53.233 278.728C53.5852 278.114 53.7614 277.239 53.7614 276.103C53.7614 275.347 53.6804 274.704 53.5185 274.173C53.3594 273.641 53.1293 273.236 52.8281 272.958C52.5298 272.68 52.1705 272.54 51.75 272.54C51.1193 272.54 50.6264 272.851 50.2713 273.474C49.9162 274.093 49.7386 274.969 49.7386 276.103C49.7386 276.859 49.8182 277.501 49.9773 278.029C50.1364 278.557 50.3651 278.959 50.6634 279.235C50.9645 279.511 51.3267 279.648 51.75 279.648ZM59.25 280.586C58.608 280.586 58.0611 280.411 57.6094 280.062C57.1577 279.709 56.8125 279.2 56.5739 278.532C56.3352 277.861 56.2159 277.052 56.2159 276.103C56.2159 275.16 56.3352 274.354 56.5739 273.687C56.8153 273.016 57.1619 272.505 57.6136 272.153C58.0682 271.798 58.6136 271.62 59.25 271.62C59.8864 271.62 60.4304 271.798 60.8821 272.153C61.3366 272.505 61.6832 273.016 61.9219 273.687C62.1634 274.354 62.2841 275.16 62.2841 276.103C62.2841 277.052 62.1648 277.861 61.9261 278.532C61.6875 279.2 61.3423 279.709 60.8906 280.062C60.4389 280.411 59.892 280.586 59.25 280.586ZM59.25 279.648C59.8864 279.648 60.3807 279.342 60.733 278.728C61.0852 278.114 61.2614 277.239 61.2614 276.103C61.2614 275.347 61.1804 274.704 61.0185 274.173C60.8594 273.641 60.6293 273.236 60.3281 272.958C60.0298 272.68 59.6705 272.54 59.25 272.54C58.6193 272.54 58.1264 272.851 57.7713 273.474C57.4162 274.093 57.2386 274.969 57.2386 276.103C57.2386 276.859 57.3182 277.501 57.4773 278.029C57.6364 278.557 57.8651 278.959 58.1634 279.235C58.4645 279.511 58.8267 279.648 59.25 279.648Z" fill="#B8C0CC"/>
<path d="M42.6371 312.4L46.5405 304.678V304.61H42.0405V303.673H47.6314V304.661L43.745 312.4H42.6371ZM51.8299 312.519C51.3299 312.519 50.8796 312.42 50.479 312.221C50.0785 312.022 49.7575 311.749 49.516 311.403C49.2745 311.056 49.1424 310.661 49.1197 310.218H50.1424C50.1822 310.613 50.3612 310.94 50.6793 311.198C51.0004 311.454 51.3839 311.582 51.8299 311.582C52.1879 311.582 52.506 311.498 52.7844 311.33C53.0657 311.163 53.2859 310.933 53.445 310.64C53.6069 310.345 53.6879 310.011 53.6879 309.639C53.6879 309.258 53.604 308.918 53.4364 308.62C53.2717 308.319 53.0444 308.082 52.7546 307.908C52.4648 307.735 52.1339 307.647 51.7617 307.644C51.4947 307.641 51.2205 307.683 50.9393 307.768C50.658 307.85 50.4265 307.957 50.2447 308.087L49.256 307.968L49.7844 303.673H54.3185V304.61H50.6708L50.364 307.184H50.4151C50.5941 307.042 50.8185 306.924 51.0884 306.83C51.3583 306.737 51.6396 306.69 51.9322 306.69C52.4663 306.69 52.9421 306.818 53.3597 307.073C53.7802 307.326 54.1097 307.673 54.3484 308.113C54.5898 308.553 54.7106 309.056 54.7106 309.621C54.7106 310.178 54.5856 310.675 54.3356 311.113C54.0884 311.548 53.7475 311.891 53.3129 312.144C52.8782 312.394 52.3839 312.519 51.8299 312.519ZM59.25 312.519C58.608 312.519 58.0611 312.345 57.6094 311.995C57.1577 311.643 56.8125 311.133 56.5739 310.465C56.3352 309.795 56.2159 308.985 56.2159 308.036C56.2159 307.093 56.3352 306.288 56.5739 305.62C56.8153 304.95 57.1619 304.438 57.6136 304.086C58.0682 303.731 58.6136 303.553 59.25 303.553C59.8864 303.553 60.4304 303.731 60.8821 304.086C61.3366 304.438 61.6832 304.95 61.9219 305.62C62.1634 306.288 62.2841 307.093 62.2841 308.036C62.2841 308.985 62.1648 309.795 61.9261 310.465C61.6875 311.133 61.3423 311.643 60.8906 311.995C60.4389 312.345 59.892 312.519 59.25 312.519ZM59.25 311.582C59.8864 311.582 60.3807 311.275 60.733 310.661C61.0852 310.048 61.2614 309.173 61.2614 308.036C61.2614 307.281 61.1804 306.637 61.0185 306.106C60.8594 305.575 60.6293 305.17 60.3281 304.891C60.0298 304.613 59.6705 304.474 59.25 304.474C58.6193 304.474 58.1264 304.785 57.7713 305.407C57.4162 306.026 57.2386 306.903 57.2386 308.036C57.2386 308.792 57.3182 309.434 57.4773 309.962C57.6364 310.491 57.8651 310.893 58.1634 311.168C58.4645 311.444 58.8267 311.582 59.25 311.582Z" fill="#B8C0CC"/>
<path d="M71 307.9H937.359" stroke="#9E59FF" stroke-opacity="0.29"/>
<path d="M44.3299 344.453C43.8299 344.453 43.3796 344.353 42.979 344.154C42.5785 343.955 42.2575 343.683 42.016 343.336C41.7745 342.99 41.6424 342.595 41.6197 342.151H42.6424C42.6822 342.546 42.8612 342.873 43.1793 343.132C43.5004 343.387 43.8839 343.515 44.3299 343.515C44.6879 343.515 45.006 343.431 45.2844 343.264C45.5657 343.096 45.7859 342.866 45.945 342.573C46.1069 342.278 46.1879 341.944 46.1879 341.572C46.1879 341.191 46.104 340.852 45.9364 340.553C45.7717 340.252 45.5444 340.015 45.2546 339.842C44.9648 339.668 44.6339 339.58 44.2617 339.578C43.9947 339.575 43.7205 339.616 43.4393 339.701C43.158 339.784 42.9265 339.89 42.7447 340.021L41.756 339.901L42.2844 335.606H46.8185V336.543H43.1708L42.864 339.117H42.9151C43.0941 338.975 43.3185 338.857 43.5884 338.764C43.8583 338.67 44.1396 338.623 44.4322 338.623C44.9663 338.623 45.4421 338.751 45.8597 339.007C46.2802 339.259 46.6097 339.606 46.8484 340.046C47.0898 340.487 47.2106 340.99 47.2106 341.555C47.2106 342.112 47.0856 342.609 46.8356 343.046C46.5884 343.481 46.2475 343.825 45.8129 344.078C45.3782 344.328 44.8839 344.453 44.3299 344.453ZM51.75 344.453C51.108 344.453 50.5611 344.278 50.1094 343.928C49.6577 343.576 49.3125 343.066 49.0739 342.399C48.8352 341.728 48.7159 340.918 48.7159 339.97C48.7159 339.026 48.8352 338.221 49.0739 337.553C49.3153 336.883 49.6619 336.372 50.1136 336.019C50.5682 335.664 51.1136 335.487 51.75 335.487C52.3864 335.487 52.9304 335.664 53.3821 336.019C53.8366 336.372 54.1832 336.883 54.4219 337.553C54.6634 338.221 54.7841 339.026 54.7841 339.97C54.7841 340.918 54.6648 341.728 54.4261 342.399C54.1875 343.066 53.8423 343.576 53.3906 343.928C52.9389 344.278 52.392 344.453 51.75 344.453ZM51.75 343.515C52.3864 343.515 52.8807 343.208 53.233 342.595C53.5852 341.981 53.7614 341.106 53.7614 339.97C53.7614 339.214 53.6804 338.57 53.5185 338.039C53.3594 337.508 53.1293 337.103 52.8281 336.825C52.5298 336.546 52.1705 336.407 51.75 336.407C51.1193 336.407 50.6264 336.718 50.2713 337.34C49.9162 337.96 49.7386 338.836 49.7386 339.97C49.7386 340.725 49.8182 341.367 49.9773 341.896C50.1364 342.424 50.3651 342.826 50.6634 343.102C50.9645 343.377 51.3267 343.515 51.75 343.515ZM59.25 344.453C58.608 344.453 58.0611 344.278 57.6094 343.928C57.1577 343.576 56.8125 343.066 56.5739 342.399C56.3352 341.728 56.2159 340.918 56.2159 339.97C56.2159 339.026 56.3352 338.221 56.5739 337.553C56.8153 336.883 57.1619 336.372 57.6136 336.019C58.0682 335.664 58.6136 335.487 59.25 335.487C59.8864 335.487 60.4304 335.664 60.8821 336.019C61.3366 336.372 61.6832 336.883 61.9219 337.553C62.1634 338.221 62.2841 339.026 62.2841 339.97C62.2841 340.918 62.1648 341.728 61.9261 342.399C61.6875 343.066 61.3423 343.576 60.8906 343.928C60.4389 344.278 59.892 344.453 59.25 344.453ZM59.25 343.515C59.8864 343.515 60.3807 343.208 60.733 342.595C61.0852 341.981 61.2614 341.106 61.2614 339.97C61.2614 339.214 61.1804 338.57 61.0185 338.039C60.8594 337.508 60.6293 337.103 60.3281 336.825C60.0298 336.546 59.6705 336.407 59.25 336.407C58.6193 336.407 58.1264 336.718 57.7713 337.34C57.4162 337.96 57.2386 338.836 57.2386 339.97C57.2386 340.725 57.3182 341.367 57.4773 341.896C57.6364 342.424 57.8651 342.826 58.1634 343.102C58.4645 343.377 58.8267 343.515 59.25 343.515Z" fill="#B8C0CC"/>
<path d="M71 339.833H937.359" stroke="#9E59FF" stroke-opacity="0.29"/>
<path d="M44.3299 376.386C43.8299 376.386 43.3796 376.286 42.979 376.088C42.5785 375.889 42.2575 375.616 42.016 375.269C41.7745 374.923 41.6424 374.528 41.6197 374.085H42.6424C42.6822 374.48 42.8612 374.806 43.1793 375.065C43.5004 375.321 43.8839 375.448 44.3299 375.448C44.6879 375.448 45.006 375.365 45.2844 375.197C45.5657 375.029 45.7859 374.799 45.945 374.507C46.1069 374.211 46.1879 373.877 46.1879 373.505C46.1879 373.125 46.104 372.785 45.9364 372.487C45.7717 372.186 45.5444 371.948 45.2546 371.775C44.9648 371.602 44.6339 371.514 44.2617 371.511C43.9947 371.508 43.7205 371.549 43.4393 371.634C43.158 371.717 42.9265 371.823 42.7447 371.954L41.756 371.835L42.2844 367.539H46.8185V368.477H43.1708L42.864 371.051H42.9151C43.0941 370.909 43.3185 370.791 43.5884 370.697C43.8583 370.603 44.1396 370.556 44.4322 370.556C44.9663 370.556 45.4421 370.684 45.8597 370.94C46.2802 371.193 46.6097 371.539 46.8484 371.98C47.0898 372.42 47.2106 372.923 47.2106 373.488C47.2106 374.045 47.0856 374.542 46.8356 374.98C46.5884 375.414 46.2475 375.758 45.8129 376.011C45.3782 376.261 44.8839 376.386 44.3299 376.386ZM51.75 376.386C51.108 376.386 50.5611 376.211 50.1094 375.862C49.6577 375.509 49.3125 375 49.0739 374.332C48.8352 373.661 48.7159 372.852 48.7159 371.903C48.7159 370.96 48.8352 370.154 49.0739 369.487C49.3153 368.816 49.6619 368.305 50.1136 367.953C50.5682 367.598 51.1136 367.42 51.75 367.42C52.3864 367.42 52.9304 367.598 53.3821 367.953C53.8366 368.305 54.1832 368.816 54.4219 369.487C54.6634 370.154 54.7841 370.96 54.7841 371.903C54.7841 372.852 54.6648 373.661 54.4261 374.332C54.1875 375 53.8423 375.509 53.3906 375.862C52.9389 376.211 52.392 376.386 51.75 376.386ZM51.75 375.448C52.3864 375.448 52.8807 375.142 53.233 374.528C53.5852 373.914 53.7614 373.039 53.7614 371.903C53.7614 371.147 53.6804 370.504 53.5185 369.973C53.3594 369.441 53.1293 369.036 52.8281 368.758C52.5298 368.48 52.1705 368.34 51.75 368.34C51.1193 368.34 50.6264 368.652 50.2713 369.274C49.9162 369.893 49.7386 370.769 49.7386 371.903C49.7386 372.659 49.8182 373.301 49.9773 373.829C50.1364 374.358 50.3651 374.759 50.6634 375.035C50.9645 375.311 51.3267 375.448 51.75 375.448ZM59.25 376.386C58.608 376.386 58.0611 376.211 57.6094 375.862C57.1577 375.509 56.8125 375 56.5739 374.332C56.3352 373.661 56.2159 372.852 56.2159 371.903C56.2159 370.96 56.3352 370.154 56.5739 369.487C56.8153 368.816 57.1619 368.305 57.6136 367.953C58.0682 367.598 58.6136 367.42 59.25 367.42C59.8864 367.42 60.4304 367.598 60.8821 367.953C61.3366 368.305 61.6832 368.816 61.9219 369.487C62.1634 370.154 62.2841 370.96 62.2841 371.903C62.2841 372.852 62.1648 373.661 61.9261 374.332C61.6875 375 61.3423 375.509 60.8906 375.862C60.4389 376.211 59.892 376.386 59.25 376.386ZM59.25 375.448C59.8864 375.448 60.3807 375.142 60.733 374.528C61.0852 373.914 61.2614 373.039 61.2614 371.903C61.2614 371.147 61.1804 370.504 61.0185 369.973C60.8594 369.441 60.6293 369.036 60.3281 368.758C60.0298 368.48 59.6705 368.34 59.25 368.34C58.6193 368.34 58.1264 368.652 57.7713 369.274C57.4162 369.893 57.2386 370.769 57.2386 371.903C57.2386 372.659 57.3182 373.301 57.4773 373.829C57.6364 374.358 57.8651 374.759 58.1634 375.035C58.4645 375.311 58.8267 375.448 59.25 375.448Z" fill="#B8C0CC"/>
<path d="M71 371.767H937.359" stroke="#9E59FF" stroke-opacity="0.29"/>
<path d="M44.3299 408.319C43.8299 408.319 43.3796 408.22 42.979 408.021C42.5785 407.822 42.2575 407.549 42.016 407.203C41.7745 406.856 41.6424 406.461 41.6197 406.018H42.6424C42.6822 406.413 42.8612 406.74 43.1793 406.998C43.5004 407.254 43.8839 407.382 44.3299 407.382C44.6879 407.382 45.006 407.298 45.2844 407.13C45.5657 406.963 45.7859 406.733 45.945 406.44C46.1069 406.145 46.1879 405.811 46.1879 405.439C46.1879 405.058 46.104 404.718 45.9364 404.42C45.7717 404.119 45.5444 403.882 45.2546 403.708C44.9648 403.535 44.6339 403.447 44.2617 403.444C43.9947 403.441 43.7205 403.483 43.4393 403.568C43.158 403.65 42.9265 403.757 42.7447 403.887L41.756 403.768L42.2844 399.473H46.8185V400.41H43.1708L42.864 402.984H42.9151C43.0941 402.842 43.3185 402.724 43.5884 402.63C43.8583 402.537 44.1396 402.49 44.4322 402.49C44.9663 402.49 45.4421 402.618 45.8597 402.873C46.2802 403.126 46.6097 403.473 46.8484 403.913C47.0898 404.353 47.2106 404.856 47.2106 405.422C47.2106 405.978 47.0856 406.476 46.8356 406.913C46.5884 407.348 46.2475 407.691 45.8129 407.944C45.3782 408.194 44.8839 408.319 44.3299 408.319ZM51.75 408.319C51.108 408.319 50.5611 408.145 50.1094 407.795C49.6577 407.443 49.3125 406.933 49.0739 406.265C48.8352 405.595 48.7159 404.785 48.7159 403.836C48.7159 402.893 48.8352 402.088 49.0739 401.42C49.3153 400.75 49.6619 400.238 50.1136 399.886C50.5682 399.531 51.1136 399.353 51.75 399.353C52.3864 399.353 52.9304 399.531 53.3821 399.886C53.8366 400.238 54.1832 400.75 54.4219 401.42C54.6634 402.088 54.7841 402.893 54.7841 403.836C54.7841 404.785 54.6648 405.595 54.4261 406.265C54.1875 406.933 53.8423 407.443 53.3906 407.795C52.9389 408.145 52.392 408.319 51.75 408.319ZM51.75 407.382C52.3864 407.382 52.8807 407.075 53.233 406.461C53.5852 405.848 53.7614 404.973 53.7614 403.836C53.7614 403.081 53.6804 402.437 53.5185 401.906C53.3594 401.375 53.1293 400.97 52.8281 400.691C52.5298 400.413 52.1705 400.274 51.75 400.274C51.1193 400.274 50.6264 400.585 50.2713 401.207C49.9162 401.826 49.7386 402.703 49.7386 403.836C49.7386 404.592 49.8182 405.234 49.9773 405.762C50.1364 406.291 50.3651 406.693 50.6634 406.968C50.9645 407.244 51.3267 407.382 51.75 407.382ZM59.25 408.319C58.608 408.319 58.0611 408.145 57.6094 407.795C57.1577 407.443 56.8125 406.933 56.5739 406.265C56.3352 405.595 56.2159 404.785 56.2159 403.836C56.2159 402.893 56.3352 402.088 56.5739 401.42C56.8153 400.75 57.1619 400.238 57.6136 399.886C58.0682 399.531 58.6136 399.353 59.25 399.353C59.8864 399.353 60.4304 399.531 60.8821 399.886C61.3366 400.238 61.6832 400.75 61.9219 401.42C62.1634 402.088 62.2841 402.893 62.2841 403.836C62.2841 404.785 62.1648 405.595 61.9261 406.265C61.6875 406.933 61.3423 407.443 60.8906 407.795C60.4389 408.145 59.892 408.319 59.25 408.319ZM59.25 407.382C59.8864 407.382 60.3807 407.075 60.733 406.461C61.0852 405.848 61.2614 404.973 61.2614 403.836C61.2614 403.081 61.1804 402.437 61.0185 401.906C60.8594 401.375 60.6293 400.97 60.3281 400.691C60.0298 400.413 59.6705 400.274 59.25 400.274C58.6193 400.274 58.1264 400.585 57.7713 401.207C57.4162 401.826 57.2386 402.703 57.2386 403.836C57.2386 404.592 57.3182 405.234 57.4773 405.762C57.6364 406.291 57.8651 406.693 58.1634 406.968C58.4645 407.244 58.8267 407.382 59.25 407.382Z" fill="#B8C0CC"/>
<path d="M71 403.7H937.359" stroke="#9E59FF" stroke-opacity="0.29"/>
<path d="M41.837 440.133V439.366L44.7177 436.213C45.0558 435.844 45.3342 435.523 45.5529 435.25C45.7717 434.974 45.9336 434.716 46.0387 434.474C46.1467 434.23 46.2006 433.974 46.2006 433.707C46.2006 433.4 46.1268 433.135 45.979 432.91C45.8342 432.686 45.6353 432.513 45.3825 432.39C45.1296 432.268 44.8455 432.207 44.5302 432.207C44.195 432.207 43.9023 432.277 43.6523 432.416C43.4052 432.552 43.2134 432.744 43.0771 432.991C42.9435 433.238 42.8768 433.528 42.8768 433.861H41.8711C41.8711 433.349 41.989 432.9 42.2248 432.514C42.4606 432.128 42.7816 431.826 43.1879 431.611C43.5969 431.395 44.0558 431.287 44.5643 431.287C45.0756 431.287 45.5288 431.395 45.9237 431.611C46.3185 431.826 46.6282 432.118 46.8526 432.484C47.0771 432.851 47.1893 433.258 47.1893 433.707C47.1893 434.028 47.131 434.342 47.0146 434.649C46.9009 434.953 46.7021 435.292 46.418 435.667C46.1367 436.04 45.7461 436.494 45.2461 437.031L43.2859 439.128V439.196H47.3427V440.133H41.837ZM51.8299 440.253C51.3299 440.253 50.8796 440.153 50.479 439.954C50.0785 439.755 49.7575 439.483 49.516 439.136C49.2745 438.79 49.1424 438.395 49.1197 437.951H50.1424C50.1822 438.346 50.3612 438.673 50.6793 438.932C51.0004 439.187 51.3839 439.315 51.8299 439.315C52.1879 439.315 52.506 439.231 52.7844 439.064C53.0657 438.896 53.2859 438.666 53.445 438.373C53.6069 438.078 53.6879 437.744 53.6879 437.372C53.6879 436.991 53.604 436.652 53.4364 436.353C53.2717 436.052 53.0444 435.815 52.7546 435.642C52.4648 435.469 52.1339 435.38 51.7617 435.378C51.4947 435.375 51.2205 435.416 50.9393 435.501C50.658 435.584 50.4265 435.69 50.2447 435.821L49.256 435.701L49.7844 431.406H54.3185V432.344H50.6708L50.364 434.917H50.4151C50.5941 434.775 50.8185 434.657 51.0884 434.564C51.3583 434.47 51.6396 434.423 51.9322 434.423C52.4663 434.423 52.9421 434.551 53.3597 434.807C53.7802 435.059 54.1097 435.406 54.3484 435.846C54.5898 436.287 54.7106 436.79 54.7106 437.355C54.7106 437.912 54.5856 438.409 54.3356 438.846C54.0884 439.281 53.7475 439.625 53.3129 439.878C52.8782 440.128 52.3839 440.253 51.8299 440.253ZM59.25 440.253C58.608 440.253 58.0611 440.078 57.6094 439.728C57.1577 439.376 56.8125 438.866 56.5739 438.199C56.3352 437.528 56.2159 436.719 56.2159 435.77C56.2159 434.826 56.3352 434.021 56.5739 433.353C56.8153 432.683 57.1619 432.172 57.6136 431.819C58.0682 431.464 58.6136 431.287 59.25 431.287C59.8864 431.287 60.4304 431.464 60.8821 431.819C61.3366 432.172 61.6832 432.683 61.9219 433.353C62.1634 434.021 62.2841 434.826 62.2841 435.77C62.2841 436.719 62.1648 437.528 61.9261 438.199C61.6875 438.866 61.3423 439.376 60.8906 439.728C60.4389 440.078 59.892 440.253 59.25 440.253ZM59.25 439.315C59.8864 439.315 60.3807 439.008 60.733 438.395C61.0852 437.781 61.2614 436.906 61.2614 435.77C61.2614 435.014 61.1804 434.371 61.0185 433.839C60.8594 433.308 60.6293 432.903 60.3281 432.625C60.0298 432.346 59.6705 432.207 59.25 432.207C58.6193 432.207 58.1264 432.518 57.7713 433.14C57.4162 433.76 57.2386 434.636 57.2386 435.77C57.2386 436.525 57.3182 437.167 57.4773 437.696C57.6364 438.224 57.8651 438.626 58.1634 438.902C58.4645 439.177 58.8267 439.315 59.25 439.315Z" fill="#B8C0CC"/>
<path d="M71 435.633H937.359" stroke="#9E59FF" stroke-opacity="0.29"/>
<path d="M59.25 473.919C58.608 473.919 58.0611 473.745 57.6094 473.395C57.1577 473.043 56.8125 472.533 56.5739 471.865C56.3352 471.195 56.2159 470.385 56.2159 469.436C56.2159 468.493 56.3352 467.688 56.5739 467.02C56.8153 466.35 57.1619 465.838 57.6136 465.486C58.0682 465.131 58.6136 464.953 59.25 464.953C59.8864 464.953 60.4304 465.131 60.8821 465.486C61.3366 465.838 61.6832 466.35 61.9219 467.02C62.1634 467.688 62.2841 468.493 62.2841 469.436C62.2841 470.385 62.1648 471.195 61.9261 471.865C61.6875 472.533 61.3423 473.043 60.8906 473.395C60.4389 473.745 59.892 473.919 59.25 473.919ZM59.25 472.982C59.8864 472.982 60.3807 472.675 60.733 472.061C61.0852 471.448 61.2614 470.573 61.2614 469.436C61.2614 468.681 61.1804 468.037 61.0185 467.506C60.8594 466.975 60.6293 466.57 60.3281 466.292C60.0298 466.013 59.6705 465.874 59.25 465.874C58.6193 465.874 58.1264 466.185 57.7713 466.807C57.4162 467.426 57.2386 468.303 57.2386 469.436C57.2386 470.192 57.3182 470.834 57.4773 471.363C57.6364 471.891 57.8651 472.293 58.1634 472.569C58.4645 472.844 58.8267 472.982 59.25 472.982Z" fill="#B8C0CC"/>
<rect x="71.5" y="275.5" width="865" height="195" stroke="#9E59FF" stroke-opacity="0.29"/>
<path d="M74.75 486.119C74.108 486.119 73.5611 485.945 73.1094 485.595C72.6577 485.243 72.3125 484.733 72.0739 484.065C71.8352 483.395 71.7159 482.585 71.7159 481.636C71.7159 480.693 71.8352 479.888 72.0739 479.22C72.3153 478.55 72.6619 478.038 73.1136 477.686C73.5682 477.331 74.1136 477.153 74.75 477.153C75.3864 477.153 75.9304 477.331 76.3821 477.686C76.8366 478.038 77.1832 478.55 77.4219 479.22C77.6634 479.888 77.7841 480.693 77.7841 481.636C77.7841 482.585 77.6648 483.395 77.4261 484.065C77.1875 484.733 76.8423 485.243 76.3906 485.595C75.9389 485.945 75.392 486.119 74.75 486.119ZM74.75 485.182C75.3864 485.182 75.8807 484.875 76.233 484.261C76.5852 483.648 76.7614 482.773 76.7614 481.636C76.7614 480.881 76.6804 480.237 76.5185 479.706C76.3594 479.175 76.1293 478.77 75.8281 478.491C75.5298 478.213 75.1705 478.074 74.75 478.074C74.1193 478.074 73.6264 478.385 73.2713 479.007C72.9162 479.626 72.7386 480.503 72.7386 481.636C72.7386 482.392 72.8182 483.034 72.9773 483.562C73.1364 484.091 73.3651 484.493 73.6634 484.768C73.9645 485.044 74.3267 485.182 74.75 485.182Z" fill="#B8C0CC"/>
<line x1="214.833" y1="471" x2="214.834" y2="275" stroke="#9E59FF" stroke-opacity="0.29"/>
<path d="M219.305 477.273V486H218.248V478.381H218.197L216.066 479.795V478.722L218.248 477.273H219.305ZM224.662 486.119C224.02 486.119 223.473 485.945 223.021 485.595C222.569 485.243 222.224 484.733 221.985 484.065C221.747 483.395 221.628 482.585 221.628 481.636C221.628 480.693 221.747 479.888 221.985 479.22C222.227 478.55 222.574 478.038 223.025 477.686C223.48 477.331 224.025 477.153 224.662 477.153C225.298 477.153 225.842 477.331 226.294 477.686C226.748 478.038 227.095 478.55 227.333 479.22C227.575 479.888 227.696 480.693 227.696 481.636C227.696 482.585 227.576 483.395 227.338 484.065C227.099 484.733 226.754 485.243 226.302 485.595C225.851 485.945 225.304 486.119 224.662 486.119ZM224.662 485.182C225.298 485.182 225.792 484.875 226.145 484.261C226.497 483.648 226.673 482.773 226.673 481.636C226.673 480.881 226.592 480.237 226.43 479.706C226.271 479.175 226.041 478.77 225.74 478.491C225.441 478.213 225.082 478.074 224.662 478.074C224.031 478.074 223.538 478.385 223.183 479.007C222.828 479.626 222.65 480.503 222.65 481.636C222.65 482.392 222.73 483.034 222.889 483.562C223.048 484.091 223.277 484.493 223.575 484.768C223.876 485.044 224.238 485.182 224.662 485.182ZM232.162 486.119C231.52 486.119 230.973 485.945 230.521 485.595C230.069 485.243 229.724 484.733 229.485 484.065C229.247 483.395 229.128 482.585 229.128 481.636C229.128 480.693 229.247 479.888 229.485 479.22C229.727 478.55 230.074 478.038 230.525 477.686C230.98 477.331 231.525 477.153 232.162 477.153C232.798 477.153 233.342 477.331 233.794 477.686C234.248 478.038 234.595 478.55 234.833 479.22C235.075 479.888 235.196 480.693 235.196 481.636C235.196 482.585 235.076 483.395 234.838 484.065C234.599 484.733 234.254 485.243 233.802 485.595C233.351 485.945 232.804 486.119 232.162 486.119ZM232.162 485.182C232.798 485.182 233.292 484.875 233.645 484.261C233.997 483.648 234.173 482.773 234.173 481.636C234.173 480.881 234.092 480.237 233.93 479.706C233.771 479.175 233.541 478.77 233.24 478.491C232.941 478.213 232.582 478.074 232.162 478.074C231.531 478.074 231.038 478.385 230.683 479.007C230.328 479.626 230.15 480.503 230.15 481.636C230.15 482.392 230.23 483.034 230.389 483.562C230.548 484.091 230.777 484.493 231.075 484.768C231.376 485.044 231.738 485.182 232.162 485.182Z" fill="#B8C0CC"/>
<line x1="359.167" y1="471" x2="359.167" y2="275" stroke="#9E59FF" stroke-opacity="0.29"/>
<path d="M363.468 486.119C363.11 486.114 362.752 486.045 362.394 485.915C362.036 485.784 361.709 485.564 361.414 485.254C361.118 484.942 360.881 484.52 360.702 483.989C360.523 483.455 360.434 482.784 360.434 481.977C360.434 481.205 360.506 480.52 360.651 479.923C360.796 479.324 361.006 478.82 361.282 478.411C361.557 477.999 361.89 477.686 362.279 477.473C362.671 477.26 363.113 477.153 363.604 477.153C364.093 477.153 364.527 477.251 364.908 477.447C365.292 477.641 365.604 477.911 365.845 478.257C366.087 478.604 366.243 479.003 366.314 479.455H365.274C365.178 479.062 364.99 478.737 364.712 478.479C364.434 478.22 364.064 478.091 363.604 478.091C362.928 478.091 362.395 478.385 362.006 478.973C361.62 479.561 361.425 480.386 361.422 481.449H361.49C361.649 481.207 361.838 481.001 362.057 480.831C362.279 480.658 362.523 480.524 362.79 480.43C363.057 480.337 363.34 480.29 363.638 480.29C364.138 480.29 364.595 480.415 365.01 480.665C365.425 480.912 365.757 481.254 366.007 481.692C366.257 482.126 366.382 482.625 366.382 483.188C366.382 483.727 366.262 484.222 366.02 484.67C365.779 485.116 365.439 485.472 365.002 485.736C364.567 485.997 364.056 486.125 363.468 486.119ZM363.468 485.182C363.826 485.182 364.147 485.092 364.431 484.913C364.718 484.734 364.943 484.494 365.108 484.193C365.276 483.892 365.36 483.557 365.36 483.188C365.36 482.827 365.279 482.499 365.117 482.203C364.958 481.905 364.738 481.668 364.456 481.491C364.178 481.315 363.86 481.227 363.502 481.227C363.232 481.227 362.98 481.281 362.747 481.389C362.515 481.494 362.31 481.639 362.134 481.824C361.961 482.009 361.824 482.22 361.725 482.459C361.625 482.695 361.576 482.943 361.576 483.205C361.576 483.551 361.657 483.875 361.818 484.176C361.983 484.477 362.208 484.72 362.492 484.905C362.779 485.089 363.104 485.182 363.468 485.182ZM370.905 486.119C370.263 486.119 369.716 485.945 369.264 485.595C368.812 485.243 368.467 484.733 368.229 484.065C367.99 483.395 367.871 482.585 367.871 481.636C367.871 480.693 367.99 479.888 368.229 479.22C368.47 478.55 368.817 478.038 369.268 477.686C369.723 477.331 370.268 477.153 370.905 477.153C371.541 477.153 372.085 477.331 372.537 477.686C372.991 478.038 373.338 478.55 373.577 479.22C373.818 479.888 373.939 480.693 373.939 481.636C373.939 482.585 373.82 483.395 373.581 484.065C373.342 484.733 372.997 485.243 372.545 485.595C372.094 485.945 371.547 486.119 370.905 486.119ZM370.905 485.182C371.541 485.182 372.035 484.875 372.388 484.261C372.74 483.648 372.916 482.773 372.916 481.636C372.916 480.881 372.835 480.237 372.673 479.706C372.514 479.175 372.284 478.77 371.983 478.491C371.685 478.213 371.325 478.074 370.905 478.074C370.274 478.074 369.781 478.385 369.426 479.007C369.071 479.626 368.893 480.503 368.893 481.636C368.893 482.392 368.973 483.034 369.132 483.562C369.291 484.091 369.52 484.493 369.818 484.768C370.119 485.044 370.481 485.182 370.905 485.182ZM378.405 486.119C377.763 486.119 377.216 485.945 376.764 485.595C376.312 485.243 375.967 484.733 375.729 484.065C375.49 483.395 375.371 482.585 375.371 481.636C375.371 480.693 375.49 479.888 375.729 479.22C375.97 478.55 376.317 478.038 376.768 477.686C377.223 477.331 377.768 477.153 378.405 477.153C379.041 477.153 379.585 477.331 380.037 477.686C380.491 478.038 380.838 478.55 381.077 479.22C381.318 479.888 381.439 480.693 381.439 481.636C381.439 482.585 381.32 483.395 381.081 484.065C380.842 484.733 380.497 485.243 380.045 485.595C379.594 485.945 379.047 486.119 378.405 486.119ZM378.405 485.182C379.041 485.182 379.535 484.875 379.888 484.261C380.24 483.648 380.416 482.773 380.416 481.636C380.416 480.881 380.335 480.237 380.173 479.706C380.014 479.175 379.784 478.77 379.483 478.491C379.185 478.213 378.825 478.074 378.405 478.074C377.774 478.074 377.281 478.385 376.926 479.007C376.571 479.626 376.393 480.503 376.393 481.636C376.393 482.392 376.473 483.034 376.632 483.562C376.791 484.091 377.02 484.493 377.318 484.768C377.619 485.044 377.981 485.182 378.405 485.182Z" fill="#B8C0CC"/>
<line x1="503.5" y1="471" x2="503.5" y2="275" stroke="#9E59FF" stroke-opacity="0.29"/>
<path d="M505.176 486L509.08 478.278V478.21H504.58V477.273H510.17V478.261L506.284 486H505.176ZM514.418 486.119C513.776 486.119 513.229 485.945 512.777 485.595C512.326 485.243 511.98 484.733 511.742 484.065C511.503 483.395 511.384 482.585 511.384 481.636C511.384 480.693 511.503 479.888 511.742 479.22C511.983 478.55 512.33 478.038 512.782 477.686C513.236 477.331 513.782 477.153 514.418 477.153C515.054 477.153 515.598 477.331 516.05 477.686C516.505 478.038 516.851 478.55 517.09 479.22C517.331 479.888 517.452 480.693 517.452 481.636C517.452 482.585 517.333 483.395 517.094 484.065C516.855 484.733 516.51 485.243 516.059 485.595C515.607 485.945 515.06 486.119 514.418 486.119ZM514.418 485.182C515.054 485.182 515.549 484.875 515.901 484.261C516.253 483.648 516.429 482.773 516.429 481.636C516.429 480.881 516.348 480.237 516.186 479.706C516.027 479.175 515.797 478.77 515.496 478.491C515.198 478.213 514.838 478.074 514.418 478.074C513.787 478.074 513.294 478.385 512.939 479.007C512.584 479.626 512.407 480.503 512.407 481.636C512.407 482.392 512.486 483.034 512.645 483.562C512.804 484.091 513.033 484.493 513.331 484.768C513.632 485.044 513.995 485.182 514.418 485.182ZM521.918 486.119C521.276 486.119 520.729 485.945 520.277 485.595C519.826 485.243 519.48 484.733 519.242 484.065C519.003 483.395 518.884 482.585 518.884 481.636C518.884 480.693 519.003 479.888 519.242 479.22C519.483 478.55 519.83 478.038 520.282 477.686C520.736 477.331 521.282 477.153 521.918 477.153C522.554 477.153 523.098 477.331 523.55 477.686C524.005 478.038 524.351 478.55 524.59 479.22C524.831 479.888 524.952 480.693 524.952 481.636C524.952 482.585 524.833 483.395 524.594 484.065C524.355 484.733 524.01 485.243 523.559 485.595C523.107 485.945 522.56 486.119 521.918 486.119ZM521.918 485.182C522.554 485.182 523.049 484.875 523.401 484.261C523.753 483.648 523.929 482.773 523.929 481.636C523.929 480.881 523.848 480.237 523.686 479.706C523.527 479.175 523.297 478.77 522.996 478.491C522.698 478.213 522.338 478.074 521.918 478.074C521.287 478.074 520.794 478.385 520.439 479.007C520.084 479.626 519.907 480.503 519.907 481.636C519.907 482.392 519.986 483.034 520.145 483.562C520.304 484.091 520.533 484.493 520.831 484.768C521.132 485.044 521.495 485.182 521.918 485.182Z" fill="#B8C0CC"/>
<line x1="647.833" y1="471" x2="647.833" y2="275" stroke="#9E59FF" stroke-opacity="0.29"/>
<path d="M652.032 486.119C651.447 486.119 650.93 486.016 650.481 485.808C650.035 485.598 649.687 485.31 649.437 484.943C649.187 484.574 649.064 484.153 649.066 483.682C649.064 483.312 649.136 482.972 649.284 482.659C649.432 482.344 649.633 482.081 649.889 481.871C650.147 481.658 650.436 481.523 650.754 481.466V481.415C650.336 481.307 650.004 481.072 649.757 480.712C649.51 480.348 649.387 479.935 649.39 479.472C649.387 479.028 649.5 478.632 649.727 478.283C649.954 477.933 650.267 477.658 650.664 477.456C651.065 477.254 651.521 477.153 652.032 477.153C652.538 477.153 652.99 477.254 653.387 477.456C653.785 477.658 654.098 477.933 654.325 478.283C654.555 478.632 654.672 479.028 654.674 479.472C654.672 479.935 654.545 480.348 654.295 480.712C654.048 481.072 653.72 481.307 653.311 481.415V481.466C653.626 481.523 653.91 481.658 654.163 481.871C654.416 482.081 654.618 482.344 654.768 482.659C654.919 482.972 654.995 483.312 654.998 483.682C654.995 484.153 654.868 484.574 654.615 484.943C654.365 485.31 654.017 485.598 653.571 485.808C653.128 486.016 652.615 486.119 652.032 486.119ZM652.032 485.182C652.427 485.182 652.768 485.118 653.055 484.99C653.342 484.862 653.564 484.682 653.72 484.449C653.876 484.216 653.956 483.943 653.958 483.631C653.956 483.301 653.87 483.01 653.703 482.757C653.535 482.504 653.307 482.305 653.017 482.161C652.73 482.016 652.402 481.943 652.032 481.943C651.66 481.943 651.328 482.016 651.035 482.161C650.745 482.305 650.517 482.504 650.349 482.757C650.184 483.01 650.103 483.301 650.106 483.631C650.103 483.943 650.179 484.216 650.332 484.449C650.488 484.682 650.711 484.862 651.001 484.99C651.291 485.118 651.635 485.182 652.032 485.182ZM652.032 481.04C652.345 481.04 652.622 480.977 652.863 480.852C653.108 480.727 653.299 480.553 653.439 480.328C653.578 480.104 653.649 479.841 653.652 479.54C653.649 479.244 653.579 478.987 653.443 478.768C653.307 478.547 653.118 478.376 652.876 478.257C652.635 478.135 652.353 478.074 652.032 478.074C651.706 478.074 651.42 478.135 651.176 478.257C650.932 478.376 650.743 478.547 650.609 478.768C650.476 478.987 650.41 479.244 650.413 479.54C650.41 479.841 650.477 480.104 650.613 480.328C650.753 480.553 650.944 480.727 651.189 480.852C651.433 480.977 651.714 481.04 652.032 481.04ZM659.478 486.119C658.836 486.119 658.289 485.945 657.837 485.595C657.386 485.243 657.041 484.733 656.802 484.065C656.563 483.395 656.444 482.585 656.444 481.636C656.444 480.693 656.563 479.888 656.802 479.22C657.043 478.55 657.39 478.038 657.842 477.686C658.296 477.331 658.842 477.153 659.478 477.153C660.114 477.153 660.658 477.331 661.11 477.686C661.565 478.038 661.911 478.55 662.15 479.22C662.391 479.888 662.512 480.693 662.512 481.636C662.512 482.585 662.393 483.395 662.154 484.065C661.916 484.733 661.57 485.243 661.119 485.595C660.667 485.945 660.12 486.119 659.478 486.119ZM659.478 485.182C660.114 485.182 660.609 484.875 660.961 484.261C661.313 483.648 661.489 482.773 661.489 481.636C661.489 480.881 661.408 480.237 661.246 479.706C661.087 479.175 660.857 478.77 660.556 478.491C660.258 478.213 659.898 478.074 659.478 478.074C658.847 478.074 658.354 478.385 657.999 479.007C657.644 479.626 657.467 480.503 657.467 481.636C657.467 482.392 657.546 483.034 657.705 483.562C657.864 484.091 658.093 484.493 658.391 484.768C658.693 485.044 659.055 485.182 659.478 485.182ZM666.978 486.119C666.336 486.119 665.789 485.945 665.337 485.595C664.886 485.243 664.541 484.733 664.302 484.065C664.063 483.395 663.944 482.585 663.944 481.636C663.944 480.693 664.063 479.888 664.302 479.22C664.543 478.55 664.89 478.038 665.342 477.686C665.796 477.331 666.342 477.153 666.978 477.153C667.614 477.153 668.158 477.331 668.61 477.686C669.065 478.038 669.411 478.55 669.65 479.22C669.891 479.888 670.012 480.693 670.012 481.636C670.012 482.585 669.893 483.395 669.654 484.065C669.416 484.733 669.07 485.243 668.619 485.595C668.167 485.945 667.62 486.119 666.978 486.119ZM666.978 485.182C667.614 485.182 668.109 484.875 668.461 484.261C668.813 483.648 668.989 482.773 668.989 481.636C668.989 480.881 668.908 480.237 668.746 479.706C668.587 479.175 668.357 478.77 668.056 478.491C667.758 478.213 667.398 478.074 666.978 478.074C666.347 478.074 665.854 478.385 665.499 479.007C665.144 479.626 664.967 480.503 664.967 481.636C664.967 482.392 665.046 483.034 665.205 483.562C665.364 484.091 665.593 484.493 665.891 484.768C666.193 485.044 666.555 485.182 666.978 485.182Z" fill="#B8C0CC"/>
<line x1="792.167" y1="471" x2="792.167" y2="275" stroke="#9E59FF" stroke-opacity="0.29"/>
<path d="M796.348 477.153C796.706 477.156 797.064 477.224 797.422 477.358C797.78 477.491 798.107 477.713 798.402 478.023C798.698 478.33 798.935 478.749 799.114 479.28C799.293 479.811 799.382 480.477 799.382 481.278C799.382 482.054 799.309 482.743 799.161 483.345C799.016 483.945 798.806 484.45 798.53 484.862C798.257 485.274 797.925 485.587 797.533 485.8C797.144 486.013 796.703 486.119 796.212 486.119C795.723 486.119 795.287 486.023 794.904 485.83C794.523 485.634 794.211 485.362 793.966 485.016C793.725 484.666 793.57 484.261 793.502 483.801H794.542C794.635 484.202 794.821 484.533 795.1 484.794C795.381 485.053 795.752 485.182 796.212 485.182C796.885 485.182 797.417 484.888 797.806 484.3C798.198 483.712 798.394 482.881 798.394 481.807H798.326C798.167 482.045 797.978 482.251 797.759 482.425C797.54 482.598 797.297 482.732 797.03 482.825C796.763 482.919 796.479 482.966 796.178 482.966C795.678 482.966 795.219 482.842 794.801 482.595C794.387 482.345 794.054 482.003 793.804 481.568C793.557 481.131 793.434 480.631 793.434 480.068C793.434 479.534 793.553 479.045 793.792 478.602C794.033 478.156 794.371 477.801 794.806 477.537C795.243 477.273 795.757 477.145 796.348 477.153ZM796.348 478.091C795.99 478.091 795.668 478.18 795.381 478.359C795.097 478.536 794.871 478.774 794.703 479.075C794.539 479.374 794.456 479.705 794.456 480.068C794.456 480.432 794.536 480.763 794.695 481.061C794.857 481.357 795.077 481.592 795.355 481.768C795.637 481.942 795.956 482.028 796.314 482.028C796.584 482.028 796.836 481.976 797.068 481.871C797.301 481.763 797.505 481.616 797.678 481.432C797.854 481.244 797.992 481.033 798.091 480.797C798.191 480.558 798.24 480.31 798.24 480.051C798.24 479.71 798.158 479.391 797.993 479.092C797.831 478.794 797.607 478.553 797.32 478.368C797.036 478.183 796.712 478.091 796.348 478.091ZM803.905 486.119C803.263 486.119 802.716 485.945 802.264 485.595C801.812 485.243 801.467 484.733 801.229 484.065C800.99 483.395 800.871 482.585 800.871 481.636C800.871 480.693 800.99 479.888 801.229 479.22C801.47 478.55 801.817 478.038 802.268 477.686C802.723 477.331 803.268 477.153 803.905 477.153C804.541 477.153 805.085 477.331 805.537 477.686C805.991 478.038 806.338 478.55 806.577 479.22C806.818 479.888 806.939 480.693 806.939 481.636C806.939 482.585 806.82 483.395 806.581 484.065C806.342 484.733 805.997 485.243 805.545 485.595C805.094 485.945 804.547 486.119 803.905 486.119ZM803.905 485.182C804.541 485.182 805.035 484.875 805.388 484.261C805.74 483.648 805.916 482.773 805.916 481.636C805.916 480.881 805.835 480.237 805.673 479.706C805.514 479.175 805.284 478.77 804.983 478.491C804.685 478.213 804.325 478.074 803.905 478.074C803.274 478.074 802.781 478.385 802.426 479.007C802.071 479.626 801.893 480.503 801.893 481.636C801.893 482.392 801.973 483.034 802.132 483.562C802.291 484.091 802.52 484.493 802.818 484.768C803.119 485.044 803.481 485.182 803.905 485.182ZM811.405 486.119C810.763 486.119 810.216 485.945 809.764 485.595C809.312 485.243 808.967 484.733 808.729 484.065C808.49 483.395 808.371 482.585 808.371 481.636C808.371 480.693 808.49 479.888 808.729 479.22C808.97 478.55 809.317 478.038 809.768 477.686C810.223 477.331 810.768 477.153 811.405 477.153C812.041 477.153 812.585 477.331 813.037 477.686C813.491 478.038 813.838 478.55 814.077 479.22C814.318 479.888 814.439 480.693 814.439 481.636C814.439 482.585 814.32 483.395 814.081 484.065C813.842 484.733 813.497 485.243 813.045 485.595C812.594 485.945 812.047 486.119 811.405 486.119ZM811.405 485.182C812.041 485.182 812.535 484.875 812.888 484.261C813.24 483.648 813.416 482.773 813.416 481.636C813.416 480.881 813.335 480.237 813.173 479.706C813.014 479.175 812.784 478.77 812.483 478.491C812.185 478.213 811.825 478.074 811.405 478.074C810.774 478.074 810.281 478.385 809.926 479.007C809.571 479.626 809.393 480.503 809.393 481.636C809.393 482.392 809.473 483.034 809.632 483.562C809.791 484.091 810.02 484.493 810.318 484.768C810.619 485.044 810.981 485.182 811.405 485.182Z" fill="#B8C0CC"/>
<path d="M77.0139 441.981L71 441.61V471H937V294.323L930.986 307.35C924.972 320.378 912.944 346.433 900.917 343.18C888.889 339.926 876.861 307.364 864.833 296.079C852.806 284.794 840.778 294.787 828.75 302.202C816.722 309.617 804.694 314.453 792.667 335.51C780.639 356.567 768.611 393.845 756.583 415.931C744.556 438.018 732.528 444.913 720.5 440.521C708.472 436.129 696.444 420.45 684.417 407.768C672.389 395.087 660.361 385.402 648.333 384.162C636.306 382.923 624.278 390.127 612.25 386.084C600.222 382.04 588.194 366.747 576.167 376.48C564.139 386.212 552.111 420.969 540.083 412.253C528.056 403.536 516.028 351.346 504 347.331C491.972 343.316 479.944 387.475 467.917 388.132C455.889 388.79 443.861 345.945 431.833 339.877C419.806 333.809 407.778 364.518 395.75 366.505C383.722 368.492 371.694 341.758 359.667 359.042C347.639 376.325 335.611 437.626 323.583 452.587C311.556 467.549 299.528 436.17 287.5 429.854C275.472 423.537 263.444 442.282 251.417 431.635C239.389 420.987 227.361 380.948 215.333 382.745C203.306 384.543 191.278 428.177 179.25 442.21C167.222 456.242 155.194 440.672 143.167 436.01C131.139 431.347 119.111 437.592 107.083 440.343C95.0556 443.094 83.0278 442.352 77.0139 441.981Z" fill="url(#paint0_linear_2102_346)"/>
<path d="M71 441.164L77.0139 441.533C83.0278 441.903 95.0556 442.643 107.083 439.9C119.111 437.157 131.139 430.931 143.167 435.58C155.194 440.229 167.222 455.752 179.25 441.761C191.278 427.77 203.306 384.265 215.333 382.473C227.361 380.681 239.389 420.602 251.417 431.218C263.444 441.833 275.472 423.144 287.5 429.442C299.528 435.74 311.556 467.025 323.583 452.108C335.611 437.191 347.639 376.072 359.667 358.84C371.694 341.608 383.722 368.263 395.75 366.281C407.778 364.3 419.806 333.682 431.833 339.732C443.861 345.782 455.889 388.5 467.917 387.844C479.944 387.189 491.972 343.16 504 347.164C516.028 351.167 528.056 403.202 540.083 411.893C552.111 420.584 564.139 385.93 576.167 376.226C588.194 366.523 600.222 381.77 612.25 385.802C624.278 389.833 636.306 382.65 648.333 383.886C660.361 385.122 672.389 394.778 684.417 407.422C696.444 420.066 708.472 435.698 720.5 440.077C732.528 444.456 744.556 437.582 756.583 415.561C768.611 393.54 780.639 356.373 792.667 335.378C804.694 314.384 816.722 309.562 828.75 302.169C840.778 294.776 852.806 284.813 864.833 296.064C876.861 307.315 888.889 339.781 900.917 343.025C912.944 346.269 924.972 320.291 930.986 307.302L937 294.313" stroke="#00C7F2"/>
<path d="M77.0139 470.631L71 470.583L82.7254 470.581C89.1965 470.358 98.1399 469.357 107.083 465.249C119.111 459.724 131.139 448.578 143.167 444.012C155.194 439.446 167.222 441.459 179.25 439.093C191.278 436.728 203.306 429.985 215.333 427.663C227.361 425.34 239.389 427.44 251.417 425.204C263.444 422.969 275.472 416.399 287.5 416.439C299.528 416.48 311.556 423.132 323.583 422.642C335.611 422.153 347.639 414.522 359.667 410.47C371.694 406.418 383.722 405.943 395.75 407.015C407.778 408.087 419.806 410.706 431.833 410.752C443.861 410.799 455.889 408.275 467.917 406.421C479.944 404.567 491.972 403.385 504 399.221C516.028 395.057 528.056 387.912 540.083 385.827C552.111 383.742 564.139 386.719 576.167 385.176C588.194 383.633 600.222 377.571 612.25 371.006C624.278 364.44 636.306 357.369 648.333 356.569C660.361 355.769 672.389 361.238 684.417 362.066C696.444 362.894 708.472 359.081 720.5 358.439C732.528 357.798 744.556 360.328 756.583 356.07C768.611 351.812 780.639 340.766 792.667 333.921C804.694 327.075 816.722 324.43 828.75 322.22C840.778 320.009 852.806 318.233 864.833 316.679C876.861 315.126 888.889 313.795 900.917 314.026C912.944 314.257 924.972 316.05 930.986 316.946L937 317.842L935.767 470.447L82.7254 470.581C80.4937 470.658 78.5561 470.643 77.0139 470.631Z" fill="url(#paint1_linear_2102_346)"/>
<path d="M72.8398 470.631C78.8829 470.678 90.9691 470.774 103.055 465.249C115.141 459.724 127.228 448.578 139.314 444.012C151.4 439.446 163.486 441.459 175.572 439.093C187.658 436.728 199.744 429.985 211.831 427.663C223.917 425.34 236.003 427.44 248.089 425.204C260.175 422.969 272.261 416.399 284.347 416.439C296.434 416.48 308.52 423.132 320.606 422.642C332.692 422.153 344.778 414.522 356.864 410.47C368.951 406.418 381.037 405.943 393.123 407.015C405.209 408.087 417.295 410.706 429.381 410.752C441.467 410.799 453.554 408.275 465.64 406.421C477.726 404.567 489.812 403.385 501.898 399.221C513.984 395.057 526.07 387.912 538.157 385.827C550.243 383.742 562.329 386.719 574.415 385.176C586.501 383.633 598.587 377.571 610.674 371.006C622.76 364.44 634.846 357.369 646.932 356.569C659.018 355.769 671.104 361.238 683.19 362.066C695.277 362.894 707.363 359.081 719.449 358.439C731.535 357.798 743.621 360.328 755.707 356.07C767.793 351.812 779.88 340.766 791.966 333.921C804.052 327.075 816.138 324.43 828.224 322.22C840.31 320.009 852.396 318.233 864.483 316.679C876.569 315.126 888.655 313.795 900.741 314.026C912.827 314.257 924.913 316.05 930.956 316.946L937 317.842" stroke="#0FCA7A"/>
<path d="M24.022 381.534L25 381.534L25 386.412L16.402 386.412L16.402 385.254L24.022 385.254L24.022 381.534ZM22.264 376.706C22.28 377.198 22.32 377.618 22.384 377.966C22.444 378.31 22.524 378.592 22.624 378.812C22.724 379.028 22.842 379.186 22.978 379.286C23.114 379.382 23.266 379.43 23.434 379.43C23.594 379.43 23.732 379.404 23.848 379.352C23.964 379.3 24.06 379.23 24.136 379.142C24.208 379.05 24.262 378.944 24.298 378.824C24.33 378.7 24.346 378.568 24.346 378.428C24.346 378.24 24.328 378.068 24.292 377.912C24.252 377.756 24.196 377.61 24.124 377.474C24.052 377.334 23.966 377.202 23.866 377.078C23.766 376.95 23.652 376.826 23.524 376.706L22.264 376.706ZM19.78 380.156C19.456 379.82 19.214 379.458 19.054 379.07C18.894 378.682 18.814 378.252 18.814 377.78C18.814 377.44 18.87 377.138 18.982 376.874C19.094 376.61 19.25 376.388 19.45 376.208C19.65 376.028 19.892 375.892 20.176 375.8C20.46 375.708 20.772 375.662 21.112 375.662L25 375.662L25 376.136C25 376.24 24.984 376.32 24.952 376.376C24.916 376.432 24.848 376.476 24.748 376.508L24.172 376.628C24.32 376.788 24.452 376.944 24.568 377.096C24.68 377.248 24.776 377.408 24.856 377.576C24.932 377.744 24.99 377.924 25.03 378.116C25.074 378.304 25.096 378.514 25.096 378.746C25.096 378.982 25.064 379.204 25 379.412C24.932 379.62 24.832 379.802 24.7 379.958C24.568 380.11 24.402 380.232 24.202 380.324C23.998 380.412 23.758 380.456 23.482 380.456C23.242 380.456 23.012 380.39 22.792 380.258C22.568 380.126 22.37 379.912 22.198 379.616C22.026 379.32 21.886 378.934 21.778 378.458C21.666 377.982 21.602 377.398 21.586 376.706L21.112 376.706C20.64 376.706 20.284 376.808 20.044 377.012C19.8 377.216 19.678 377.514 19.678 377.906C19.678 378.17 19.712 378.392 19.78 378.572C19.844 378.748 19.918 378.902 20.002 379.034C20.082 379.162 20.156 379.274 20.224 379.37C20.288 379.462 20.32 379.554 20.32 379.646C20.32 379.718 20.302 379.78 20.266 379.832C20.226 379.884 20.178 379.928 20.122 379.964L19.78 380.156ZM23.536 372.461C23.8 372.265 23.986 372.051 24.094 371.819C24.202 371.583 24.256 371.325 24.256 371.045C24.256 370.473 24.054 370.035 23.65 369.731C23.246 369.427 22.644 369.275 21.844 369.275C21.1 369.275 20.554 369.411 20.206 369.683C19.854 369.951 19.678 370.335 19.678 370.835C19.678 371.183 19.758 371.487 19.918 371.747C20.078 372.003 20.304 372.241 20.596 372.461L23.536 372.461ZM19.798 372.461C19.502 372.205 19.266 371.917 19.09 371.597C18.914 371.273 18.826 370.901 18.826 370.481C18.826 370.125 18.894 369.805 19.03 369.521C19.166 369.233 19.364 368.989 19.624 368.789C19.88 368.589 20.192 368.437 20.56 368.333C20.928 368.225 21.342 368.171 21.802 368.171C22.294 368.171 22.742 368.231 23.146 368.351C23.55 368.471 23.896 368.645 24.184 368.873C24.468 369.097 24.69 369.371 24.85 369.695C25.006 370.019 25.084 370.383 25.084 370.787C25.084 371.187 25.01 371.525 24.862 371.801C24.71 372.073 24.496 372.311 24.22 372.515L24.772 372.569C24.924 372.601 25 372.693 25 372.845L25 373.535L16.162 373.535L16.162 372.461L19.798 372.461ZM21.298 362.252C21.05 362.252 20.824 362.288 20.62 362.36C20.412 362.428 20.234 362.53 20.086 362.666C19.934 362.798 19.818 362.96 19.738 363.152C19.654 363.344 19.612 363.562 19.612 363.806C19.612 364.318 19.762 364.724 20.062 365.024C20.358 365.32 20.77 365.504 21.298 365.576L21.298 362.252ZM24.148 361.388C24.308 361.52 24.448 361.678 24.568 361.862C24.684 362.046 24.78 362.244 24.856 362.456C24.932 362.664 24.988 362.88 25.024 363.104C25.064 363.328 25.084 363.55 25.084 363.77C25.084 364.19 25.014 364.578 24.874 364.934C24.73 365.286 24.522 365.592 24.25 365.852C23.974 366.108 23.634 366.308 23.23 366.452C22.826 366.596 22.362 366.668 21.838 366.668C21.414 366.668 21.018 366.604 20.65 366.476C20.282 366.344 19.964 366.156 19.696 365.912C19.424 365.668 19.212 365.37 19.06 365.018C18.904 364.666 18.826 364.27 18.826 363.83C18.826 363.466 18.888 363.13 19.012 362.822C19.132 362.51 19.308 362.242 19.54 362.018C19.768 361.79 20.052 361.612 20.392 361.484C20.728 361.356 21.112 361.292 21.544 361.292C21.712 361.292 21.824 361.31 21.88 361.346C21.936 361.382 21.964 361.45 21.964 361.55L21.964 365.612C22.348 365.6 22.682 365.548 22.966 365.456C23.25 365.36 23.488 365.228 23.68 365.06C23.868 364.892 24.01 364.692 24.106 364.46C24.198 364.228 24.244 363.968 24.244 363.68C24.244 363.412 24.214 363.182 24.154 362.99C24.09 362.794 24.022 362.626 23.95 362.486C23.878 362.346 23.812 362.23 23.752 362.138C23.688 362.042 23.656 361.96 23.656 361.892C23.656 361.804 23.69 361.736 23.758 361.688L24.148 361.388ZM16.162 358.376L25 358.376L25 359.444L16.162 359.444L16.162 358.376Z" fill="white"/>
<path d="M495.466 512.022V513H490.588V504.402H491.746V512.022H495.466ZM500.294 510.264C499.802 510.28 499.382 510.32 499.034 510.384C498.69 510.444 498.408 510.524 498.188 510.624C497.972 510.724 497.814 510.842 497.714 510.978C497.618 511.114 497.57 511.266 497.57 511.434C497.57 511.594 497.596 511.732 497.648 511.848C497.7 511.964 497.77 512.06 497.858 512.136C497.95 512.208 498.056 512.262 498.176 512.298C498.3 512.33 498.432 512.346 498.572 512.346C498.76 512.346 498.932 512.328 499.088 512.292C499.244 512.252 499.39 512.196 499.526 512.124C499.666 512.052 499.798 511.966 499.922 511.866C500.05 511.766 500.174 511.652 500.294 511.524V510.264ZM496.844 507.78C497.18 507.456 497.542 507.214 497.93 507.054C498.318 506.894 498.748 506.814 499.22 506.814C499.56 506.814 499.862 506.87 500.126 506.982C500.39 507.094 500.612 507.25 500.792 507.45C500.972 507.65 501.108 507.892 501.2 508.176C501.292 508.46 501.338 508.772 501.338 509.112V513H500.864C500.76 513 500.68 512.984 500.624 512.952C500.568 512.916 500.524 512.848 500.492 512.748L500.372 512.172C500.212 512.32 500.056 512.452 499.904 512.568C499.752 512.68 499.592 512.776 499.424 512.856C499.256 512.932 499.076 512.99 498.884 513.03C498.696 513.074 498.486 513.096 498.254 513.096C498.018 513.096 497.796 513.064 497.588 513C497.38 512.932 497.198 512.832 497.042 512.7C496.89 512.568 496.768 512.402 496.676 512.202C496.588 511.998 496.544 511.758 496.544 511.482C496.544 511.242 496.61 511.012 496.742 510.792C496.874 510.568 497.088 510.37 497.384 510.198C497.68 510.026 498.066 509.886 498.542 509.778C499.018 509.666 499.602 509.602 500.294 509.586V509.112C500.294 508.64 500.192 508.284 499.988 508.044C499.784 507.8 499.486 507.678 499.094 507.678C498.83 507.678 498.608 507.712 498.428 507.78C498.252 507.844 498.098 507.918 497.966 508.002C497.838 508.082 497.726 508.156 497.63 508.224C497.538 508.288 497.446 508.32 497.354 508.32C497.282 508.32 497.22 508.302 497.168 508.266C497.116 508.226 497.072 508.178 497.036 508.122L496.844 507.78ZM504.539 511.536C504.735 511.8 504.949 511.986 505.181 512.094C505.417 512.202 505.675 512.256 505.955 512.256C506.527 512.256 506.965 512.054 507.269 511.65C507.573 511.246 507.725 510.644 507.725 509.844C507.725 509.1 507.589 508.554 507.317 508.206C507.049 507.854 506.665 507.678 506.165 507.678C505.817 507.678 505.513 507.758 505.253 507.918C504.997 508.078 504.759 508.304 504.539 508.596V511.536ZM504.539 507.798C504.795 507.502 505.083 507.266 505.403 507.09C505.727 506.914 506.099 506.826 506.519 506.826C506.875 506.826 507.195 506.894 507.479 507.03C507.767 507.166 508.011 507.364 508.211 507.624C508.411 507.88 508.563 508.192 508.667 508.56C508.775 508.928 508.829 509.342 508.829 509.802C508.829 510.294 508.769 510.742 508.649 511.146C508.529 511.55 508.355 511.896 508.127 512.184C507.903 512.468 507.629 512.69 507.305 512.85C506.981 513.006 506.617 513.084 506.213 513.084C505.813 513.084 505.475 513.01 505.199 512.862C504.927 512.71 504.689 512.496 504.485 512.22L504.431 512.772C504.399 512.924 504.307 513 504.155 513H503.465V504.162H504.539V507.798ZM514.748 509.298C514.748 509.05 514.712 508.824 514.64 508.62C514.572 508.412 514.47 508.234 514.334 508.086C514.202 507.934 514.04 507.818 513.848 507.738C513.656 507.654 513.438 507.612 513.194 507.612C512.682 507.612 512.276 507.762 511.976 508.062C511.68 508.358 511.496 508.77 511.424 509.298H514.748ZM515.612 512.148C515.48 512.308 515.322 512.448 515.138 512.568C514.954 512.684 514.756 512.78 514.544 512.856C514.336 512.932 514.12 512.988 513.896 513.024C513.672 513.064 513.45 513.084 513.23 513.084C512.81 513.084 512.422 513.014 512.066 512.874C511.714 512.73 511.408 512.522 511.148 512.25C510.892 511.974 510.692 511.634 510.548 511.23C510.404 510.826 510.332 510.362 510.332 509.838C510.332 509.414 510.396 509.018 510.524 508.65C510.656 508.282 510.844 507.964 511.088 507.696C511.332 507.424 511.63 507.212 511.982 507.06C512.334 506.904 512.73 506.826 513.17 506.826C513.534 506.826 513.87 506.888 514.178 507.012C514.49 507.132 514.758 507.308 514.982 507.54C515.21 507.768 515.388 508.052 515.516 508.392C515.644 508.728 515.708 509.112 515.708 509.544C515.708 509.712 515.69 509.824 515.654 509.88C515.618 509.936 515.55 509.964 515.45 509.964H511.388C511.4 510.348 511.452 510.682 511.544 510.966C511.64 511.25 511.772 511.488 511.94 511.68C512.108 511.868 512.308 512.01 512.54 512.106C512.772 512.198 513.032 512.244 513.32 512.244C513.588 512.244 513.818 512.214 514.01 512.154C514.206 512.09 514.374 512.022 514.514 511.95C514.654 511.878 514.77 511.812 514.862 511.752C514.958 511.688 515.04 511.656 515.108 511.656C515.196 511.656 515.264 511.69 515.312 511.758L515.612 512.148ZM518.624 504.162V513H517.556V504.162H518.624Z" fill="white"/>
<rect width="961.359" height="118" transform="translate(0 519)" fill="#121139"/>
<rect width="913.359" height="78" transform="translate(24 535)" fill="#121139"/>
</g>
<defs>
<linearGradient id="paint0_linear_2102_346" x1="504" y1="291" x2="504" y2="471" gradientUnits="userSpaceOnUse">
<stop stop-color="#423EE0"/>
<stop offset="1" stop-color="#812DE2" stop-opacity="0.42"/>
</linearGradient>
<linearGradient id="paint1_linear_2102_346" x1="504" y1="314" x2="504" y2="470.641" gradientUnits="userSpaceOnUse">
<stop stop-color="#9E59FF"/>
<stop offset="1" stop-color="#423EE0" stop-opacity="0.38"/>
</linearGradient>
<clipPath id="clip0_2102_346">
<rect width="961.359" height="549.574" rx="30" fill="white"/>
</clipPath>
</defs>
</svg>
