<svg width="429" height="452" viewBox="0 0 429 452" fill="none" xmlns="http://www.w3.org/2000/svg">
<g clip-path="url(#clip0_2136_656)">
<rect width="429" height="135" fill="#121139"/>
<rect width="429" height="305" transform="translate(0 135)" fill="#121139"/>
<circle cx="29" cy="158" r="5" fill="#3A49F9"/>
<path d="M44.262 163H43.098V154.402H44.262V163ZM48.3995 163.096C47.9195 163.096 47.5495 162.962 47.2895 162.694C47.0335 162.426 46.9055 162.04 46.9055 161.536V157.816H46.1735C46.1095 157.816 46.0555 157.798 46.0115 157.762C45.9675 157.722 45.9455 157.662 45.9455 157.582V157.156L46.9415 157.03L47.1875 155.152C47.1995 155.092 47.2255 155.044 47.2655 155.008C47.3095 154.968 47.3655 154.948 47.4335 154.948H47.9735V157.042H49.7315V157.816H47.9735V161.464C47.9735 161.72 48.0355 161.91 48.1595 162.034C48.2835 162.158 48.4435 162.22 48.6395 162.22C48.7515 162.22 48.8475 162.206 48.9275 162.178C49.0115 162.146 49.0835 162.112 49.1435 162.076C49.2035 162.04 49.2535 162.008 49.2935 161.98C49.3375 161.948 49.3755 161.932 49.4075 161.932C49.4635 161.932 49.5135 161.966 49.5575 162.034L49.8695 162.544C49.6855 162.716 49.4635 162.852 49.2035 162.952C48.9435 163.048 48.6755 163.096 48.3995 163.096ZM55.3671 159.298C55.3671 159.05 55.3311 158.824 55.2591 158.62C55.1911 158.412 55.0891 158.234 54.9531 158.086C54.8211 157.934 54.6591 157.818 54.4671 157.738C54.2751 157.654 54.0571 157.612 53.8131 157.612C53.3011 157.612 52.8951 157.762 52.5951 158.062C52.2991 158.358 52.1151 158.77 52.0431 159.298H55.3671ZM56.2311 162.148C56.0991 162.308 55.9411 162.448 55.7571 162.568C55.5731 162.684 55.3751 162.78 55.1631 162.856C54.9551 162.932 54.7391 162.988 54.5151 163.024C54.2911 163.064 54.0691 163.084 53.8491 163.084C53.4291 163.084 53.0411 163.014 52.6851 162.874C52.3331 162.73 52.0271 162.522 51.7671 162.25C51.5111 161.974 51.3111 161.634 51.1671 161.23C51.0231 160.826 50.9511 160.362 50.9511 159.838C50.9511 159.414 51.0151 159.018 51.1431 158.65C51.2751 158.282 51.4631 157.964 51.7071 157.696C51.9511 157.424 52.2491 157.212 52.6011 157.06C52.9531 156.904 53.3491 156.826 53.7891 156.826C54.1531 156.826 54.4891 156.888 54.7971 157.012C55.1091 157.132 55.3771 157.308 55.6011 157.54C55.8291 157.768 56.0071 158.052 56.1351 158.392C56.2631 158.728 56.3271 159.112 56.3271 159.544C56.3271 159.712 56.3091 159.824 56.2731 159.88C56.2371 159.936 56.1691 159.964 56.0691 159.964H52.0071C52.0191 160.348 52.0711 160.682 52.1631 160.966C52.2591 161.25 52.3911 161.488 52.5591 161.68C52.7271 161.868 52.9271 162.01 53.1591 162.106C53.3911 162.198 53.6511 162.244 53.9391 162.244C54.2071 162.244 54.4371 162.214 54.6291 162.154C54.8251 162.09 54.9931 162.022 55.1331 161.95C55.2731 161.878 55.3891 161.812 55.4811 161.752C55.5771 161.688 55.6591 161.656 55.7271 161.656C55.8151 161.656 55.8831 161.69 55.9311 161.758L56.2311 162.148ZM58.139 163V156.922H58.781C58.933 156.922 59.027 156.996 59.063 157.144L59.141 157.768C59.365 157.492 59.617 157.266 59.897 157.09C60.177 156.914 60.501 156.826 60.869 156.826C61.277 156.826 61.607 156.94 61.859 157.168C62.115 157.396 62.299 157.704 62.411 158.092C62.499 157.872 62.611 157.682 62.747 157.522C62.887 157.362 63.043 157.23 63.215 157.126C63.387 157.022 63.569 156.946 63.761 156.898C63.957 156.85 64.155 156.826 64.355 156.826C64.675 156.826 64.959 156.878 65.207 156.982C65.459 157.082 65.671 157.23 65.843 157.426C66.019 157.622 66.153 157.864 66.245 158.152C66.337 158.436 66.383 158.762 66.383 159.13V163H65.309V159.13C65.309 158.654 65.205 158.294 64.997 158.05C64.789 157.802 64.489 157.678 64.097 157.678C63.921 157.678 63.753 157.71 63.593 157.774C63.437 157.834 63.299 157.924 63.179 158.044C63.059 158.164 62.963 158.316 62.891 158.5C62.823 158.68 62.789 158.89 62.789 159.13V163H61.715V159.13C61.715 158.642 61.617 158.278 61.421 158.038C61.225 157.798 60.939 157.678 60.563 157.678C60.299 157.678 60.055 157.75 59.831 157.894C59.607 158.034 59.401 158.226 59.213 158.47V163H58.139Z" fill="white"/>
<circle cx="89" cy="158" r="5" fill="#812DE2"/>
<path d="M104.262 163H103.098V154.402H104.262V163ZM108.4 163.096C107.92 163.096 107.55 162.962 107.29 162.694C107.034 162.426 106.906 162.04 106.906 161.536V157.816H106.174C106.11 157.816 106.056 157.798 106.012 157.762C105.968 157.722 105.946 157.662 105.946 157.582V157.156L106.942 157.03L107.188 155.152C107.2 155.092 107.226 155.044 107.266 155.008C107.31 154.968 107.366 154.948 107.434 154.948H107.974V157.042H109.732V157.816H107.974V161.464C107.974 161.72 108.036 161.91 108.16 162.034C108.284 162.158 108.444 162.22 108.64 162.22C108.752 162.22 108.848 162.206 108.928 162.178C109.012 162.146 109.084 162.112 109.144 162.076C109.204 162.04 109.254 162.008 109.294 161.98C109.338 161.948 109.376 161.932 109.408 161.932C109.464 161.932 109.514 161.966 109.558 162.034L109.87 162.544C109.686 162.716 109.464 162.852 109.204 162.952C108.944 163.048 108.676 163.096 108.4 163.096ZM115.367 159.298C115.367 159.05 115.331 158.824 115.259 158.62C115.191 158.412 115.089 158.234 114.953 158.086C114.821 157.934 114.659 157.818 114.467 157.738C114.275 157.654 114.057 157.612 113.813 157.612C113.301 157.612 112.895 157.762 112.595 158.062C112.299 158.358 112.115 158.77 112.043 159.298H115.367ZM116.231 162.148C116.099 162.308 115.941 162.448 115.757 162.568C115.573 162.684 115.375 162.78 115.163 162.856C114.955 162.932 114.739 162.988 114.515 163.024C114.291 163.064 114.069 163.084 113.849 163.084C113.429 163.084 113.041 163.014 112.685 162.874C112.333 162.73 112.027 162.522 111.767 162.25C111.511 161.974 111.311 161.634 111.167 161.23C111.023 160.826 110.951 160.362 110.951 159.838C110.951 159.414 111.015 159.018 111.143 158.65C111.275 158.282 111.463 157.964 111.707 157.696C111.951 157.424 112.249 157.212 112.601 157.06C112.953 156.904 113.349 156.826 113.789 156.826C114.153 156.826 114.489 156.888 114.797 157.012C115.109 157.132 115.377 157.308 115.601 157.54C115.829 157.768 116.007 158.052 116.135 158.392C116.263 158.728 116.327 159.112 116.327 159.544C116.327 159.712 116.309 159.824 116.273 159.88C116.237 159.936 116.169 159.964 116.069 159.964H112.007C112.019 160.348 112.071 160.682 112.163 160.966C112.259 161.25 112.391 161.488 112.559 161.68C112.727 161.868 112.927 162.01 113.159 162.106C113.391 162.198 113.651 162.244 113.939 162.244C114.207 162.244 114.437 162.214 114.629 162.154C114.825 162.09 114.993 162.022 115.133 161.95C115.273 161.878 115.389 161.812 115.481 161.752C115.577 161.688 115.659 161.656 115.727 161.656C115.815 161.656 115.883 161.69 115.931 161.758L116.231 162.148ZM118.139 163V156.922H118.781C118.933 156.922 119.027 156.996 119.063 157.144L119.141 157.768C119.365 157.492 119.617 157.266 119.897 157.09C120.177 156.914 120.501 156.826 120.869 156.826C121.277 156.826 121.607 156.94 121.859 157.168C122.115 157.396 122.299 157.704 122.411 158.092C122.499 157.872 122.611 157.682 122.747 157.522C122.887 157.362 123.043 157.23 123.215 157.126C123.387 157.022 123.569 156.946 123.761 156.898C123.957 156.85 124.155 156.826 124.355 156.826C124.675 156.826 124.959 156.878 125.207 156.982C125.459 157.082 125.671 157.23 125.843 157.426C126.019 157.622 126.153 157.864 126.245 158.152C126.337 158.436 126.383 158.762 126.383 159.13V163H125.309V159.13C125.309 158.654 125.205 158.294 124.997 158.05C124.789 157.802 124.489 157.678 124.097 157.678C123.921 157.678 123.753 157.71 123.593 157.774C123.437 157.834 123.299 157.924 123.179 158.044C123.059 158.164 122.963 158.316 122.891 158.5C122.823 158.68 122.789 158.89 122.789 159.13V163H121.715V159.13C121.715 158.642 121.617 158.278 121.421 158.038C121.225 157.798 120.939 157.678 120.563 157.678C120.299 157.678 120.055 157.75 119.831 157.894C119.607 158.034 119.401 158.226 119.213 158.47V163H118.139Z" fill="white"/>
<path d="M38.8935 192.739V201.467H37.8366V193.847H37.7855L35.6548 195.262V194.188L37.8366 192.739H38.8935ZM44.25 201.586C43.608 201.586 43.0611 201.411 42.6094 201.062C42.1577 200.71 41.8125 200.2 41.5739 199.532C41.3352 198.862 41.2159 198.052 41.2159 197.103C41.2159 196.16 41.3352 195.354 41.5739 194.687C41.8153 194.016 42.1619 193.505 42.6136 193.153C43.0682 192.798 43.6136 192.62 44.25 192.62C44.8864 192.62 45.4304 192.798 45.8821 193.153C46.3366 193.505 46.6832 194.016 46.9219 194.687C47.1634 195.354 47.2841 196.16 47.2841 197.103C47.2841 198.052 47.1648 198.862 46.9261 199.532C46.6875 200.2 46.3423 200.71 45.8906 201.062C45.4389 201.411 44.892 201.586 44.25 201.586ZM44.25 200.648C44.8864 200.648 45.3807 200.342 45.733 199.728C46.0852 199.114 46.2614 198.239 46.2614 197.103C46.2614 196.347 46.1804 195.704 46.0185 195.173C45.8594 194.641 45.6293 194.237 45.3281 193.958C45.0298 193.68 44.6705 193.541 44.25 193.541C43.6193 193.541 43.1264 193.852 42.7713 194.474C42.4162 195.093 42.2386 195.97 42.2386 197.103C42.2386 197.859 42.3182 198.501 42.4773 199.029C42.6364 199.558 42.8651 199.96 43.1634 200.235C43.4645 200.511 43.8267 200.648 44.25 200.648ZM51.75 201.586C51.108 201.586 50.5611 201.411 50.1094 201.062C49.6577 200.71 49.3125 200.2 49.0739 199.532C48.8352 198.862 48.7159 198.052 48.7159 197.103C48.7159 196.16 48.8352 195.354 49.0739 194.687C49.3153 194.016 49.6619 193.505 50.1136 193.153C50.5682 192.798 51.1136 192.62 51.75 192.62C52.3864 192.62 52.9304 192.798 53.3821 193.153C53.8366 193.505 54.1832 194.016 54.4219 194.687C54.6634 195.354 54.7841 196.16 54.7841 197.103C54.7841 198.052 54.6648 198.862 54.4261 199.532C54.1875 200.2 53.8423 200.71 53.3906 201.062C52.9389 201.411 52.392 201.586 51.75 201.586ZM51.75 200.648C52.3864 200.648 52.8807 200.342 53.233 199.728C53.5852 199.114 53.7614 198.239 53.7614 197.103C53.7614 196.347 53.6804 195.704 53.5185 195.173C53.3594 194.641 53.1293 194.237 52.8281 193.958C52.5298 193.68 52.1705 193.541 51.75 193.541C51.1193 193.541 50.6264 193.852 50.2713 194.474C49.9162 195.093 49.7386 195.97 49.7386 197.103C49.7386 197.859 49.8182 198.501 49.9773 199.029C50.1364 199.558 50.3651 199.96 50.6634 200.235C50.9645 200.511 51.3267 200.648 51.75 200.648ZM59.25 201.586C58.608 201.586 58.0611 201.411 57.6094 201.062C57.1577 200.71 56.8125 200.2 56.5739 199.532C56.3352 198.862 56.2159 198.052 56.2159 197.103C56.2159 196.16 56.3352 195.354 56.5739 194.687C56.8153 194.016 57.1619 193.505 57.6136 193.153C58.0682 192.798 58.6136 192.62 59.25 192.62C59.8864 192.62 60.4304 192.798 60.8821 193.153C61.3366 193.505 61.6832 194.016 61.9219 194.687C62.1634 195.354 62.2841 196.16 62.2841 197.103C62.2841 198.052 62.1648 198.862 61.9261 199.532C61.6875 200.2 61.3423 200.71 60.8906 201.062C60.4389 201.411 59.892 201.586 59.25 201.586ZM59.25 200.648C59.8864 200.648 60.3807 200.342 60.733 199.728C61.0852 199.114 61.2614 198.239 61.2614 197.103C61.2614 196.347 61.1804 195.704 61.0185 195.173C60.8594 194.641 60.6293 194.237 60.3281 193.958C60.0298 193.68 59.6705 193.541 59.25 193.541C58.6193 193.541 58.1264 193.852 57.7713 194.474C57.4162 195.093 57.2386 195.97 57.2386 197.103C57.2386 197.859 57.3182 198.501 57.4773 199.029C57.6364 199.558 57.8651 199.96 58.1634 200.235C58.4645 200.511 58.8267 200.648 59.25 200.648Z" fill="#B8C0CC"/>
<path d="M42.6371 233.4L46.5405 225.678V225.61H42.0405V224.673H47.6314V225.661L43.745 233.4H42.6371ZM51.8299 233.519C51.3299 233.519 50.8796 233.42 50.479 233.221C50.0785 233.022 49.7575 232.749 49.516 232.403C49.2745 232.056 49.1424 231.661 49.1197 231.218H50.1424C50.1822 231.613 50.3612 231.94 50.6793 232.198C51.0004 232.454 51.3839 232.582 51.8299 232.582C52.1879 232.582 52.506 232.498 52.7844 232.33C53.0657 232.163 53.2859 231.933 53.445 231.64C53.6069 231.345 53.6879 231.011 53.6879 230.639C53.6879 230.258 53.604 229.918 53.4364 229.62C53.2717 229.319 53.0444 229.082 52.7546 228.909C52.4648 228.735 52.1339 228.647 51.7617 228.644C51.4947 228.642 51.2205 228.683 50.9393 228.768C50.658 228.85 50.4265 228.957 50.2447 229.088L49.256 228.968L49.7844 224.673H54.3185V225.61H50.6708L50.364 228.184H50.4151C50.5941 228.042 50.8185 227.924 51.0884 227.83C51.3583 227.737 51.6396 227.69 51.9322 227.69C52.4663 227.69 52.9421 227.818 53.3597 228.073C53.7802 228.326 54.1097 228.673 54.3484 229.113C54.5898 229.553 54.7106 230.056 54.7106 230.622C54.7106 231.178 54.5856 231.676 54.3356 232.113C54.0884 232.548 53.7475 232.892 53.3129 233.144C52.8782 233.394 52.3839 233.519 51.8299 233.519ZM59.25 233.519C58.608 233.519 58.0611 233.345 57.6094 232.995C57.1577 232.643 56.8125 232.133 56.5739 231.465C56.3352 230.795 56.2159 229.985 56.2159 229.036C56.2159 228.093 56.3352 227.288 56.5739 226.62C56.8153 225.95 57.1619 225.438 57.6136 225.086C58.0682 224.731 58.6136 224.553 59.25 224.553C59.8864 224.553 60.4304 224.731 60.8821 225.086C61.3366 225.438 61.6832 225.95 61.9219 226.62C62.1634 227.288 62.2841 228.093 62.2841 229.036C62.2841 229.985 62.1648 230.795 61.9261 231.465C61.6875 232.133 61.3423 232.643 60.8906 232.995C60.4389 233.345 59.892 233.519 59.25 233.519ZM59.25 232.582C59.8864 232.582 60.3807 232.275 60.733 231.661C61.0852 231.048 61.2614 230.173 61.2614 229.036C61.2614 228.281 61.1804 227.637 61.0185 227.106C60.8594 226.575 60.6293 226.17 60.3281 225.892C60.0298 225.613 59.6705 225.474 59.25 225.474C58.6193 225.474 58.1264 225.785 57.7713 226.407C57.4162 227.026 57.2386 227.903 57.2386 229.036C57.2386 229.792 57.3182 230.434 57.4773 230.963C57.6364 231.491 57.8651 231.893 58.1634 232.168C58.4645 232.444 58.8267 232.582 59.25 232.582Z" fill="#B8C0CC"/>
<path d="M71 228.9H405" stroke="#9E59FF" stroke-opacity="0.29"/>
<path d="M44.3299 265.453C43.8299 265.453 43.3796 265.353 42.979 265.154C42.5785 264.956 42.2575 264.683 42.016 264.336C41.7745 263.99 41.6424 263.595 41.6197 263.152H42.6424C42.6822 263.546 42.8612 263.873 43.1793 264.132C43.5004 264.387 43.8839 264.515 44.3299 264.515C44.6879 264.515 45.006 264.431 45.2844 264.264C45.5657 264.096 45.7859 263.866 45.945 263.573C46.1069 263.278 46.1879 262.944 46.1879 262.572C46.1879 262.191 46.104 261.852 45.9364 261.554C45.7717 261.252 45.5444 261.015 45.2546 260.842C44.9648 260.669 44.6339 260.581 44.2617 260.578C43.9947 260.575 43.7205 260.616 43.4393 260.701C43.158 260.784 42.9265 260.89 42.7447 261.021L41.756 260.902L42.2844 256.606H46.8185V257.544H43.1708L42.864 260.117H42.9151C43.0941 259.975 43.3185 259.858 43.5884 259.764C43.8583 259.67 44.1396 259.623 44.4322 259.623C44.9663 259.623 45.4421 259.751 45.8597 260.007C46.2802 260.26 46.6097 260.606 46.8484 261.046C47.0898 261.487 47.2106 261.99 47.2106 262.555C47.2106 263.112 47.0856 263.609 46.8356 264.046C46.5884 264.481 46.2475 264.825 45.8129 265.078C45.3782 265.328 44.8839 265.453 44.3299 265.453ZM51.75 265.453C51.108 265.453 50.5611 265.278 50.1094 264.929C49.6577 264.576 49.3125 264.066 49.0739 263.399C48.8352 262.728 48.7159 261.919 48.7159 260.97C48.7159 260.027 48.8352 259.221 49.0739 258.554C49.3153 257.883 49.6619 257.372 50.1136 257.019C50.5682 256.664 51.1136 256.487 51.75 256.487C52.3864 256.487 52.9304 256.664 53.3821 257.019C53.8366 257.372 54.1832 257.883 54.4219 258.554C54.6634 259.221 54.7841 260.027 54.7841 260.97C54.7841 261.919 54.6648 262.728 54.4261 263.399C54.1875 264.066 53.8423 264.576 53.3906 264.929C52.9389 265.278 52.392 265.453 51.75 265.453ZM51.75 264.515C52.3864 264.515 52.8807 264.208 53.233 263.595C53.5852 262.981 53.7614 262.106 53.7614 260.97C53.7614 260.214 53.6804 259.571 53.5185 259.039C53.3594 258.508 53.1293 258.103 52.8281 257.825C52.5298 257.546 52.1705 257.407 51.75 257.407C51.1193 257.407 50.6264 257.718 50.2713 258.34C49.9162 258.96 49.7386 259.836 49.7386 260.97C49.7386 261.725 49.8182 262.367 49.9773 262.896C50.1364 263.424 50.3651 263.826 50.6634 264.102C50.9645 264.377 51.3267 264.515 51.75 264.515ZM59.25 265.453C58.608 265.453 58.0611 265.278 57.6094 264.929C57.1577 264.576 56.8125 264.066 56.5739 263.399C56.3352 262.728 56.2159 261.919 56.2159 260.97C56.2159 260.027 56.3352 259.221 56.5739 258.554C56.8153 257.883 57.1619 257.372 57.6136 257.019C58.0682 256.664 58.6136 256.487 59.25 256.487C59.8864 256.487 60.4304 256.664 60.8821 257.019C61.3366 257.372 61.6832 257.883 61.9219 258.554C62.1634 259.221 62.2841 260.027 62.2841 260.97C62.2841 261.919 62.1648 262.728 61.9261 263.399C61.6875 264.066 61.3423 264.576 60.8906 264.929C60.4389 265.278 59.892 265.453 59.25 265.453ZM59.25 264.515C59.8864 264.515 60.3807 264.208 60.733 263.595C61.0852 262.981 61.2614 262.106 61.2614 260.97C61.2614 260.214 61.1804 259.571 61.0185 259.039C60.8594 258.508 60.6293 258.103 60.3281 257.825C60.0298 257.546 59.6705 257.407 59.25 257.407C58.6193 257.407 58.1264 257.718 57.7713 258.34C57.4162 258.96 57.2386 259.836 57.2386 260.97C57.2386 261.725 57.3182 262.367 57.4773 262.896C57.6364 263.424 57.8651 263.826 58.1634 264.102C58.4645 264.377 58.8267 264.515 59.25 264.515Z" fill="#B8C0CC"/>
<path d="M71 260.833H405" stroke="#9E59FF" stroke-opacity="0.29"/>
<path d="M44.3299 297.386C43.8299 297.386 43.3796 297.286 42.979 297.088C42.5785 296.889 42.2575 296.616 42.016 296.269C41.7745 295.923 41.6424 295.528 41.6197 295.085H42.6424C42.6822 295.48 42.8612 295.806 43.1793 296.065C43.5004 296.321 43.8839 296.448 44.3299 296.448C44.6879 296.448 45.006 296.365 45.2844 296.197C45.5657 296.029 45.7859 295.799 45.945 295.507C46.1069 295.211 46.1879 294.877 46.1879 294.505C46.1879 294.125 46.104 293.785 45.9364 293.487C45.7717 293.186 45.5444 292.948 45.2546 292.775C44.9648 292.602 44.6339 292.514 44.2617 292.511C43.9947 292.508 43.7205 292.549 43.4393 292.634C43.158 292.717 42.9265 292.823 42.7447 292.954L41.756 292.835L42.2844 288.539H46.8185V289.477H43.1708L42.864 292.051H42.9151C43.0941 291.909 43.3185 291.791 43.5884 291.697C43.8583 291.603 44.1396 291.556 44.4322 291.556C44.9663 291.556 45.4421 291.684 45.8597 291.94C46.2802 292.193 46.6097 292.539 46.8484 292.98C47.0898 293.42 47.2106 293.923 47.2106 294.488C47.2106 295.045 47.0856 295.542 46.8356 295.98C46.5884 296.414 46.2475 296.758 45.8129 297.011C45.3782 297.261 44.8839 297.386 44.3299 297.386ZM51.75 297.386C51.108 297.386 50.5611 297.211 50.1094 296.862C49.6577 296.509 49.3125 296 49.0739 295.332C48.8352 294.661 48.7159 293.852 48.7159 292.903C48.7159 291.96 48.8352 291.154 49.0739 290.487C49.3153 289.816 49.6619 289.305 50.1136 288.953C50.5682 288.598 51.1136 288.42 51.75 288.42C52.3864 288.42 52.9304 288.598 53.3821 288.953C53.8366 289.305 54.1832 289.816 54.4219 290.487C54.6634 291.154 54.7841 291.96 54.7841 292.903C54.7841 293.852 54.6648 294.661 54.4261 295.332C54.1875 296 53.8423 296.509 53.3906 296.862C52.9389 297.211 52.392 297.386 51.75 297.386ZM51.75 296.448C52.3864 296.448 52.8807 296.142 53.233 295.528C53.5852 294.914 53.7614 294.039 53.7614 292.903C53.7614 292.147 53.6804 291.504 53.5185 290.973C53.3594 290.441 53.1293 290.036 52.8281 289.758C52.5298 289.48 52.1705 289.34 51.75 289.34C51.1193 289.34 50.6264 289.652 50.2713 290.274C49.9162 290.893 49.7386 291.769 49.7386 292.903C49.7386 293.659 49.8182 294.301 49.9773 294.829C50.1364 295.358 50.3651 295.759 50.6634 296.035C50.9645 296.311 51.3267 296.448 51.75 296.448ZM59.25 297.386C58.608 297.386 58.0611 297.211 57.6094 296.862C57.1577 296.509 56.8125 296 56.5739 295.332C56.3352 294.661 56.2159 293.852 56.2159 292.903C56.2159 291.96 56.3352 291.154 56.5739 290.487C56.8153 289.816 57.1619 289.305 57.6136 288.953C58.0682 288.598 58.6136 288.42 59.25 288.42C59.8864 288.42 60.4304 288.598 60.8821 288.953C61.3366 289.305 61.6832 289.816 61.9219 290.487C62.1634 291.154 62.2841 291.96 62.2841 292.903C62.2841 293.852 62.1648 294.661 61.9261 295.332C61.6875 296 61.3423 296.509 60.8906 296.862C60.4389 297.211 59.892 297.386 59.25 297.386ZM59.25 296.448C59.8864 296.448 60.3807 296.142 60.733 295.528C61.0852 294.914 61.2614 294.039 61.2614 292.903C61.2614 292.147 61.1804 291.504 61.0185 290.973C60.8594 290.441 60.6293 290.036 60.3281 289.758C60.0298 289.48 59.6705 289.34 59.25 289.34C58.6193 289.34 58.1264 289.652 57.7713 290.274C57.4162 290.893 57.2386 291.769 57.2386 292.903C57.2386 293.659 57.3182 294.301 57.4773 294.829C57.6364 295.358 57.8651 295.759 58.1634 296.035C58.4645 296.311 58.8267 296.448 59.25 296.448Z" fill="#B8C0CC"/>
<path d="M71 292.767H405" stroke="#9E59FF" stroke-opacity="0.29"/>
<path d="M44.3299 329.319C43.8299 329.319 43.3796 329.22 42.979 329.021C42.5785 328.822 42.2575 328.549 42.016 328.203C41.7745 327.856 41.6424 327.461 41.6197 327.018H42.6424C42.6822 327.413 42.8612 327.74 43.1793 327.998C43.5004 328.254 43.8839 328.382 44.3299 328.382C44.6879 328.382 45.006 328.298 45.2844 328.13C45.5657 327.963 45.7859 327.733 45.945 327.44C46.1069 327.145 46.1879 326.811 46.1879 326.439C46.1879 326.058 46.104 325.718 45.9364 325.42C45.7717 325.119 45.5444 324.882 45.2546 324.708C44.9648 324.535 44.6339 324.447 44.2617 324.444C43.9947 324.441 43.7205 324.483 43.4393 324.568C43.158 324.65 42.9265 324.757 42.7447 324.887L41.756 324.768L42.2844 320.473H46.8185V321.41H43.1708L42.864 323.984H42.9151C43.0941 323.842 43.3185 323.724 43.5884 323.63C43.8583 323.537 44.1396 323.49 44.4322 323.49C44.9663 323.49 45.4421 323.618 45.8597 323.873C46.2802 324.126 46.6097 324.473 46.8484 324.913C47.0898 325.353 47.2106 325.856 47.2106 326.422C47.2106 326.978 47.0856 327.476 46.8356 327.913C46.5884 328.348 46.2475 328.691 45.8129 328.944C45.3782 329.194 44.8839 329.319 44.3299 329.319ZM51.75 329.319C51.108 329.319 50.5611 329.145 50.1094 328.795C49.6577 328.443 49.3125 327.933 49.0739 327.265C48.8352 326.595 48.7159 325.785 48.7159 324.836C48.7159 323.893 48.8352 323.088 49.0739 322.42C49.3153 321.75 49.6619 321.238 50.1136 320.886C50.5682 320.531 51.1136 320.353 51.75 320.353C52.3864 320.353 52.9304 320.531 53.3821 320.886C53.8366 321.238 54.1832 321.75 54.4219 322.42C54.6634 323.088 54.7841 323.893 54.7841 324.836C54.7841 325.785 54.6648 326.595 54.4261 327.265C54.1875 327.933 53.8423 328.443 53.3906 328.795C52.9389 329.145 52.392 329.319 51.75 329.319ZM51.75 328.382C52.3864 328.382 52.8807 328.075 53.233 327.461C53.5852 326.848 53.7614 325.973 53.7614 324.836C53.7614 324.081 53.6804 323.437 53.5185 322.906C53.3594 322.375 53.1293 321.97 52.8281 321.691C52.5298 321.413 52.1705 321.274 51.75 321.274C51.1193 321.274 50.6264 321.585 50.2713 322.207C49.9162 322.826 49.7386 323.703 49.7386 324.836C49.7386 325.592 49.8182 326.234 49.9773 326.762C50.1364 327.291 50.3651 327.693 50.6634 327.968C50.9645 328.244 51.3267 328.382 51.75 328.382ZM59.25 329.319C58.608 329.319 58.0611 329.145 57.6094 328.795C57.1577 328.443 56.8125 327.933 56.5739 327.265C56.3352 326.595 56.2159 325.785 56.2159 324.836C56.2159 323.893 56.3352 323.088 56.5739 322.42C56.8153 321.75 57.1619 321.238 57.6136 320.886C58.0682 320.531 58.6136 320.353 59.25 320.353C59.8864 320.353 60.4304 320.531 60.8821 320.886C61.3366 321.238 61.6832 321.75 61.9219 322.42C62.1634 323.088 62.2841 323.893 62.2841 324.836C62.2841 325.785 62.1648 326.595 61.9261 327.265C61.6875 327.933 61.3423 328.443 60.8906 328.795C60.4389 329.145 59.892 329.319 59.25 329.319ZM59.25 328.382C59.8864 328.382 60.3807 328.075 60.733 327.461C61.0852 326.848 61.2614 325.973 61.2614 324.836C61.2614 324.081 61.1804 323.437 61.0185 322.906C60.8594 322.375 60.6293 321.97 60.3281 321.691C60.0298 321.413 59.6705 321.274 59.25 321.274C58.6193 321.274 58.1264 321.585 57.7713 322.207C57.4162 322.826 57.2386 323.703 57.2386 324.836C57.2386 325.592 57.3182 326.234 57.4773 326.762C57.6364 327.291 57.8651 327.693 58.1634 327.968C58.4645 328.244 58.8267 328.382 59.25 328.382Z" fill="#B8C0CC"/>
<path d="M71 324.7H405" stroke="#9E59FF" stroke-opacity="0.29"/>
<path d="M41.837 361.133V360.366L44.7177 357.213C45.0558 356.844 45.3342 356.523 45.5529 356.25C45.7717 355.974 45.9336 355.716 46.0387 355.474C46.1467 355.23 46.2006 354.974 46.2006 354.707C46.2006 354.4 46.1268 354.135 45.979 353.91C45.8342 353.686 45.6353 353.513 45.3825 353.39C45.1296 353.268 44.8455 353.207 44.5302 353.207C44.195 353.207 43.9023 353.277 43.6523 353.416C43.4052 353.552 43.2134 353.744 43.0771 353.991C42.9435 354.238 42.8768 354.528 42.8768 354.861H41.8711C41.8711 354.349 41.989 353.9 42.2248 353.514C42.4606 353.128 42.7816 352.826 43.1879 352.611C43.5969 352.395 44.0558 352.287 44.5643 352.287C45.0756 352.287 45.5288 352.395 45.9237 352.611C46.3185 352.826 46.6282 353.118 46.8526 353.484C47.0771 353.851 47.1893 354.258 47.1893 354.707C47.1893 355.028 47.131 355.342 47.0146 355.649C46.9009 355.953 46.7021 356.292 46.418 356.667C46.1367 357.04 45.7461 357.494 45.2461 358.031L43.2859 360.128V360.196H47.3427V361.133H41.837ZM51.8299 361.253C51.3299 361.253 50.8796 361.153 50.479 360.954C50.0785 360.755 49.7575 360.483 49.516 360.136C49.2745 359.79 49.1424 359.395 49.1197 358.951H50.1424C50.1822 359.346 50.3612 359.673 50.6793 359.932C51.0004 360.187 51.3839 360.315 51.8299 360.315C52.1879 360.315 52.506 360.231 52.7844 360.064C53.0657 359.896 53.2859 359.666 53.445 359.373C53.6069 359.078 53.6879 358.744 53.6879 358.372C53.6879 357.991 53.604 357.652 53.4364 357.353C53.2717 357.052 53.0444 356.815 52.7546 356.642C52.4648 356.469 52.1339 356.38 51.7617 356.378C51.4947 356.375 51.2205 356.416 50.9393 356.501C50.658 356.584 50.4265 356.69 50.2447 356.821L49.256 356.701L49.7844 352.406H54.3185V353.344H50.6708L50.364 355.917H50.4151C50.5941 355.775 50.8185 355.657 51.0884 355.564C51.3583 355.47 51.6396 355.423 51.9322 355.423C52.4663 355.423 52.9421 355.551 53.3597 355.807C53.7802 356.059 54.1097 356.406 54.3484 356.846C54.5898 357.287 54.7106 357.79 54.7106 358.355C54.7106 358.912 54.5856 359.409 54.3356 359.846C54.0884 360.281 53.7475 360.625 53.3129 360.878C52.8782 361.128 52.3839 361.253 51.8299 361.253ZM59.25 361.253C58.608 361.253 58.0611 361.078 57.6094 360.728C57.1577 360.376 56.8125 359.866 56.5739 359.199C56.3352 358.528 56.2159 357.719 56.2159 356.77C56.2159 355.826 56.3352 355.021 56.5739 354.353C56.8153 353.683 57.1619 353.172 57.6136 352.819C58.0682 352.464 58.6136 352.287 59.25 352.287C59.8864 352.287 60.4304 352.464 60.8821 352.819C61.3366 353.172 61.6832 353.683 61.9219 354.353C62.1634 355.021 62.2841 355.826 62.2841 356.77C62.2841 357.719 62.1648 358.528 61.9261 359.199C61.6875 359.866 61.3423 360.376 60.8906 360.728C60.4389 361.078 59.892 361.253 59.25 361.253ZM59.25 360.315C59.8864 360.315 60.3807 360.008 60.733 359.395C61.0852 358.781 61.2614 357.906 61.2614 356.77C61.2614 356.014 61.1804 355.371 61.0185 354.839C60.8594 354.308 60.6293 353.903 60.3281 353.625C60.0298 353.346 59.6705 353.207 59.25 353.207C58.6193 353.207 58.1264 353.518 57.7713 354.14C57.4162 354.76 57.2386 355.636 57.2386 356.77C57.2386 357.525 57.3182 358.167 57.4773 358.696C57.6364 359.224 57.8651 359.626 58.1634 359.902C58.4645 360.177 58.8267 360.315 59.25 360.315Z" fill="#B8C0CC"/>
<path d="M71 356.633H405" stroke="#9E59FF" stroke-opacity="0.29"/>
<path d="M59.25 394.919C58.608 394.919 58.0611 394.745 57.6094 394.395C57.1577 394.043 56.8125 393.533 56.5739 392.865C56.3352 392.195 56.2159 391.385 56.2159 390.436C56.2159 389.493 56.3352 388.688 56.5739 388.02C56.8153 387.35 57.1619 386.838 57.6136 386.486C58.0682 386.131 58.6136 385.953 59.25 385.953C59.8864 385.953 60.4304 386.131 60.8821 386.486C61.3366 386.838 61.6832 387.35 61.9219 388.02C62.1634 388.688 62.2841 389.493 62.2841 390.436C62.2841 391.385 62.1648 392.195 61.9261 392.865C61.6875 393.533 61.3423 394.043 60.8906 394.395C60.4389 394.745 59.892 394.919 59.25 394.919ZM59.25 393.982C59.8864 393.982 60.3807 393.675 60.733 393.061C61.0852 392.448 61.2614 391.573 61.2614 390.436C61.2614 389.681 61.1804 389.037 61.0185 388.506C60.8594 387.975 60.6293 387.57 60.3281 387.292C60.0298 387.013 59.6705 386.874 59.25 386.874C58.6193 386.874 58.1264 387.185 57.7713 387.807C57.4162 388.426 57.2386 389.303 57.2386 390.436C57.2386 391.192 57.3182 391.834 57.4773 392.363C57.6364 392.891 57.8651 393.293 58.1634 393.569C58.4645 393.844 58.8267 393.982 59.25 393.982Z" fill="#B8C0CC"/>
<rect x="71.5" y="196.5" width="333" height="195" stroke="#9E59FF" stroke-opacity="0.29"/>
<path d="M74.75 407.119C74.108 407.119 73.5611 406.945 73.1094 406.595C72.6577 406.243 72.3125 405.733 72.0739 405.065C71.8352 404.395 71.7159 403.585 71.7159 402.636C71.7159 401.693 71.8352 400.888 72.0739 400.22C72.3153 399.55 72.6619 399.038 73.1136 398.686C73.5682 398.331 74.1136 398.153 74.75 398.153C75.3864 398.153 75.9304 398.331 76.3821 398.686C76.8366 399.038 77.1832 399.55 77.4219 400.22C77.6634 400.888 77.7841 401.693 77.7841 402.636C77.7841 403.585 77.6648 404.395 77.4261 405.065C77.1875 405.733 76.8423 406.243 76.3906 406.595C75.9389 406.945 75.392 407.119 74.75 407.119ZM74.75 406.182C75.3864 406.182 75.8807 405.875 76.233 405.261C76.5852 404.648 76.7614 403.773 76.7614 402.636C76.7614 401.881 76.6804 401.237 76.5185 400.706C76.3594 400.175 76.1293 399.77 75.8281 399.491C75.5298 399.213 75.1705 399.074 74.75 399.074C74.1193 399.074 73.6264 399.385 73.2713 400.007C72.9162 400.626 72.7386 401.503 72.7386 402.636C72.7386 403.392 72.8182 404.034 72.9773 404.562C73.1364 405.091 73.3651 405.493 73.6634 405.768C73.9645 406.044 74.3267 406.182 74.75 406.182Z" fill="#B8C0CC"/>
<line x1="126.167" y1="392" x2="126.167" y2="196" stroke="#9E59FF" stroke-opacity="0.29"/>
<path d="M130.639 398.273V407H129.582V399.381H129.531L127.4 400.795V399.722L129.582 398.273H130.639ZM135.995 407.119C135.353 407.119 134.806 406.945 134.354 406.595C133.903 406.243 133.558 405.733 133.319 405.065C133.08 404.395 132.961 403.585 132.961 402.636C132.961 401.693 133.08 400.888 133.319 400.22C133.56 399.55 133.907 399.038 134.359 398.686C134.813 398.331 135.359 398.153 135.995 398.153C136.631 398.153 137.176 398.331 137.627 398.686C138.082 399.038 138.428 399.55 138.667 400.22C138.908 400.888 139.029 401.693 139.029 402.636C139.029 403.585 138.91 404.395 138.671 405.065C138.433 405.733 138.087 406.243 137.636 406.595C137.184 406.945 136.637 407.119 135.995 407.119ZM135.995 406.182C136.631 406.182 137.126 405.875 137.478 405.261C137.83 404.648 138.006 403.773 138.006 402.636C138.006 401.881 137.926 401.237 137.764 400.706C137.604 400.175 137.374 399.77 137.073 399.491C136.775 399.213 136.416 399.074 135.995 399.074C135.364 399.074 134.872 399.385 134.516 400.007C134.161 400.626 133.984 401.503 133.984 402.636C133.984 403.392 134.063 404.034 134.222 404.562C134.381 405.091 134.61 405.493 134.908 405.768C135.21 406.044 135.572 406.182 135.995 406.182ZM143.495 407.119C142.853 407.119 142.306 406.945 141.854 406.595C141.403 406.243 141.058 405.733 140.819 405.065C140.58 404.395 140.461 403.585 140.461 402.636C140.461 401.693 140.58 400.888 140.819 400.22C141.06 399.55 141.407 399.038 141.859 398.686C142.313 398.331 142.859 398.153 143.495 398.153C144.131 398.153 144.676 398.331 145.127 398.686C145.582 399.038 145.928 399.55 146.167 400.22C146.408 400.888 146.529 401.693 146.529 402.636C146.529 403.585 146.41 404.395 146.171 405.065C145.933 405.733 145.587 406.243 145.136 406.595C144.684 406.945 144.137 407.119 143.495 407.119ZM143.495 406.182C144.131 406.182 144.626 405.875 144.978 405.261C145.33 404.648 145.506 403.773 145.506 402.636C145.506 401.881 145.426 401.237 145.264 400.706C145.104 400.175 144.874 399.77 144.573 399.491C144.275 399.213 143.916 399.074 143.495 399.074C142.864 399.074 142.372 399.385 142.016 400.007C141.661 400.626 141.484 401.503 141.484 402.636C141.484 403.392 141.563 404.034 141.722 404.562C141.881 405.091 142.11 405.493 142.408 405.768C142.71 406.044 143.072 406.182 143.495 406.182Z" fill="#B8C0CC"/>
<line x1="181.833" y1="392" x2="181.833" y2="196" stroke="#9E59FF" stroke-opacity="0.29"/>
<path d="M186.134 407.119C185.776 407.114 185.418 407.045 185.06 406.915C184.702 406.784 184.376 406.564 184.08 406.254C183.785 405.942 183.547 405.52 183.369 404.989C183.19 404.455 183.1 403.784 183.1 402.977C183.1 402.205 183.172 401.52 183.317 400.923C183.462 400.324 183.672 399.82 183.948 399.411C184.224 398.999 184.556 398.686 184.945 398.473C185.337 398.26 185.779 398.153 186.271 398.153C186.759 398.153 187.194 398.251 187.574 398.447C187.958 398.641 188.271 398.911 188.512 399.257C188.753 399.604 188.91 400.003 188.981 400.455H187.941C187.844 400.062 187.657 399.737 187.378 399.479C187.1 399.22 186.731 399.091 186.271 399.091C185.594 399.091 185.062 399.385 184.672 399.973C184.286 400.561 184.092 401.386 184.089 402.449H184.157C184.316 402.207 184.505 402.001 184.724 401.831C184.945 401.658 185.19 401.524 185.457 401.43C185.724 401.337 186.006 401.29 186.305 401.29C186.805 401.29 187.262 401.415 187.677 401.665C188.092 401.912 188.424 402.254 188.674 402.692C188.924 403.126 189.049 403.625 189.049 404.188C189.049 404.727 188.928 405.222 188.687 405.67C188.445 406.116 188.106 406.472 187.668 406.736C187.234 406.997 186.722 407.125 186.134 407.119ZM186.134 406.182C186.492 406.182 186.813 406.092 187.097 405.913C187.384 405.734 187.61 405.494 187.775 405.193C187.942 404.892 188.026 404.557 188.026 404.188C188.026 403.827 187.945 403.499 187.783 403.203C187.624 402.905 187.404 402.668 187.123 402.491C186.844 402.315 186.526 402.227 186.168 402.227C185.898 402.227 185.647 402.281 185.414 402.389C185.181 402.494 184.976 402.639 184.8 402.824C184.627 403.009 184.491 403.22 184.391 403.459C184.292 403.695 184.242 403.943 184.242 404.205C184.242 404.551 184.323 404.875 184.485 405.176C184.65 405.477 184.874 405.72 185.158 405.905C185.445 406.089 185.771 406.182 186.134 406.182ZM193.571 407.119C192.929 407.119 192.382 406.945 191.931 406.595C191.479 406.243 191.134 405.733 190.895 405.065C190.657 404.395 190.537 403.585 190.537 402.636C190.537 401.693 190.657 400.888 190.895 400.22C191.137 399.55 191.483 399.038 191.935 398.686C192.389 398.331 192.935 398.153 193.571 398.153C194.208 398.153 194.752 398.331 195.203 398.686C195.658 399.038 196.005 399.55 196.243 400.22C196.485 400.888 196.605 401.693 196.605 402.636C196.605 403.585 196.486 404.395 196.247 405.065C196.009 405.733 195.664 406.243 195.212 406.595C194.76 406.945 194.213 407.119 193.571 407.119ZM193.571 406.182C194.208 406.182 194.702 405.875 195.054 405.261C195.407 404.648 195.583 403.773 195.583 402.636C195.583 401.881 195.502 401.237 195.34 400.706C195.181 400.175 194.951 399.77 194.649 399.491C194.351 399.213 193.992 399.074 193.571 399.074C192.941 399.074 192.448 399.385 192.093 400.007C191.737 400.626 191.56 401.503 191.56 402.636C191.56 403.392 191.639 404.034 191.799 404.562C191.958 405.091 192.186 405.493 192.485 405.768C192.786 406.044 193.148 406.182 193.571 406.182ZM201.071 407.119C200.429 407.119 199.882 406.945 199.431 406.595C198.979 406.243 198.634 405.733 198.395 405.065C198.157 404.395 198.037 403.585 198.037 402.636C198.037 401.693 198.157 400.888 198.395 400.22C198.637 399.55 198.983 399.038 199.435 398.686C199.889 398.331 200.435 398.153 201.071 398.153C201.708 398.153 202.252 398.331 202.703 398.686C203.158 399.038 203.505 399.55 203.743 400.22C203.985 400.888 204.105 401.693 204.105 402.636C204.105 403.585 203.986 404.395 203.747 405.065C203.509 405.733 203.164 406.243 202.712 406.595C202.26 406.945 201.713 407.119 201.071 407.119ZM201.071 406.182C201.708 406.182 202.202 405.875 202.554 405.261C202.907 404.648 203.083 403.773 203.083 402.636C203.083 401.881 203.002 401.237 202.84 400.706C202.681 400.175 202.451 399.77 202.149 399.491C201.851 399.213 201.492 399.074 201.071 399.074C200.441 399.074 199.948 399.385 199.593 400.007C199.237 400.626 199.06 401.503 199.06 402.636C199.06 403.392 199.139 404.034 199.299 404.562C199.458 405.091 199.686 405.493 199.985 405.768C200.286 406.044 200.648 406.182 201.071 406.182Z" fill="#B8C0CC"/>
<line x1="237.5" y1="392" x2="237.5" y2="196" stroke="#9E59FF" stroke-opacity="0.29"/>
<path d="M239.176 407L243.08 399.278V399.21H238.58V398.273H244.17V399.261L240.284 407H239.176ZM248.418 407.119C247.776 407.119 247.229 406.945 246.777 406.595C246.326 406.243 245.98 405.733 245.742 405.065C245.503 404.395 245.384 403.585 245.384 402.636C245.384 401.693 245.503 400.888 245.742 400.22C245.983 399.55 246.33 399.038 246.782 398.686C247.236 398.331 247.782 398.153 248.418 398.153C249.054 398.153 249.598 398.331 250.05 398.686C250.505 399.038 250.851 399.55 251.09 400.22C251.331 400.888 251.452 401.693 251.452 402.636C251.452 403.585 251.333 404.395 251.094 405.065C250.855 405.733 250.51 406.243 250.059 406.595C249.607 406.945 249.06 407.119 248.418 407.119ZM248.418 406.182C249.054 406.182 249.549 405.875 249.901 405.261C250.253 404.648 250.429 403.773 250.429 402.636C250.429 401.881 250.348 401.237 250.186 400.706C250.027 400.175 249.797 399.77 249.496 399.491C249.198 399.213 248.838 399.074 248.418 399.074C247.787 399.074 247.294 399.385 246.939 400.007C246.584 400.626 246.407 401.503 246.407 402.636C246.407 403.392 246.486 404.034 246.645 404.562C246.804 405.091 247.033 405.493 247.331 405.768C247.632 406.044 247.995 406.182 248.418 406.182ZM255.918 407.119C255.276 407.119 254.729 406.945 254.277 406.595C253.826 406.243 253.48 405.733 253.242 405.065C253.003 404.395 252.884 403.585 252.884 402.636C252.884 401.693 253.003 400.888 253.242 400.22C253.483 399.55 253.83 399.038 254.282 398.686C254.736 398.331 255.282 398.153 255.918 398.153C256.554 398.153 257.098 398.331 257.55 398.686C258.005 399.038 258.351 399.55 258.59 400.22C258.831 400.888 258.952 401.693 258.952 402.636C258.952 403.585 258.833 404.395 258.594 405.065C258.355 405.733 258.01 406.243 257.559 406.595C257.107 406.945 256.56 407.119 255.918 407.119ZM255.918 406.182C256.554 406.182 257.049 405.875 257.401 405.261C257.753 404.648 257.929 403.773 257.929 402.636C257.929 401.881 257.848 401.237 257.686 400.706C257.527 400.175 257.297 399.77 256.996 399.491C256.698 399.213 256.338 399.074 255.918 399.074C255.287 399.074 254.794 399.385 254.439 400.007C254.084 400.626 253.907 401.503 253.907 402.636C253.907 403.392 253.986 404.034 254.145 404.562C254.304 405.091 254.533 405.493 254.831 405.768C255.132 406.044 255.495 406.182 255.918 406.182Z" fill="#B8C0CC"/>
<line x1="293.167" y1="392" x2="293.167" y2="196" stroke="#9E59FF" stroke-opacity="0.29"/>
<path d="M297.366 407.119C296.781 407.119 296.264 407.016 295.815 406.808C295.369 406.598 295.021 406.31 294.771 405.943C294.521 405.574 294.397 405.153 294.4 404.682C294.397 404.312 294.47 403.972 294.617 403.659C294.765 403.344 294.967 403.081 295.222 402.871C295.481 402.658 295.769 402.523 296.087 402.466V402.415C295.67 402.307 295.337 402.072 295.09 401.712C294.843 401.348 294.721 400.935 294.724 400.472C294.721 400.028 294.833 399.632 295.06 399.283C295.288 398.933 295.6 398.658 295.998 398.456C296.399 398.254 296.854 398.153 297.366 398.153C297.872 398.153 298.323 398.254 298.721 398.456C299.119 398.658 299.431 398.933 299.658 399.283C299.889 399.632 300.005 400.028 300.008 400.472C300.005 400.935 299.879 401.348 299.629 401.712C299.381 402.072 299.053 402.307 298.644 402.415V402.466C298.96 402.523 299.244 402.658 299.497 402.871C299.749 403.081 299.951 403.344 300.102 403.659C300.252 403.972 300.329 404.312 300.332 404.682C300.329 405.153 300.201 405.574 299.948 405.943C299.698 406.31 299.35 406.598 298.904 406.808C298.461 407.016 297.948 407.119 297.366 407.119ZM297.366 406.182C297.761 406.182 298.102 406.118 298.389 405.99C298.676 405.862 298.897 405.682 299.053 405.449C299.21 405.216 299.289 404.943 299.292 404.631C299.289 404.301 299.204 404.01 299.036 403.757C298.869 403.504 298.64 403.305 298.35 403.161C298.063 403.016 297.735 402.943 297.366 402.943C296.994 402.943 296.661 403.016 296.369 403.161C296.079 403.305 295.85 403.504 295.683 403.757C295.518 404.01 295.437 404.301 295.44 404.631C295.437 404.943 295.512 405.216 295.666 405.449C295.822 405.682 296.045 405.862 296.335 405.99C296.624 406.118 296.968 406.182 297.366 406.182ZM297.366 402.04C297.678 402.04 297.955 401.977 298.197 401.852C298.441 401.727 298.633 401.553 298.772 401.328C298.911 401.104 298.982 400.841 298.985 400.54C298.982 400.244 298.913 399.987 298.776 399.768C298.64 399.547 298.451 399.376 298.21 399.257C297.968 399.135 297.687 399.074 297.366 399.074C297.039 399.074 296.754 399.135 296.509 399.257C296.265 399.376 296.076 399.547 295.943 399.768C295.809 399.987 295.744 400.244 295.747 400.54C295.744 400.841 295.81 401.104 295.947 401.328C296.086 401.553 296.278 401.727 296.522 401.852C296.766 401.977 297.048 402.04 297.366 402.04ZM304.812 407.119C304.169 407.119 303.623 406.945 303.171 406.595C302.719 406.243 302.374 405.733 302.135 405.065C301.897 404.395 301.777 403.585 301.777 402.636C301.777 401.693 301.897 400.888 302.135 400.22C302.377 399.55 302.723 399.038 303.175 398.686C303.63 398.331 304.175 398.153 304.812 398.153C305.448 398.153 305.992 398.331 306.444 398.686C306.898 399.038 307.245 399.55 307.483 400.22C307.725 400.888 307.846 401.693 307.846 402.636C307.846 403.585 307.726 404.395 307.488 405.065C307.249 405.733 306.904 406.243 306.452 406.595C306 406.945 305.454 407.119 304.812 407.119ZM304.812 406.182C305.448 406.182 305.942 405.875 306.294 405.261C306.647 404.648 306.823 403.773 306.823 402.636C306.823 401.881 306.742 401.237 306.58 400.706C306.421 400.175 306.191 399.77 305.89 399.491C305.591 399.213 305.232 399.074 304.812 399.074C304.181 399.074 303.688 399.385 303.333 400.007C302.978 400.626 302.8 401.503 302.8 402.636C302.8 403.392 302.88 404.034 303.039 404.562C303.198 405.091 303.427 405.493 303.725 405.768C304.026 406.044 304.388 406.182 304.812 406.182ZM312.312 407.119C311.669 407.119 311.123 406.945 310.671 406.595C310.219 406.243 309.874 405.733 309.635 405.065C309.397 404.395 309.277 403.585 309.277 402.636C309.277 401.693 309.397 400.888 309.635 400.22C309.877 399.55 310.223 399.038 310.675 398.686C311.13 398.331 311.675 398.153 312.312 398.153C312.948 398.153 313.492 398.331 313.944 398.686C314.398 399.038 314.745 399.55 314.983 400.22C315.225 400.888 315.346 401.693 315.346 402.636C315.346 403.585 315.226 404.395 314.988 405.065C314.749 405.733 314.404 406.243 313.952 406.595C313.5 406.945 312.954 407.119 312.312 407.119ZM312.312 406.182C312.948 406.182 313.442 405.875 313.794 405.261C314.147 404.648 314.323 403.773 314.323 402.636C314.323 401.881 314.242 401.237 314.08 400.706C313.921 400.175 313.691 399.77 313.39 399.491C313.091 399.213 312.732 399.074 312.312 399.074C311.681 399.074 311.188 399.385 310.833 400.007C310.478 400.626 310.3 401.503 310.3 402.636C310.3 403.392 310.38 404.034 310.539 404.562C310.698 405.091 310.927 405.493 311.225 405.768C311.526 406.044 311.888 406.182 312.312 406.182Z" fill="#B8C0CC"/>
<line x1="348.833" y1="392" x2="348.833" y2="196" stroke="#9E59FF" stroke-opacity="0.29"/>
<path d="M353.015 398.153C353.373 398.156 353.731 398.224 354.089 398.358C354.447 398.491 354.773 398.713 355.069 399.023C355.364 399.33 355.601 399.749 355.78 400.28C355.959 400.811 356.049 401.477 356.049 402.278C356.049 403.054 355.975 403.743 355.827 404.345C355.682 404.945 355.472 405.45 355.197 405.862C354.924 406.274 354.592 406.587 354.199 406.8C353.81 407.013 353.37 407.119 352.878 407.119C352.39 407.119 351.954 407.023 351.57 406.83C351.19 406.634 350.877 406.362 350.633 406.016C350.391 405.666 350.236 405.261 350.168 404.801H351.208C351.302 405.202 351.488 405.533 351.766 405.794C352.047 406.053 352.418 406.182 352.878 406.182C353.552 406.182 354.083 405.888 354.472 405.3C354.864 404.712 355.06 403.881 355.06 402.807H354.992C354.833 403.045 354.644 403.251 354.425 403.425C354.207 403.598 353.964 403.732 353.697 403.825C353.43 403.919 353.146 403.966 352.844 403.966C352.344 403.966 351.886 403.842 351.468 403.595C351.053 403.345 350.721 403.003 350.471 402.568C350.224 402.131 350.1 401.631 350.1 401.068C350.1 400.534 350.219 400.045 350.458 399.602C350.699 399.156 351.038 398.801 351.472 398.537C351.91 398.273 352.424 398.145 353.015 398.153ZM353.015 399.091C352.657 399.091 352.334 399.18 352.047 399.359C351.763 399.536 351.538 399.774 351.37 400.075C351.205 400.374 351.123 400.705 351.123 401.068C351.123 401.432 351.202 401.763 351.361 402.061C351.523 402.357 351.744 402.592 352.022 402.768C352.303 402.942 352.623 403.028 352.981 403.028C353.251 403.028 353.502 402.976 353.735 402.871C353.968 402.763 354.171 402.616 354.344 402.432C354.521 402.244 354.658 402.033 354.758 401.797C354.857 401.558 354.907 401.31 354.907 401.051C354.907 400.71 354.824 400.391 354.66 400.092C354.498 399.794 354.273 399.553 353.986 399.368C353.702 399.183 353.378 399.091 353.015 399.091ZM360.571 407.119C359.929 407.119 359.382 406.945 358.931 406.595C358.479 406.243 358.134 405.733 357.895 405.065C357.657 404.395 357.537 403.585 357.537 402.636C357.537 401.693 357.657 400.888 357.895 400.22C358.137 399.55 358.483 399.038 358.935 398.686C359.389 398.331 359.935 398.153 360.571 398.153C361.208 398.153 361.752 398.331 362.203 398.686C362.658 399.038 363.005 399.55 363.243 400.22C363.485 400.888 363.605 401.693 363.605 402.636C363.605 403.585 363.486 404.395 363.247 405.065C363.009 405.733 362.664 406.243 362.212 406.595C361.76 406.945 361.213 407.119 360.571 407.119ZM360.571 406.182C361.208 406.182 361.702 405.875 362.054 405.261C362.407 404.648 362.583 403.773 362.583 402.636C362.583 401.881 362.502 401.237 362.34 400.706C362.181 400.175 361.951 399.77 361.649 399.491C361.351 399.213 360.992 399.074 360.571 399.074C359.941 399.074 359.448 399.385 359.093 400.007C358.737 400.626 358.56 401.503 358.56 402.636C358.56 403.392 358.639 404.034 358.799 404.562C358.958 405.091 359.186 405.493 359.485 405.768C359.786 406.044 360.148 406.182 360.571 406.182ZM368.071 407.119C367.429 407.119 366.882 406.945 366.431 406.595C365.979 406.243 365.634 405.733 365.395 405.065C365.157 404.395 365.037 403.585 365.037 402.636C365.037 401.693 365.157 400.888 365.395 400.22C365.637 399.55 365.983 399.038 366.435 398.686C366.889 398.331 367.435 398.153 368.071 398.153C368.708 398.153 369.252 398.331 369.703 398.686C370.158 399.038 370.505 399.55 370.743 400.22C370.985 400.888 371.105 401.693 371.105 402.636C371.105 403.585 370.986 404.395 370.747 405.065C370.509 405.733 370.164 406.243 369.712 406.595C369.26 406.945 368.713 407.119 368.071 407.119ZM368.071 406.182C368.708 406.182 369.202 405.875 369.554 405.261C369.907 404.648 370.083 403.773 370.083 402.636C370.083 401.881 370.002 401.237 369.84 400.706C369.681 400.175 369.451 399.77 369.149 399.491C368.851 399.213 368.492 399.074 368.071 399.074C367.441 399.074 366.948 399.385 366.593 400.007C366.237 400.626 366.06 401.503 366.06 402.636C366.06 403.392 366.139 404.034 366.299 404.562C366.458 405.091 366.686 405.493 366.985 405.768C367.286 406.044 367.648 406.182 368.071 406.182Z" fill="#B8C0CC"/>
<path d="M73.3194 362.981L71 362.61V392H405V215.323L402.681 228.35V228.351C400.361 241.378 395.722 267.433 391.083 264.18C386.444 260.926 381.806 228.364 377.167 217.079C372.528 205.794 367.889 215.787 363.25 223.202C358.611 230.617 353.972 235.453 349.333 256.51C344.694 277.567 340.056 314.845 335.417 336.931C330.778 359.018 326.139 365.913 321.5 361.521C316.861 357.129 312.222 341.45 307.583 328.768C302.944 316.087 298.306 306.402 293.667 305.162C289.028 303.923 284.389 311.127 279.75 307.084C275.111 303.04 270.472 287.747 265.833 297.48C261.194 307.212 256.556 341.969 251.917 333.253C247.278 324.536 242.639 272.346 238 268.331C233.361 264.316 228.722 308.475 224.083 309.132C219.444 309.79 214.806 266.945 210.167 260.877C205.528 254.809 200.889 285.518 196.25 287.505C191.611 289.492 186.972 262.758 182.333 280.042C177.694 297.325 173.056 358.626 168.417 373.587C163.778 388.549 159.139 357.17 154.5 350.854C149.861 344.537 145.222 363.282 140.583 352.635C135.944 341.987 131.306 301.948 126.667 303.745C122.028 305.543 117.389 349.177 112.75 363.21C108.111 377.242 103.472 361.672 98.8333 357.01C94.1944 352.347 89.5556 358.592 84.9167 361.343C80.2778 364.094 75.6389 363.352 73.3194 362.981Z" fill="url(#paint0_linear_2136_656)"/>
<path d="M71 362.164L73.3194 362.533C75.6389 362.903 80.2778 363.643 84.9167 360.9C89.5556 358.157 94.1944 351.931 98.8333 356.58C103.472 361.229 108.111 376.752 112.75 362.761C117.389 348.77 122.028 305.265 126.667 303.473C131.306 301.681 135.944 341.602 140.583 352.218C145.222 362.833 149.861 344.144 154.5 350.442C159.139 356.74 163.778 388.025 168.417 373.108C173.056 358.191 177.694 297.072 182.333 279.84C186.972 262.608 191.611 289.263 196.25 287.281C200.889 285.3 205.528 254.682 210.167 260.732C214.806 266.782 219.444 309.5 224.083 308.844C228.722 308.189 233.361 264.16 238 268.164C242.639 272.167 247.278 324.202 251.917 332.893C256.556 341.584 261.194 306.93 265.833 297.226C270.472 287.523 275.111 302.77 279.75 306.802C284.389 310.833 289.028 303.65 293.667 304.886C298.306 306.122 302.944 315.778 307.583 328.422C312.222 341.066 316.861 356.698 321.5 361.077C326.139 365.456 330.778 358.582 335.417 336.561C340.056 314.54 344.694 277.373 349.333 256.378C353.972 235.384 358.611 230.562 363.25 223.169C367.889 215.776 372.528 205.813 377.167 217.064C381.806 228.315 386.444 260.781 391.083 264.025C395.722 267.269 400.361 241.291 402.681 228.302L405 215.313" stroke="#00C7F2"/>
<path d="M73.3194 391.631L71 391.583L75.5223 391.581C78.018 391.358 81.4674 390.357 84.9167 386.249C89.5556 380.724 94.1944 369.578 98.8333 365.012C103.472 360.446 108.111 362.459 112.75 360.093C117.389 357.728 122.028 350.985 126.667 348.663C131.306 346.341 135.944 348.44 140.583 346.204C145.222 343.969 149.861 337.399 154.5 337.44C159.139 337.48 163.778 344.132 168.417 343.642C173.056 343.153 177.694 335.522 182.333 331.47C186.972 327.418 191.611 326.943 196.25 328.015C200.889 329.087 205.528 331.706 210.167 331.753C214.806 331.799 219.444 329.275 224.083 327.421C228.722 325.568 233.361 324.385 238 320.221C242.639 316.057 247.278 308.912 251.917 306.827C256.556 304.742 261.194 307.719 265.833 306.176C270.472 304.633 275.111 298.572 279.75 292.006C284.389 285.44 289.028 278.369 293.667 277.569C298.306 276.769 302.944 282.238 307.583 283.066C312.222 283.894 316.861 280.081 321.5 279.439C326.139 278.798 330.778 281.328 335.417 277.07C340.056 272.812 344.694 261.766 349.333 254.921C353.972 248.075 358.611 245.43 363.25 243.22C367.889 241.009 372.528 239.233 377.167 237.68C381.806 236.126 386.444 234.795 391.083 235.026C395.722 235.257 400.361 237.05 402.681 237.946L405 238.842L404.524 391.447L75.5223 391.581C74.6615 391.658 73.9142 391.643 73.3194 391.631Z" fill="url(#paint1_linear_2136_656)"/>
<path d="M72.8398 391.631C75.1626 391.678 79.8082 391.774 84.4538 386.249C89.0994 380.724 93.745 369.578 98.3906 365.012C103.036 360.446 107.682 362.459 112.327 360.093C116.973 357.728 121.619 350.985 126.264 348.663C130.91 346.341 135.555 348.44 140.201 346.204C144.846 343.969 149.492 337.399 154.138 337.44C158.783 337.48 163.429 344.132 168.074 343.642C172.72 343.153 177.366 335.522 182.011 331.47C186.657 327.418 191.302 326.943 195.948 328.015C200.594 329.087 205.239 331.706 209.885 331.753C214.53 331.799 219.176 329.275 223.822 327.421C228.467 325.568 233.113 324.385 237.758 320.221C242.404 316.057 247.049 308.912 251.695 306.827C256.341 304.742 260.986 307.719 265.632 306.176C270.277 304.633 274.923 298.572 279.569 292.006C284.214 285.44 288.86 278.369 293.505 277.569C298.151 276.769 302.797 282.238 307.442 283.066C312.088 283.894 316.733 280.081 321.379 279.439C326.025 278.798 330.67 281.328 335.316 277.07C339.961 272.812 344.607 261.766 349.252 254.921C353.898 248.075 358.544 245.43 363.189 243.22C367.835 241.009 372.48 239.233 377.126 237.68C381.772 236.126 386.417 234.795 391.063 235.026C395.708 235.257 400.354 237.05 402.677 237.946L405 238.842" stroke="#0FCA7A"/>
<path d="M24.022 302.534L25 302.534L25 307.412L16.402 307.412L16.402 306.254L24.022 306.254L24.022 302.534ZM22.264 297.706C22.28 298.198 22.32 298.618 22.384 298.966C22.444 299.31 22.524 299.592 22.624 299.812C22.724 300.028 22.842 300.186 22.978 300.286C23.114 300.382 23.266 300.43 23.434 300.43C23.594 300.43 23.732 300.404 23.848 300.352C23.964 300.3 24.06 300.23 24.136 300.142C24.208 300.05 24.262 299.944 24.298 299.824C24.33 299.7 24.346 299.568 24.346 299.428C24.346 299.24 24.328 299.068 24.292 298.912C24.252 298.756 24.196 298.61 24.124 298.474C24.052 298.334 23.966 298.202 23.866 298.078C23.766 297.95 23.652 297.826 23.524 297.706L22.264 297.706ZM19.78 301.156C19.456 300.82 19.214 300.458 19.054 300.07C18.894 299.682 18.814 299.252 18.814 298.78C18.814 298.44 18.87 298.138 18.982 297.874C19.094 297.61 19.25 297.388 19.45 297.208C19.65 297.028 19.892 296.892 20.176 296.8C20.46 296.708 20.772 296.662 21.112 296.662L25 296.662L25 297.136C25 297.24 24.984 297.32 24.952 297.376C24.916 297.432 24.848 297.476 24.748 297.508L24.172 297.628C24.32 297.788 24.452 297.944 24.568 298.096C24.68 298.248 24.776 298.408 24.856 298.576C24.932 298.744 24.99 298.924 25.03 299.116C25.074 299.304 25.096 299.514 25.096 299.746C25.096 299.982 25.064 300.204 25 300.412C24.932 300.62 24.832 300.802 24.7 300.958C24.568 301.11 24.402 301.232 24.202 301.324C23.998 301.412 23.758 301.456 23.482 301.456C23.242 301.456 23.012 301.39 22.792 301.258C22.568 301.126 22.37 300.912 22.198 300.616C22.026 300.32 21.886 299.934 21.778 299.458C21.666 298.982 21.602 298.398 21.586 297.706L21.112 297.706C20.64 297.706 20.284 297.808 20.044 298.012C19.8 298.216 19.678 298.514 19.678 298.906C19.678 299.17 19.712 299.392 19.78 299.572C19.844 299.748 19.918 299.902 20.002 300.034C20.082 300.162 20.156 300.274 20.224 300.37C20.288 300.462 20.32 300.554 20.32 300.646C20.32 300.718 20.302 300.78 20.266 300.832C20.226 300.884 20.178 300.928 20.122 300.964L19.78 301.156ZM23.536 293.461C23.8 293.265 23.986 293.051 24.094 292.819C24.202 292.583 24.256 292.325 24.256 292.045C24.256 291.473 24.054 291.035 23.65 290.731C23.246 290.427 22.644 290.275 21.844 290.275C21.1 290.275 20.554 290.411 20.206 290.683C19.854 290.951 19.678 291.335 19.678 291.835C19.678 292.183 19.758 292.487 19.918 292.747C20.078 293.003 20.304 293.241 20.596 293.461L23.536 293.461ZM19.798 293.461C19.502 293.205 19.266 292.917 19.09 292.597C18.914 292.273 18.826 291.901 18.826 291.481C18.826 291.125 18.894 290.805 19.03 290.521C19.166 290.233 19.364 289.989 19.624 289.789C19.88 289.589 20.192 289.437 20.56 289.333C20.928 289.225 21.342 289.171 21.802 289.171C22.294 289.171 22.742 289.231 23.146 289.351C23.55 289.471 23.896 289.645 24.184 289.873C24.468 290.097 24.69 290.371 24.85 290.695C25.006 291.019 25.084 291.383 25.084 291.787C25.084 292.187 25.01 292.525 24.862 292.801C24.71 293.073 24.496 293.311 24.22 293.515L24.772 293.569C24.924 293.601 25 293.693 25 293.845L25 294.535L16.162 294.535L16.162 293.461L19.798 293.461ZM21.298 283.252C21.05 283.252 20.824 283.288 20.62 283.36C20.412 283.428 20.234 283.53 20.086 283.666C19.934 283.798 19.818 283.96 19.738 284.152C19.654 284.344 19.612 284.562 19.612 284.806C19.612 285.318 19.762 285.724 20.062 286.024C20.358 286.32 20.77 286.504 21.298 286.576L21.298 283.252ZM24.148 282.388C24.308 282.52 24.448 282.678 24.568 282.862C24.684 283.046 24.78 283.244 24.856 283.456C24.932 283.664 24.988 283.88 25.024 284.104C25.064 284.328 25.084 284.55 25.084 284.77C25.084 285.19 25.014 285.578 24.874 285.934C24.73 286.286 24.522 286.592 24.25 286.852C23.974 287.108 23.634 287.308 23.23 287.452C22.826 287.596 22.362 287.668 21.838 287.668C21.414 287.668 21.018 287.604 20.65 287.476C20.282 287.344 19.964 287.156 19.696 286.912C19.424 286.668 19.212 286.37 19.06 286.018C18.904 285.666 18.826 285.27 18.826 284.83C18.826 284.466 18.888 284.13 19.012 283.822C19.132 283.51 19.308 283.242 19.54 283.018C19.768 282.79 20.052 282.612 20.392 282.484C20.728 282.356 21.112 282.292 21.544 282.292C21.712 282.292 21.824 282.31 21.88 282.346C21.936 282.382 21.964 282.45 21.964 282.55L21.964 286.612C22.348 286.6 22.682 286.548 22.966 286.456C23.25 286.36 23.488 286.228 23.68 286.06C23.868 285.892 24.01 285.692 24.106 285.46C24.198 285.228 24.244 284.968 24.244 284.68C24.244 284.412 24.214 284.182 24.154 283.99C24.09 283.794 24.022 283.626 23.95 283.486C23.878 283.346 23.812 283.23 23.752 283.138C23.688 283.042 23.656 282.96 23.656 282.892C23.656 282.804 23.69 282.736 23.758 282.688L24.148 282.388ZM16.162 279.376L25 279.376L25 280.444L16.162 280.444L16.162 279.376Z" fill="white"/>
<path d="M229.466 433.022V434H224.588V425.402H225.746V433.022H229.466ZM234.294 431.264C233.802 431.28 233.382 431.32 233.034 431.384C232.69 431.444 232.408 431.524 232.188 431.624C231.972 431.724 231.814 431.842 231.714 431.978C231.618 432.114 231.57 432.266 231.57 432.434C231.57 432.594 231.596 432.732 231.648 432.848C231.7 432.964 231.77 433.06 231.858 433.136C231.95 433.208 232.056 433.262 232.176 433.298C232.3 433.33 232.432 433.346 232.572 433.346C232.76 433.346 232.932 433.328 233.088 433.292C233.244 433.252 233.39 433.196 233.526 433.124C233.666 433.052 233.798 432.966 233.922 432.866C234.05 432.766 234.174 432.652 234.294 432.524V431.264ZM230.844 428.78C231.18 428.456 231.542 428.214 231.93 428.054C232.318 427.894 232.748 427.814 233.22 427.814C233.56 427.814 233.862 427.87 234.126 427.982C234.39 428.094 234.612 428.25 234.792 428.45C234.972 428.65 235.108 428.892 235.2 429.176C235.292 429.46 235.338 429.772 235.338 430.112V434H234.864C234.76 434 234.68 433.984 234.624 433.952C234.568 433.916 234.524 433.848 234.492 433.748L234.372 433.172C234.212 433.32 234.056 433.452 233.904 433.568C233.752 433.68 233.592 433.776 233.424 433.856C233.256 433.932 233.076 433.99 232.884 434.03C232.696 434.074 232.486 434.096 232.254 434.096C232.018 434.096 231.796 434.064 231.588 434C231.38 433.932 231.198 433.832 231.042 433.7C230.89 433.568 230.768 433.402 230.676 433.202C230.588 432.998 230.544 432.758 230.544 432.482C230.544 432.242 230.61 432.012 230.742 431.792C230.874 431.568 231.088 431.37 231.384 431.198C231.68 431.026 232.066 430.886 232.542 430.778C233.018 430.666 233.602 430.602 234.294 430.586V430.112C234.294 429.64 234.192 429.284 233.988 429.044C233.784 428.8 233.486 428.678 233.094 428.678C232.83 428.678 232.608 428.712 232.428 428.78C232.252 428.844 232.098 428.918 231.966 429.002C231.838 429.082 231.726 429.156 231.63 429.224C231.538 429.288 231.446 429.32 231.354 429.32C231.282 429.32 231.22 429.302 231.168 429.266C231.116 429.226 231.072 429.178 231.036 429.122L230.844 428.78ZM238.539 432.536C238.735 432.8 238.949 432.986 239.181 433.094C239.417 433.202 239.675 433.256 239.955 433.256C240.527 433.256 240.965 433.054 241.269 432.65C241.573 432.246 241.725 431.644 241.725 430.844C241.725 430.1 241.589 429.554 241.317 429.206C241.049 428.854 240.665 428.678 240.165 428.678C239.817 428.678 239.513 428.758 239.253 428.918C238.997 429.078 238.759 429.304 238.539 429.596V432.536ZM238.539 428.798C238.795 428.502 239.083 428.266 239.403 428.09C239.727 427.914 240.099 427.826 240.519 427.826C240.875 427.826 241.195 427.894 241.479 428.03C241.767 428.166 242.011 428.364 242.211 428.624C242.411 428.88 242.563 429.192 242.667 429.56C242.775 429.928 242.829 430.342 242.829 430.802C242.829 431.294 242.769 431.742 242.649 432.146C242.529 432.55 242.355 432.896 242.127 433.184C241.903 433.468 241.629 433.69 241.305 433.85C240.981 434.006 240.617 434.084 240.213 434.084C239.813 434.084 239.475 434.01 239.199 433.862C238.927 433.71 238.689 433.496 238.485 433.22L238.431 433.772C238.399 433.924 238.307 434 238.155 434H237.465V425.162H238.539V428.798ZM248.748 430.298C248.748 430.05 248.712 429.824 248.64 429.62C248.572 429.412 248.47 429.234 248.334 429.086C248.202 428.934 248.04 428.818 247.848 428.738C247.656 428.654 247.438 428.612 247.194 428.612C246.682 428.612 246.276 428.762 245.976 429.062C245.68 429.358 245.496 429.77 245.424 430.298H248.748ZM249.612 433.148C249.48 433.308 249.322 433.448 249.138 433.568C248.954 433.684 248.756 433.78 248.544 433.856C248.336 433.932 248.12 433.988 247.896 434.024C247.672 434.064 247.45 434.084 247.23 434.084C246.81 434.084 246.422 434.014 246.066 433.874C245.714 433.73 245.408 433.522 245.148 433.25C244.892 432.974 244.692 432.634 244.548 432.23C244.404 431.826 244.332 431.362 244.332 430.838C244.332 430.414 244.396 430.018 244.524 429.65C244.656 429.282 244.844 428.964 245.088 428.696C245.332 428.424 245.63 428.212 245.982 428.06C246.334 427.904 246.73 427.826 247.17 427.826C247.534 427.826 247.87 427.888 248.178 428.012C248.49 428.132 248.758 428.308 248.982 428.54C249.21 428.768 249.388 429.052 249.516 429.392C249.644 429.728 249.708 430.112 249.708 430.544C249.708 430.712 249.69 430.824 249.654 430.88C249.618 430.936 249.55 430.964 249.45 430.964H245.388C245.4 431.348 245.452 431.682 245.544 431.966C245.64 432.25 245.772 432.488 245.94 432.68C246.108 432.868 246.308 433.01 246.54 433.106C246.772 433.198 247.032 433.244 247.32 433.244C247.588 433.244 247.818 433.214 248.01 433.154C248.206 433.09 248.374 433.022 248.514 432.95C248.654 432.878 248.77 432.812 248.862 432.752C248.958 432.688 249.04 432.656 249.108 432.656C249.196 432.656 249.264 432.69 249.312 432.758L249.612 433.148ZM252.624 425.162V434H251.556V425.162H252.624Z" fill="white"/>
<rect width="429" height="118" transform="translate(0 440)" fill="#121139"/>
</g>
<defs>
<linearGradient id="paint0_linear_2136_656" x1="238" y1="212" x2="238" y2="392" gradientUnits="userSpaceOnUse">
<stop stop-color="#423EE0"/>
<stop offset="1" stop-color="#812DE2" stop-opacity="0.42"/>
</linearGradient>
<linearGradient id="paint1_linear_2136_656" x1="238" y1="235" x2="238" y2="391.641" gradientUnits="userSpaceOnUse">
<stop stop-color="#9E59FF"/>
<stop offset="1" stop-color="#423EE0" stop-opacity="0.38"/>
</linearGradient>
<clipPath id="clip0_2136_656">
<rect width="429" height="452" rx="20" fill="white"/>
</clipPath>
</defs>
</svg>
