<svg width="40" height="40" viewBox="0 0 40 40" fill="none" xmlns="http://www.w3.org/2000/svg">
<path d="M2.5 35H37.5V37.5H2.5V35ZM33.75 13.75C34.0815 13.75 34.3995 13.6183 34.6339 13.3838C34.8683 13.1494 35 12.8315 35 12.5V8.74996C34.9999 8.49306 34.9206 8.24244 34.773 8.0322C34.6254 7.82196 34.4166 7.6623 34.175 7.57496L20.425 2.57496C20.1504 2.47567 19.8496 2.47567 19.575 2.57496L5.825 7.57496C5.58341 7.6623 5.3746 7.82196 5.22698 8.0322C5.07937 8.24244 5.00011 8.49306 5 8.74996V12.5C5 12.8315 5.1317 13.1494 5.36612 13.3838C5.60054 13.6183 5.91848 13.75 6.25 13.75H7.5V30H5V32.5H35V30H32.5V13.75H33.75ZM7.5 9.62496L20 5.07496L32.5 9.62496V11.25H7.5V9.62496ZM22.5 30H17.5V13.75H22.5V30ZM10 13.75H15V30H10V13.75ZM30 30H25V13.75H30V30Z" fill="#3A49F9"/>
</svg>
