<svg width="214" height="268" viewBox="0 0 214 268" fill="none" xmlns="http://www.w3.org/2000/svg">
<rect y="1" width="214" height="266" rx="30" fill="url(#paint0_linear_2272_435)"/>
<mask id="mask0_2272_435" style="mask-type:alpha" maskUnits="userSpaceOnUse" x="-1" y="0" width="215" height="268">
<rect x="-0.00927734" y="0.619324" width="213.538" height="266.425" rx="30" fill="#ED713C"/>
</mask>
<g mask="url(#mask0_2272_435)">
<path opacity="0.1" d="M107.168 280.076C107.168 360.214 41.01 425.696 -41.2441 425.696C-123.498 425.696 -189.656 360.214 -189.656 280.076C-189.656 199.938 -123.498 134.456 -41.2441 134.456C41.01 134.456 107.168 199.938 107.168 280.076Z" fill="black" stroke="black" stroke-width="36"/>
<path opacity="0.1" d="M417.902 -37.7517C417.902 64.4901 348.678 141.895 269.49 141.895C190.301 141.895 121.078 64.4901 121.078 -37.7517C121.078 -139.993 190.301 -217.399 269.49 -217.399C348.678 -217.399 417.902 -139.993 417.902 -37.7517Z" fill="black" stroke="black" stroke-width="36"/>
</g>
<circle cx="72" cy="163" r="3" fill="white"/>
<circle cx="43" cy="163" r="3" fill="white"/>
<circle cx="57" cy="163" r="3" fill="white"/>
<circle cx="28" cy="163" r="3" fill="white"/>
<rect x="25.0264" y="198.99" width="48.5982" height="31.8552" rx="5" fill="url(#paint1_radial_2272_435)"/>
<path fill-rule="evenodd" clip-rule="evenodd" d="M49.3256 199.307L43.9258 207.632C43.9258 207.632 46.0857 214.916 43.9258 221.16L49.3256 230.525L54.7254 221.16C54.7254 221.16 52.5655 215.957 54.7254 207.632C54.7254 207.632 49.3256 199.307 49.3256 199.307Z" stroke="#C7C7B6" stroke-width="1.3" stroke-linejoin="bevel"/>
<path d="M25.0264 208.014H43.9257" stroke="#C7C7B6" stroke-width="1.3" stroke-linejoin="bevel"/>
<path d="M54.1846 208.014H73.6239" stroke="#C7C7B6" stroke-width="1.3" stroke-linejoin="bevel"/>
<path d="M25.0264 220.756H43.9257" stroke="#C7C7B6" stroke-width="1.3" stroke-linejoin="bevel"/>
<path d="M54.1846 220.756H73.6239" stroke="#C7C7B6" stroke-width="1.3" stroke-linejoin="bevel"/>
<path d="M49.2026 33.885H67.121V65.5411H49.2026V33.885Z" fill="#B27BFF"/>
<path d="M50.3399 49.7132C50.3399 43.2814 53.4115 37.5765 58.1328 33.885C54.6631 31.2005 50.2831 29.5786 45.5049 29.5786C34.1846 29.5786 25.0264 38.5831 25.0264 49.7132C25.0264 60.8431 34.1846 69.8478 45.5046 69.8478C50.2829 69.8478 54.6628 68.2259 58.1328 65.5411C53.4115 61.9057 50.3399 56.145 50.3399 49.7132Z" fill="#9E59FF"/>
<path d="M91.2958 49.7132C91.2958 60.8431 82.1376 69.8478 70.8176 69.8478C66.0393 69.8478 61.6594 68.2259 58.1895 65.5411C62.9677 61.8499 65.9826 56.145 65.9826 49.7132C65.9826 43.2814 62.9107 37.5765 58.1895 33.885C61.6591 31.2005 66.0393 29.5786 70.8176 29.5786C82.1376 29.5786 91.2961 38.6391 91.2961 49.7132H91.2958Z" fill="#9E59FF"/>
<defs>
<linearGradient id="paint0_linear_2272_435" x1="107.738" y1="-43.1" x2="128.331" y2="299.337" gradientUnits="userSpaceOnUse">
<stop stop-color="#9C2CF3"/>
<stop offset="1" stop-color="#3A49F9"/>
</linearGradient>
<radialGradient id="paint1_radial_2272_435" cx="0" cy="0" r="1" gradientUnits="userSpaceOnUse" gradientTransform="translate(52.934 210.594) rotate(141.774) scale(32.7287 32.3564)">
<stop stop-color="white"/>
<stop offset="1" stop-color="#DDDCDA"/>
</radialGradient>
</defs>
</svg>
